<svg xmlns="http://www.w3.org/2000/svg" xml:space="preserve" width="1944.725" height="307.44"><path d="M0 0v1.965h-5.326l-1.268-3.201h2.41v-3.773c0-1.216-.825-1.965-2.568-2.251l1.933-2.695c2.693.701 4.388 1.847 4.629 3.646.858-.982 2.163-1.522 4.121-1.522h5.263v6.468h1.585v-6.468h4.343v6.436h1.395v-6.436h7.767l.412.73v-.73h3.963v2.505c.834-1.226 2.05-2.452 3.645-3.677l2.473 1.172h5.738c1.828.022 3.022.719 3.583 2.093 2.382-3.377 8.004-2.668 9.605.919 1.152-2.126 3.308-3.012 6.15-3.012h3.804v6.563h.983l-1.3 3.233h-5.674c-1.872 0-3.191-.676-3.963-1.775-1.12 1.374-2.895 1.934-5.231 1.934-2.176 0-3.962-.655-4.882-1.934-.179 1.099-1.308 1.775-3.011 1.775h-6.372l-.286-.983c-.703.661-1.81.983-3.107.983h-5.833l-.38-1.046-.412 1.046h-7.197v-.697l-.412.697H9.194l-.317-.729v.729h-.856v2.188H2.124V1.965H1.11L0 0Zm4.85.982v-5.325h-.665c-.953 0-1.283.553-.951 1.838C3.546-1.296 4.1-.137 4.85.982zm15.82-2.028h3.772v-.444H20.67v.444zm-.095-3.139h3.233l.666 1.586V-4.66h-3.899v.475zm8.02 3.044v-1.078c.349.074.712.078.983.349.361.361.275.729-.063.729h-.92zm3.931-2.727c.529.317.973.676 1.332 1.078v-2.536c-.486.401-.93.888-1.332 1.458zm5.39 2.79v-.666l.887.286c.287.092.268.38-.032.38h-.855zm0-2.536V-4.66h1.077c.614 0 .516.321-.031.57l-1.046.476zm10.587-1.015c.823.022 1.305.844 1.394 2.473.037.686-.444 1.036-1.394 1.047-.95-.011-1.431-.361-1.394-1.047.089-1.629.571-2.451 1.394-2.473zm10.875.127v1.015h-1.046v2.282c-.73-.084-1.149-.42-1.173-1.014-.053-1.299.805-1.998 2.219-2.283z" style="fill:#2b2b2a;fill-opacity:1;fill-rule:evenodd;stroke:#2b2b2a;stroke-width:.21600001;stroke-linecap:butt;stroke-linejoin:miter;stroke-miterlimit:22.9260006;stroke-dasharray:none;stroke-opacity:1" transform="matrix(9.98005 0 0 -9.91801 1298.019 128.078)"/><path d="M0 0h-1.394c.361.597.835.967 1.423 1.109L0 0Zm-3.704 12.352-2.885-5.484 14.995-.032.032-9.479H4.697v4.121h.824l-1.141 3.9H.988C-2.516 5.109-5.169 3.583-6.145.274-7.27-3.542-6.2-6.635-4.116-9.078l3.519 2.662a8.531 8.531 0 0 0-1.3 2.631H.037v-3.708h16.105v4.121c1.722-2.325 3.741-4.649 6.055-6.975h10.556l-2.472 2.758h9.257l.348.667v-.667h7.545v3.995c2.121-2.965 6.122-4.242 11.54-4.248l.38.602a6.059 6.059 0 0 1 .983-2.409l7.26 2.631c-.455.856-.856 1.747-.856 2.695v2.916h1.426v-6.182h7.831V7.565h-7.736v-4.28H66.77v4.28h-7.292v-.983l-.444.983h-2.599c-4.282 0-7.461-.531-9.035-2.346v2.346h-7.545v-.951l-.666.951H27.808c-.432 3.426-3.128 4.787-7.704 4.787H-3.704zm19.941-9.479v3.709h1.331c1.247 0 1.619-.651.824-1.838-.493-.738-1.318-1.287-2.155-1.871ZM23.433.115a46.41 46.41 0 0 1 3.265-3.836v6.943c-.783-1.384-1.89-2.399-3.265-3.107Zm10.905 3.043h5.358v-.887h-5.358v.887zm-.031-5.262h4.47l.824 2.156v-2.98h-5.294v.824zm24.886-.539v5.58h-2.505c-1.989 0-2.871-.956-2.726-2.314.215-2.014 1.87-3.211 5.231-3.266z" style="fill:#2b2b2a;fill-opacity:1;fill-rule:evenodd;stroke:#2b2b2a;stroke-width:.21600001;stroke-linecap:butt;stroke-linejoin:miter;stroke-miterlimit:22.9260006;stroke-dasharray:none;stroke-opacity:1" transform="matrix(9.98005 0 0 -9.91801 67.541 168.208)"/><path d="m0 0-.587 2.314h-2.249C-6.651 2.021-8.977.251-9.647-2.933c-.598-2.841.146-5.256 1.564-7.334l2.216 1.63a6.366 6.366 0 0 0-1.206 3.52h3.879v-3.552h2.607v8.017h-2.607v-2.249h-3.651C-6.247-1.097-4.698.063-2.444.033L0 0Zm3.683-8.669H.848v2.705h2.835v-2.705zm7.171 0H5.28V4.302h5.574V-8.669zM-9.191 5.508h23.206c1.651 0 2.327-.597 2.249-1.662-.129-1.753-1.955-3.501-5.117-5.345 1.723-3.61 4.393-6.886 7.594-9.974h7.562c-3.304 3.241-6.379 6.462-8.638 9.615 2.884 1.724 4.966 3.686 4.726 6.552-.251 3.008-2.528 4.334-6.42 4.334H-7.236l-1.955-3.52zM42.143-8.669h-5.411V4.302h5.411V-8.669zM34.549 4.302H23.532V-8.669h11.506l1.14 2.639h-7.105v2.706h4.661L34.94-.782h-5.867v2.445h6.454l-.978 2.639zM55.571 1.63l-1.043 2.672h-3.715c-5.02-.038-8.021-1.807-7.986-5.671.048-5.186 4.912-7.528 11.995-7.626l1.14 2.933c-4.08.157-7.031 1.152-7.333 4.009-.254 2.403.91 3.683 3.65 3.683h3.292zm6.03 2.672h-5.476V-8.279c0-.893.261-1.694.587-2.412l5.247 1.859c-.206.619-.358 1.281-.358 1.988v4.334h3.618v-6.159h5.443V4.302h-5.443V.163h-3.618v4.139z" style="fill:#ffcd00;fill-opacity:1;fill-rule:evenodd;stroke:#2b2b2a;stroke-width:.21600001;stroke-linecap:butt;stroke-linejoin:miter;stroke-miterlimit:22.9260006;stroke-dasharray:none;stroke-opacity:1" transform="matrix(9.98005 0 0 -9.91801 108.796 145.708)"/><path d="M0 0c.385-.029.724.118 1.155.171 1.698.208 1.853-1.211.171-1.625.831-.786-.04-.97-1.155-1.069.902-.599-.325-.684-.941-1.411h.599a31.99 31.99 0 0 1-1.411-2.052c-1.304-.065-2.359.05-2.865.555l-1.368-.47c-.278-.72-1.097-1.528-2.181-2.352-.22-.167-.358-.371-.342-.641.056-.956-.156-1.91-.428-2.865l-.043-2.181c.761.194 1.544.54 2.352 1.069-.299.628-.427 1.255-.385 1.881l.343-.042a3.161 3.161 0 0 0-.343.94c.129-.042.383-.085.511-.128-.093.877.608 1.67 1.67 2.181.813-.484 1.603-.486 2.438-.428.414.029.38-.248 0-.413-.723-.314-1.428-.364-2.138-.442-.203-.022-.416-.037-.599-.128a1.689 1.689 0 0 1-.513-.428c-.103-.121-.216-.268-.214-.427a18.523 18.523 0 0 0-.684-5.302c.124-.697.362-1.332.677-1.789.798.341 1.447 1.004 2.017 1.917l-.984.898c.043.598.399.727.898.641.072.413-.028.827-.299 1.24.228.128.456.086.684-.128-.171.399-.328.798-.385 1.197l.599-.086c-.342.585-.283.855.171.899.744.071 1.394.096 2.138.171.85.084.543-.941.256-1.54l.898.129c-.114-.3-.227-.599-.342-.898l1.497.427a4.594 4.594 0 0 1 1.582-1.368l.128 1.197c.4-.385.799-.656 1.198-.812.285.427.456.855.513 1.282l1.026-1.154a2.773 2.773 0 0 1 0 1.667 8.397 8.397 0 0 1 2.908.171c-.823-1.717-.488-3.156 1.539-4.19-.468-1.284-1.708-2.219-3.121-2.993-1.736-.951-2.783-2.067-3.293-3.421h2.951c.384.841.883 1.511 1.496 2.01l.257-.685c.185.485.398.97.812 1.454.2-.057.342-.227.428-.513.769 1.54 1.881 2.68 3.335 3.421 0 .399.114.741.342 1.026-.342.329-.513.656-.513.984-.912.3-1.425.827-1.539 1.582.584-.934 1.938-1.518 3.891-1.881-.153-1.141.627-2.318.085-3.506-.825-1.812-2.779-2.21-3.079-4.405h3.25c.243.684.528 1.497.77 2.181.1-.1.157-.328.256-.428.058.941.343 1.654.856 2.138l.47-.256c-.306 1.952-.292 3.549.428 4.361-.286.371-.371.741-.428 1.112-.741.392-1.463.772-1.924 1.325-.286.345-.366.771-.342 1.155.047.743-.029 1.369-.3 1.881.613-.184 1.169-.499 1.839-.812.813-.379 1.597-.257 2.224.043l-3.378 1.411c.404.132.782.304 1.539-.256.567-.42 1.041-.329 1.497-.172-.799.542-.759 1.468-1.625 1.625-.762.138-1.454-.727-2.438-.641-.691 1.418-2.547 2.69-4.66 1.796-2.66-1.126-4.12-.065-4.747 2.266h1.069c-.629.456-.656.812-.598 1.154.356-.285.712-.514 1.069-.342l-.342.642.683.085-.341 1.24c.285-.128.57-.142.855-.042A2.809 2.809 0 0 0 7.269 0l.77.086c-.784.812-1.112 1.567-.984 2.266 1.228-.074 2.312.039 2.395 1.454-.727.043-1.356.041-1.893.164-.305.069-.618-.35-.846-.335.313.591.706 1.116 1.713 1.325 1.973.411 3.418.05 4.062-1.111 1.368-2.464 1.815-5.152 3.207-7.655.643-1.155 1.497-1.34 2.395-1.112.159.643-.484 1.084-1.24 1.497.031 1.006.037 1.417-.862 1.774.05.564-.044.895-.364 1.237-.107.115-.366.259-.399.41-.07.317-.057.57.085.77 1.502-2.418 2.817-3.526 3.977-3.55-.155.814-.332 1.169-1.087 1.497 0 .542-.267.877-.837 1.076.023.567-.011.866-.624 1.308.228.826-.242 1.357-.927 1.728-.095.746-.062 1.309-1.069 1.6-.421.122-.63.388-.716.831.072.826-.283 1.217-1 1.406-.233.062-.467.296-.695.554-.297.335-.858.399-1.383.373-.532-.026-.826.088-1.233.323-.914.529-1.806-.085-2.134-.541-.685.234-1.248.077-1.861-.538-.603-.145-1.093-.353-1.144-.893-.019-.207-.166-.566-.513-.599-.594-.057-.671-.469-.684-1.155-.499-.228-.861-.499-.983-.855-.221-.644-.538-.895-1.069-.77-1.407.332-2.252 0-2.523-.94l.94-.385-.983-.427c.142-.186.399-.371.77-.556-.072-.229-.257-.343-.556-.343-1.319-.572-.994-1.815-.599-2.437.114.756.399 1.34.855 1.753.243-.442.257-.94.043-1.496C-.143-1.91.1-1.155 0 0Z" style="fill:#2b2b2a;fill-opacity:1;fill-rule:evenodd;stroke:#2b2b2a;stroke-width:.21600001;stroke-linecap:butt;stroke-linejoin:miter;stroke-miterlimit:22.9260006;stroke-dasharray:none;stroke-opacity:1" transform="matrix(9.98005 0 0 -9.91801 969.548 81.597)"/><path d="M0 0c.344-.033.721-.165 1.113-.341.756 1.848 3.137 1.912 4.973 1.49C7.448.835 9.302-1.31 10.717-3.554c1.235-1.96 1.927-2.609 2.872-2.945.045.368-.338.703-.915 1.024.048.46-.299.79-.826 1.059-.06.718-.287 1.173-.682 1.364.042.7-.299 1.233-1.023 1.598-.099.805-.349 1.373-.862 1.598-.547.239-.648.695-.772 1.113-.163.548-.484.832-.844.987-.3.129-.51.293-.736.521-.548.554-1.326.45-2.064.377-.826.951-1.652.718-2.477-.055C1.382 3.22.975 2.902.736 2.459c-.557-.045-1.072-.167-1.167-.574-.1-.426-.19-.774-.556-.808-.676-.062-.725-.448-.683-.969.479.09.958.15 1.437 0 .012.867.282 1.221.825 1.167.325-.033.575.111.665.448.134.504.414.677.843.574.224-.053.419.11.682.324.603.49 1.154.278 1.742.053.723.286 1.236.396 1.885-.215.413-.389.713-.539 1.184-.628.458-.086.742-.622.898-.933-.485.478-.91.799-1.203.808-.347.009-.596.259-.861.502-.382.35-.765.426-1.113.287-.403-.16-.776-.114-1.131.018-.515.191-.975.164-1.185-.216-.134-.241-.315-.436-.754-.377-.355.049-.578-.01-.682-.305-.129-.364-.419-.535-.88-.52C.186 1.111.018.658 0 0Zm7.593-.341c1.311-2.124 1.697-4.784 2.909-7.073.654-1.236 1.38-1.55 1.903-1.382-.228.49-.599.909-1.113 1.256.166 1-.208 1.544-.952 1.777.117.566.02.989-.467 1.257-.335.185-.41.664-.305 1.113.203.868-.674 1.917-1.975 3.052zM2.262-24.415H.269c-.598-.415-.999-.996-1.31-1.651H.09l.592.7c-.066-.227-.132-.472-.197-.7h.933c.281.545.562 1.107.844 1.651zm8.599-.43H8.509a3.194 3.194 0 0 1-1.023-1.562h1.185l.484.682c-.03-.215-.077-.449-.107-.664.365-.006.748.006 1.112 0l.701 1.544zm-24.738 8.563 1.508.646.306-1.167-.719-.413-.215.503v-.682l-.826-.288-.054 1.401zm2.513-3.501c.114-.473.246-.939.503-1.364l.79.574-.09.682.377-.43.575.646a4.82 4.82 0 0 0-.844.88c-.564-.126-.986-.479-1.311-.988" style="fill:#ffcd00;fill-opacity:1;fill-rule:evenodd;stroke:none" transform="matrix(9.98005 0 0 -9.91801 1022.292 40.142)"/><path d="m0 0-.594-1.657h2.089V-6.05c0-1.558-.783-2.193-2.251-2.701L.36-10.336c2.633.883 3.781 2.007 3.781 4.322V0H0Zm9.201 0H6.5c-.961-1.434-1.675-2.987-1.837-4.718-.227-2.449 1.643-3.349 4.52-3.349h4.088V0h-2.647v-6.356H9.525c-1.83 0-2.698.645-2.179 2.539A11.4 11.4 0 0 0 9.201 0zM7.869 2.574h1.566V.918H7.869v1.656zm2.719 0h1.566V.918h-1.566v1.656zM14.459 0l-.666-1.711h2.827v-6.356h2.575v6.356h2.899L21.427 0h-6.968Zm7.887 0v-8.067h6.572l.738 1.693h-4.699v1.53h3.367l.558 1.711h-3.925v1.422h4.375L28.72 0h-6.374Zm7.832-8.067h2.684v5.888h-2.684v-5.888zm-.558 6.356h4.754c2.571 0 1.534-1.809-1.134-2.647 1.132-1.898 2.553-3.534 4.213-4.951l2.107 1.134c-1.197 1.111-2.273 2.221-3.133 3.331 1.422.66 2.406 1.531 2.376 2.863C38.77-.483 37.36 0 35.346 0h-5.023l-.703-1.711ZM39.758 0l-.666-1.711h5.275c.941 0 1.053-.588.253-1.026l-1.873-1.026 2.142-1.135c.907-.48.795-1.476-.396-1.476h-2.268v4.195h-2.593l.018-5.888h5.582c3.965 0 4.24 2.855 1.422 4.322C49.127-2.545 48.16 0 45.376 0h-5.618ZM53.51-8.247c3.229.206 5.064 2.613 4.892 5.636-.097 1.713-1.86 2.824-4.91 2.826-3.051-.002-4.814-1.113-4.911-2.826-.172-3.023 1.699-5.43 4.929-5.636zm.016 1.693c-1.581.121-2.317 1.621-2.329 3.345-.009 1.18.844 1.677 2.329 1.679 1.485-.002 2.338-.499 2.329-1.679-.012-1.724-.749-3.224-2.329-3.345zm14.898 4.843L67.74 0h-4.412c-3.14 0-4.694-1.118-4.592-3.313.141-3.021 2.735-4.754 5.222-4.754h3.763v5.492h-3.745v-1.657h1.081v-2.124c-1.986.093-3.44.78-3.656 2.304-.294 2.079.603 2.341 2.197 2.341h4.826z" style="fill:#ffcd00;fill-opacity:1;fill-rule:evenodd;stroke:#2b2b2a;stroke-width:.21600001;stroke-linecap:butt;stroke-linejoin:miter;stroke-miterlimit:22.9260006;stroke-dasharray:none;stroke-opacity:1" transform="matrix(9.98005 0 0 -9.91801 1247.864 116.762)"/></svg>