<svg xmlns="http://www.w3.org/2000/svg" width="290" height="100" version="1.0"><path d="M281.668 68.602V79.59c0 1.447-.156 2.634-.463 3.512-.26.876-.774 1.65-1.604 2.373-.72.67-1.7 1.394-2.94 2.064-3.459 1.86-6.813 3.2-10.012 4.078-3.2.877-6.71 1.29-10.53 1.29-4.436 0-8.41-.672-12.074-2.013-3.613-1.395-6.71-3.355-9.292-5.935-.152-.207-.308-.207-.308-.309 0 0 .051 0 0 0 .051-.051.051-.051 0 0l.051-.051.052-.052c0-.106.053-.158.103-.208.051-.052.102-.154.154-.208 0-.101.207-.359.362-.67.05-.154.103-.31.155-.412.205-.256.362-.673.464-.98.104-.155.154-.363.205-.516l.054-.103v-.053l.052-.05c0-.053.051-.103.051-.156v-.103c.052-.05.052-.104.052-.104 0-.051.05-.051.05-.103v-.053c.051-.05.051-.101.051-.101v-.104l.054-.05v-.156c.05-.053.05-.053.05-.104v-.103c.053 0 .053-.052.053-.052v-.103l.05-.154V79.8l.053-.105v-.05l.05-.103v-.156l.053-.05v-.156l.05-.105V78.87c.051 0 .051 0 0 0 .051-.052.051-.052 0-.052.051 0 .051 0 0 0l.051-.05v-.157c.053-.103.053-.154.053-.256 0-.157.051-.26.051-.312 0-.208.053-.36.053-.516v-.206c.052-.26.052-.464.052-.618.052-.208.052-.363 0-.517.052-.104.052-.206 0-.258.052-.052.052-.104 0-.156 0-.411.052-.825 0-1.34-.105-.724-.156-1.447-.31-2.065-.103-.723-.31-1.239-.516-1.806-.311-.98-.672-1.703-1.084-2.323a8.9 8.9 0 0 0-.828-1.186l-.153-.156-.052-.102-.052-.052-.102-.103-.05-.054-.053-.103-.052-.051-.05-.05-.055-.054-.05-.049-.052-.053-.051-.052-.051-.052-.052-.05-.053-.052-.051-.05-.052-.106-.102-.052-.05-.103-.157-.102-.103-.102-.052-.054-.052-.05-.05-.053-.05-.05-.107-.052-.051-.103-.102-.052-.052-.052-.105-.05-.05-.106-.053-.05-.102-.052-.05-.05-.053-.054-.102-.051-.053-.052-.051-.05h-.051l-.104-.104-.052-.052h-.053l-.102-.051-.052-.052-.052-.05-.102-.053-.05-.052-.052-.052-.054-.052h-.052l-.049-.05-.053-.053h-.05l-.105-.053-.104-.051v-.05h-.051l-.052-.053h-.05v-.05H230.266v-.052h-.053l-.053-.052-.05-.051h-.05l-.053-.05h-.051l-.052-.054h-.051l-.052-.052-.158-.1-.204-.107-.103-.05h-.05l-.054-.054-.102-.049h-.052l-.05-.052-.107-.052-.1-.051-.104-.05-.104-.053h-.052l-.05-.05h-.052l-.103-.053-.052-.053h-.104l-.206-.102-.052-.052h-.103l-.052-.051h-.05l-.259-.155-.412-.155s-.105-.05-.157-.05c-.051 0-.102-.054-.102 0 0-.414.05-.83.05-1.189 0-.052 0-.052 0 0l.052-.052h.052c.052-.051.105-.051.105-.102.102-.052.207-.104.256-.157h.053c.98-.773 2.373-1.393 3.25-2.476l1.292-1.548c.62-.774 1.084-1.755 1.392-2.58l.053-.207.052-.052v-.05l.05-.052v-.05l.052-.157v-.052c.052-.051.052-.104.052-.156.05-.05.05-.1.05-.1.054-.105.054-.105.054-.157l.103-.363c0-.05.053-.102.053-.154 0-.05.05-.155.05-.205v-.103l.052-.208c0-.05.05-.102.05-.155v-.204l.052-.054v-.257l.052-.206.052-.207v-.361l.05-.205v-.415l.051-.154V47.646l-.05-.052V47.128l-.05-.102v-.206l-.053-.206V46.41l-.052-.106v-.154l-.052-.156v-.154l-.05-.204v-.105l-.052-.207-.05-.208-.053-.05v-.154l-.052-.05v-.157l-.05-.05v-.105l-.055-.104v-.051l-.05-.052v-.103l-.052-.05V44.088c0-.054 0-.054-.051-.106l-.207-.517c0-.102-.052-.152-.052-.205 0-.052 0-.052-.05-.052v-.051c.516-.568.98-1.135 1.496-1.651 2.632-2.633 5.78-4.595 9.445-5.936 3.768-1.393 7.947-2.116 12.644-2.064 3.87-.052 7.329.517 10.267 1.547 2.996.982 5.423 2.322 7.281 3.87 1.858 1.549 3.249 3.202 4.18 5.009.98 1.704 1.445 3.303 1.393 4.643.052 1.448-.516 2.685-1.6 3.767-1.085 1.033-2.373 1.498-3.922 1.55-.825-.052-1.6-.207-2.373-.62-.775-.413-1.446-.93-1.963-1.653-1.446-2.216-2.632-3.92-3.665-5.055-.98-1.188-2.323-2.17-4.025-2.892-1.652-.826-3.82-1.24-6.451-1.188-2.63-.051-5.06.467-7.174 1.396-2.115.877-3.922 2.27-5.47 4.024-1.444 1.755-2.632 3.922-3.457 6.503-.776 2.53-1.137 5.369-1.188 8.464.05 6.76 1.6 11.923 4.646 15.587 3.147 3.613 7.431 5.419 12.952 5.47 2.735-.051 5.265-.362 7.589-1.083 2.425-.724 4.797-1.705 7.223-2.996v-9.34h-9.031c-2.166 0-3.82-.361-4.902-.979-1.135-.671-1.653-1.807-1.653-3.356 0-1.29.465-2.324 1.343-3.15.98-.875 2.217-1.288 3.82-1.288h13.21c1.603 0 2.994.156 4.131.465 1.134.258 2.012.927 2.683 1.909.722.981 1.084 2.476 1.084 4.493" style="fill:#329938;fill-opacity:1;fill-rule:evenodd;stroke:none"/><path d="M1559.197 133.967v-15.33c0-2.02-.218-3.675-.646-4.9-.364-1.222-1.08-2.303-2.237-3.31-1.005-.937-2.372-1.945-4.101-2.88-4.826-2.594-9.506-4.464-13.969-5.69-4.465-1.223-9.36-1.798-14.69-1.798-6.189 0-11.732.936-16.845 2.808-5.04 1.945-9.36 4.68-12.962 8.279-.213.288-.43.288-.43.43.071.073.071.073 0 0l.071.073.073.072c0 .148.073.22.144.29.07.072.142.215.214.29 0 .141.289.5.505.935.07.215.145.432.217.575.285.357.504.938.647 1.367.144.216.215.506.285.72l.076.144v.074l.072.07c0 .072.072.143.072.216v.145c.072.07.072.144.072.144s.07.072.07.144v.074c.071.069.071.14.071.14v.147l.075.07v.217c.071.073.071.073.071.144v.144l.074.072v.145l.07.214v.145l.072.145v.07l.07.143V118.923l.075.07V119.21l.07.148v.285c.07.072.07.072 0 .072l.07.07V120.005c.074.142.074.214.074.357 0 .218.072.362.072.434 0 .29.074.504.074.721v.287c.072.363.072.648.072.862.072.29.072.507 0 .722.072.144.072.287 0 .359.072.073.072.146 0 .218 0 .573.072 1.15 0 1.87-.146 1.01-.218 2.018-.432 2.88-.145 1.01-.432 1.729-.72 2.519-.434 1.369-.938 2.377-1.513 3.242-.433.72-.792 1.225-1.154 1.654l-.215.218-.072.143-.072.072-.142.144-.071.074-.074.144-.072.072-.07.07-.076.074-.07.07-.072.073-.073.072-.07.072-.072.07-.074.073-.072.07-.072.148-.143.072-.07.144-.218.143-.144.142-.073.074-.072.072-.07.073-.07.068-.148.074-.072.144-.143.072-.072.072-.146.071-.07.147-.074.071-.143.072-.07.07-.072.074-.143.073-.074.072-.072.07h-.07l-.146.145-.072.072h-.074l-.143.071-.072.073-.072.07-.142.074-.071.072-.072.072-.075.072h-.073l-.068.07-.074.075h-.07l-.147.073-.144.073v.068h-.072l-.072.074h-.069v.07H1487.485v.073h-.073l-.074.072-.07.072h-.07l-.074.07h-.07l-.073.074h-.072l-.072.072-.22.141-.285.15-.144.07h-.07l-.075.074-.142.069h-.072l-.07.072-.15.072-.141.072-.144.07-.144.074h-.073l-.07.07h-.072l-.144.073-.072.073h-.146l-.287.143-.072.072h-.145l-.072.072h-.07l-.36.217-.576.216s-.146.069-.218.069h-.143c0 .578.07 1.157.07 1.659l.073.072h.072c.072.072.146.072.146.142.142.072.288.146.357.22h.074c1.369 1.079 3.311 1.942 4.535 3.454l1.802 2.16c.864 1.08 1.511 2.449 1.942 3.6l.074.288.072.072v.07l.07.073v.07l.073.218v.074c.072.07.072.144.072.216.07.07.07.141.07.141.076.146.076.146.076.218l.142.507s.074.142.074.214c0 .07.07.217.07.287v.143l.073.29c0 .07.07.142.07.216v.286l.072.075v.357l.072.289.074.288v.504l.07.286v.579l.071.214v2.736l-.07.072v.651l-.07.143v.286l-.075.287v.287l-.072.148v.215l-.072.217v.215l-.07.285v.146l-.072.289-.071.29-.074.07v.215l-.072.07V167.306l-.07.071v.146l-.076.144v.072l-.07.072v.145l-.072.069V168.167c0 .075 0 .075-.073.147l-.288.72c0 .144-.072.288-.072.288 0 .072-.07.072-.07.072v.072c.72.792 1.368 1.583 2.088 2.303 3.671 3.673 8.064 6.41 13.176 8.28 5.257 1.945 11.087 2.953 17.639 2.88 5.4.073 10.225-.72 14.324-2.158 4.18-1.37 7.565-3.239 10.158-5.4 2.591-2.16 4.532-4.466 5.83-6.987 1.369-2.376 2.016-4.607 1.944-6.478.072-2.02-.72-3.745-2.233-5.255-1.512-1.44-3.309-2.09-5.47-2.161-1.152.071-2.232.288-3.312.865-1.08.575-2.016 1.296-2.737 2.304-2.018 3.093-3.672 5.47-5.114 7.054-1.365 1.657-3.24 3.025-5.614 4.033-2.305 1.153-5.329 1.73-9 1.657-3.67.073-7.059-.65-10.009-1.947-2.95-1.222-5.471-3.166-7.63-5.614-2.016-2.447-3.673-5.471-4.824-9.07-1.082-3.53-1.586-7.491-1.657-11.81.07-9.432 2.23-16.632 6.481-21.745 4.391-5.04 10.368-7.56 18.07-7.632 3.815.073 7.344.506 10.587 1.512 3.383 1.01 6.692 2.378 10.077 4.18v13.029h-12.6c-3.02 0-5.329.505-6.838 1.367-1.584.936-2.307 2.52-2.307 4.681 0 1.801.65 3.242 1.874 4.395 1.367 1.22 3.093 1.796 5.329 1.796h18.43c2.236 0 4.176-.216 5.763-.647 1.582-.361 2.806-1.294 3.744-2.664 1.006-1.369 1.51-3.455 1.51-6.268z" style="fill:#329938;fill-opacity:1;fill-rule:evenodd;stroke:#2ea941;stroke-width:.21600001;stroke-linecap:butt;stroke-linejoin:round;stroke-miterlimit:22.92558479;stroke-dasharray:none;stroke-opacity:1" transform="matrix(.7168 0 0 -.7168 -835.964 164.63)"/><path d="M207.762 92.443h-17.856c-2.582 0-4.44-.62-5.522-1.704-.362-.465-.62-.72-1.083-1.857-.105-.257.41-.31.619-.465l.72-.62.311-.309.928-.98.671-.775.878-1.343 1.083-2.115.622-1.599.41-1.651.208-1.342.052-1.396v-1.598l-.207-1.65-.258-1.343-.466-1.446-.464-1.031-.567-1.033-.722-1.033-.62-.773-.669-.774-.932-.724-1.135-.825-1.031-.67V58.69l.516-.516.672-.671.514-.671.517-.67.567-.984.361-.72.414-.928.207-.672.257-1.135.206-1.393.104-1.549v-1.083l-.104-.93-.206-.98-.31-1.394-.207-.62-.257-.618-.465-.93-.515-.98c0-.05 0-.154-.155-.258 0-.053-.052-.053-.052-.053v-.05h-.052v-.052c-.104-.155-.258-.31-.31-.362a1.45 1.45 0 0 0-.258-.412l-.567-.618a.537.537 0 0 0-.26-.313.401.401 0 0 0-.204-.206 151.69 151.69 0 0 1-.206-.204c.362-1.291.773-2.324 1.495-3.047 1.137-1.135 2.945-1.7 5.472-1.7h18.94c2.84 0 5.213.154 7.277.514 2.063.31 3.87.98 5.523 1.96 1.393.828 2.579 1.91 3.663 3.15 1.085 1.238 1.858 2.683 2.427 4.18.567 1.548.824 3.149.824 4.852 0 5.882-2.889 10.167-8.774 12.85 7.691 2.425 11.561 7.226 11.51 14.295.051 3.253-.826 6.196-2.477 8.828-1.704 2.629-3.923 4.54-6.813 5.83-1.756.722-3.82 1.24-6.14 1.55-2.274.307-5.008.463-8.104.463zm-.876-25.96H194.55v17.082h12.747c8 0 12.027-2.889 12.027-8.668 0-2.943-1.034-5.111-3.15-6.402-2.065-1.342-5.16-2.013-9.288-2.013zM194.55 42.844v15.123h10.89c2.941 0 5.211-.26 6.813-.825 1.652-.568 2.84-1.653 3.715-3.2.67-1.136.98-2.375.98-3.767 0-2.942-1.032-4.904-3.148-5.885-2.064-.98-5.314-1.446-9.6-1.446h-9.65z" style="fill:#329938;fill-opacity:1;fill-rule:evenodd;stroke:none"/><path d="M1456.092 100.707h-24.911c-3.603 0-6.194.865-7.704 2.376-.505.65-.866 1.006-1.511 2.591-.146.36.573.433.864.65l1.004.863.435.431 1.295 1.369.935 1.08 1.225 1.874 1.511 2.95.867 2.23.572 2.306.29 1.871.073 1.948v2.229l-.289 2.303-.359 1.873-.65 2.017-.648 1.439-.79 1.44-1.008 1.441-.864 1.079-.934 1.08-1.3 1.01-1.584 1.15-1.438.936v6.552l.719.72.938.937.717.936.722.934.79 1.372.505 1.005.577 1.295.288.937.359 1.583.287 1.944.146 2.16v1.512l-.146 1.298-.287 1.367-.433 1.944-.288.864-.36.864-.648 1.297-.718 1.367c0 .07 0 .214-.216.36l-.073.074v.069h-.072v.074c-.146.216-.36.43-.433.504-.07.213-.288.502-.36.576l-.79.862a.754.754 0 0 1-.362.436.561.561 0 0 1-.286.287l-.288.285c.505 1.801 1.078 3.242 2.086 4.25 1.586 1.583 4.108 2.373 7.634 2.373h26.422c3.962 0 7.273-.216 10.153-.717a20.988 20.988 0 0 0 7.705-2.736c1.943-1.154 3.598-2.664 5.111-4.393 1.513-1.727 2.591-3.744 3.385-5.832.792-2.16 1.15-4.393 1.15-6.77 0-8.205-4.03-14.183-12.24-17.926 10.73-3.383 16.128-10.08 16.056-19.943.072-4.537-1.152-8.644-3.455-12.315-2.377-3.668-5.473-6.333-9.505-8.133-2.449-1.008-5.329-1.73-8.564-2.162-3.174-.43-6.988-.647-11.307-.647zm-1.223 36.217h-17.209v-23.832h17.783c11.16 0 16.78 4.03 16.78 12.093 0 4.106-1.445 7.13-4.395 8.931-2.881 1.872-7.199 2.808-12.959 2.808zM1437.66 169.9v-21.097h15.191c4.105 0 7.272.362 9.506 1.15 2.304.792 3.962 2.307 5.182 4.465.936 1.584 1.368 3.313 1.368 5.255 0 4.105-1.44 6.842-4.392 8.21-2.88 1.366-7.413 2.017-13.393 2.017h-13.462zM1184.436 129.507h126.932v-4.537h-126.932v4.537zM1220.726 165.795h126.932v-4.533h-126.932v4.533zM1202.58 147.65h126.937v-4.535h-126.938v4.535z" style="fill:#329938;fill-opacity:1;fill-rule:evenodd;stroke:#2ea941;stroke-width:.21600001;stroke-linecap:butt;stroke-linejoin:round;stroke-miterlimit:22.92558479;stroke-dasharray:none;stroke-opacity:1" transform="matrix(.7168 0 0 -.7168 -835.964 164.63)"/><path d="M1390.426 100.707h-24.983c-3.528 0-6.117.794-7.702 2.376-1.513 1.657-2.303 4.249-2.303 7.705v61.343c0 3.671.79 6.19 2.373 7.777 1.585 1.583 4.178 2.373 7.632 2.373h26.427c3.959 0 7.343-.216 10.151-.717 2.88-.433 5.47-1.369 7.704-2.736 1.944-1.154 3.6-2.664 5.11-4.393 1.512-1.727 2.592-3.744 3.385-5.832.794-2.16 1.223-4.393 1.151-6.77.072-8.205-4.03-14.183-12.24-17.926 10.73-3.383 16.128-10.08 16.128-19.943 0-4.537-1.224-8.644-3.526-12.315-2.306-3.668-5.473-6.333-9.507-8.133-2.447-1.008-5.325-1.73-8.565-2.162-3.167-.43-6.986-.647-11.235-.647zm-1.295 36.217h-17.138v-23.832h17.715c11.231 0 16.775 4.03 16.775 12.093 0 4.106-1.44 7.13-4.318 8.931-2.881 1.872-7.2 2.808-13.034 2.808zm-17.138 32.976v-21.097h15.124c4.102 0 7.344.362 9.502 1.15 2.306.792 4.035 2.307 5.184 4.465.936 1.584 1.369 3.313 1.369 5.255 0 4.105-1.438 6.842-4.393 8.21-2.88 1.366-7.343 2.017-13.39 2.017h-13.396z" style="fill:#329938;fill-opacity:1;fill-rule:evenodd;stroke:#2ea941;stroke-width:.21600001;stroke-linecap:butt;stroke-linejoin:round;stroke-miterlimit:22.92558479;stroke-dasharray:none;stroke-opacity:1" transform="matrix(.7168 0 0 -.7168 -835.964 164.63)"/><path d="M14.124 21.582h-4.8c-.673 0-1.188-.154-1.498-.464-.256-.31-.412-.826-.412-1.496V7.907c0-.723.156-1.185.412-1.498.36-.31.825-.462 1.497-.462h5.058c.774 0 1.395.05 1.96.153a3.462 3.462 0 0 1 1.446.516c.414.207.723.515.981.825.309.361.516.722.672 1.137.154.411.206.825.206 1.29 0 1.547-.775 2.685-2.324 3.459 2.065.617 3.098 1.908 3.047 3.816.05.827-.206 1.652-.671 2.324-.414.722-1.033 1.238-1.808 1.6-.462.155-.98.31-1.65.413-.568.053-1.292.102-2.116.102zm-.257-6.913h-3.305v4.542h3.405c2.17 0 3.201-.775 3.201-2.324 0-.774-.257-1.342-.826-1.704-.516-.362-1.34-.566-2.475-.514zm-3.305-6.35v4.077h2.891c.824-.051 1.445-.103 1.857-.256.413-.156.776-.417.98-.827.207-.309.26-.672.26-1.033 0-.774-.26-1.343-.827-1.548-.568-.31-1.446-.413-2.58-.413h-2.58zm19.716 11.87c-.671.57-1.342.981-2.013 1.239a6.072 6.072 0 0 1-2.22.413 4.572 4.572 0 0 1-1.961-.413c-.567-.31-1.032-.723-1.341-1.239a4.342 4.342 0 0 1-.465-1.6c.05-.826.258-1.498.774-2.063.517-.569 1.185-.93 2.064-1.136.206-.051.67-.155 1.394-.26.721-.204 1.393-.309 1.858-.412.568-.153 1.135-.31 1.7-.465 0-.773-.153-1.34-.461-1.7-.259-.363-.827-.569-1.704-.519-.722-.05-1.24.053-1.65.31-.364.154-.671.465-.983.929-.204.36-.411.67-.515.774-.104.155-.363.206-.723.206-.31 0-.62-.101-.877-.31-.206-.205-.309-.463-.36-.772.051-.568.205-1.03.565-1.498.363-.515.931-.929 1.706-1.187.774-.36 1.701-.516 2.837-.516 1.289 0 2.322.155 3.045.464.724.31 1.239.776 1.548 1.448.31.616.465 1.495.465 2.577v1.757c0 .464 0 .982-.05 1.598.05.517.1 1.084.307 1.705.155.567.26.98.26 1.135 0 .31-.156.568-.416.826-.256.258-.616.361-.98.361-.256 0-.566-.155-.876-.413a19.31 19.31 0 0 1-.928-1.239zm-.21-4.18c-.41.155-1.029.31-1.855.464-.774.207-1.343.31-1.653.414-.308.05-.62.204-.928.464-.259.205-.413.568-.413.98 0 .464.154.827.516 1.136.31.309.775.465 1.29.465.57 0 1.138-.106 1.6-.363.518-.256.878-.619 1.084-.98.257-.464.415-1.186.36-2.166v-.414zm8.726 1.652v2.425c0 .568-.105 1.032-.415 1.342-.256.258-.618.413-1.083.413-.361 0-.723-.155-1.032-.413-.257-.362-.362-.774-.362-1.342v-8.102c0-1.343.464-1.96 1.394-1.96.516 0 .827.153 1.033.462.256.258.36.724.36 1.343.363-.62.721-1.085 1.084-1.343.36-.31.878-.463 1.444-.463.62 0 1.239.154 1.808.463.567.258.876.672.825 1.187a.944.944 0 0 1-.36.88.937.937 0 0 1-.776.36c-.102 0-.36-.104-.774-.208a3.101 3.101 0 0 0-1.082-.207c-.414 0-.776.105-1.034.364-.255.205-.465.515-.62.98-.152.41-.257.98-.307 1.6-.052.567-.103 1.34-.103 2.22zm9.34-6.039v.362c.514-.724 1.083-1.188 1.652-1.498.62-.31 1.342-.463 2.116-.463.772 0 1.444.154 2.063.516a3.172 3.172 0 0 1 1.342 1.393c.208.36.311.723.362 1.135.05.413.103.93.103 1.602v5.417c0 .568-.154.98-.414 1.342-.257.258-.619.413-1.03.413-.413 0-.774-.155-1.084-.465-.259-.31-.362-.722-.411-1.29v-4.851c.049-.982-.108-1.704-.364-2.218-.258-.519-.827-.775-1.6-.775-.516 0-.982.154-1.446.463-.412.312-.722.723-.926 1.292-.105.41-.21 1.238-.21 2.426v3.663c0 .568-.1 1.032-.412 1.342a1.434 1.434 0 0 1-1.03.413c-.416 0-.775-.155-1.085-.465-.207-.31-.361-.722-.361-1.29v-8.413c0-.567.102-.98.361-1.239.257-.309.567-.41.98-.41.258 0 .516.05.671.153.259.103.413.309.516.567.155.205.207.516.207.878zm13.418.05v8.414c.05.568-.103.98-.413 1.342-.256.258-.62.413-1.032.413-.412 0-.774-.155-1.031-.465-.26-.31-.414-.722-.414-1.29v-8.309c0-.62.154-1.033.414-1.343.257-.309.62-.41 1.031-.41.413 0 .776.101 1.032.41.31.31.464.724.413 1.239zm-1.445-2.99c-.361-.054-.722-.156-1.031-.414a1.436 1.436 0 0 1-.414-1.032c0-.413.154-.775.414-1.034.309-.255.67-.412 1.031-.412.413 0 .723.157 1.032.412.31.207.464.57.413 1.034a1.12 1.12 0 0 1-.413 1.032c-.256.258-.62.36-1.032.413zm14.142 7.482v3.87c0 .568-.104 1.032-.414 1.342-.257.31-.62.465-1.084.465-.462 0-.775-.155-1.084-.465-.257-.31-.413-.774-.413-1.341V15.39c0-.773 0-1.343-.052-1.704a2.062 2.062 0 0 0-.412-1.031c-.205-.259-.568-.362-1.032-.362-.98 0-1.6.31-1.91.98-.308.621-.465 1.548-.465 2.788v3.974c0 .567-.102 1.031-.41 1.341-.26.31-.621.465-1.088.465-.41 0-.774-.155-1.083-.465-.257-.31-.41-.774-.41-1.341v-8.362c0-.567.153-.98.41-1.239.259-.309.569-.41.981-.41.415 0 .724.101.983.41.31.26.412.62.412 1.085v.258c.515-.62 1.032-1.033 1.6-1.291a4.225 4.225 0 0 1 1.961-.463c.722 0 1.34.154 1.859.463.567.258.98.724 1.289 1.291.516-.567 1.034-1.033 1.6-1.291a3.822 3.822 0 0 1 1.857-.463c.827 0 1.498.154 2.065.463.567.31 1.032.774 1.289 1.343.26.516.361 1.342.361 2.527v5.679c0 .567-.101 1.031-.412 1.341-.257.31-.618.465-1.082.465-.415 0-.775-.155-1.083-.465-.26-.31-.416-.774-.416-1.341V15.13c0-.67-.05-1.133-.102-1.497-.052-.41-.154-.72-.413-.978-.26-.259-.567-.362-1.083-.362-.362 0-.724.103-1.084.31-.31.259-.622.568-.826.928-.206.466-.31 1.343-.31 2.633zm17.754.466h-5.677c0 .67.153 1.237.41 1.754a2.787 2.787 0 0 0 2.428 1.548c.36 0 .72-.051.98-.156.31-.052.568-.207.827-.36.308-.205.515-.362.775-.568.205-.207.514-.464.876-.827.154-.102.36-.207.62-.154a.815.815 0 0 1 .722.208c.205.154.309.411.309.72 0 .259-.104.569-.31.93-.206.31-.517.67-.98.98-.361.31-.879.618-1.55.828-.62.205-1.34.308-2.168.308-1.855 0-3.303-.518-4.334-1.601-1.032-1.082-1.55-2.528-1.599-4.334.05-.88.154-1.653.41-2.375.26-.774.621-1.39 1.087-1.909a4.997 4.997 0 0 1 1.856-1.188 5.942 5.942 0 0 1 2.376-.464c1.136 0 2.116.26 2.942.724a4.455 4.455 0 0 1 1.804 1.859c.414.774.62 1.547.62 2.321 0 .722-.206 1.239-.62 1.446-.412.206-1.031.31-1.804.31zm-5.677-1.654h5.262c-.052-.98-.309-1.754-.776-2.219-.462-.515-1.081-.773-1.855-.723-.722-.05-1.29.208-1.807.723-.413.516-.722 1.24-.824 2.22zm13.417 2.685v2.425c.053.568-.103 1.032-.413 1.342-.257.258-.62.413-1.031.413a1.44 1.44 0 0 1-1.033-.413c-.258-.362-.413-.774-.413-1.342v-8.102c0-1.343.465-1.96 1.395-1.96.514 0 .877.153 1.082.462.207.258.31.724.363 1.343.308-.62.67-1.085 1.03-1.343.415-.31.879-.463 1.498-.463.618 0 1.187.154 1.753.463.62.258.879.672.879 1.187 0 .361-.105.672-.362.88-.256.256-.517.36-.825.36-.052 0-.309-.104-.773-.208a2.746 2.746 0 0 0-1.084-.207c-.415 0-.723.105-1.033.364-.26.205-.464.515-.62.98-.155.41-.258.98-.309 1.6-.05.567-.05 1.34-.104 2.22zm19.043 3.92h-4.8c-.67 0-1.134-.153-1.444-.463-.31-.31-.465-.826-.465-1.496V7.907c0-.723.155-1.185.465-1.498.31-.31.774-.462 1.445-.462h5.059c.774 0 1.446.05 1.96.153.568.052 1.033.257 1.446.516.412.207.722.515.978.825.312.361.519.722.673 1.137.156.411.258.825.208 1.29.05 1.547-.775 2.685-2.323 3.459 2.063.617 3.096 1.908 3.096 3.816 0 .827-.26 1.652-.671 2.324-.464.722-1.085 1.238-1.859 1.6-.464.155-.98.31-1.598.413-.62.053-1.343.102-2.17.102zm-.257-6.912h-3.304v4.542h3.407c2.168 0 3.252-.775 3.2-2.324.052-.774-.258-1.342-.825-1.704-.515-.362-1.34-.566-2.478-.514zm-3.304-6.35v4.077h2.943c.775-.051 1.393-.103 1.806-.256.465-.156.773-.417.982-.827.206-.309.257-.672.257-1.033 0-.774-.257-1.343-.825-1.548-.568-.31-1.395-.413-2.58-.413h-2.583zm19.923 11.87v-.363c-.31.414-.67.828-1.084 1.138-.36.258-.775.464-1.24.67-.464.104-.979.207-1.6.207a3.812 3.812 0 0 1-1.856-.465c-.57-.31-.982-.67-1.29-1.187-.362-.62-.57-1.496-.57-2.684v-5.728c0-.62.156-1.033.413-1.343.259-.309.62-.41 1.034-.41.463 0 .826.101 1.082.41.26.31.413.724.413 1.343v4.646c0 .668.051 1.238.156 1.702.103.414.31.773.618 1.086.31.204.672.358 1.189.358s.98-.154 1.392-.411c.415-.31.774-.722.93-1.137.207-.465.258-1.34.258-2.734v-3.51c0-.62.155-1.033.413-1.343.258-.309.618-.41 1.032-.41.465 0 .826.101 1.083.41.26.31.36.724.36 1.343v8.412c0 .516-.1.929-.36 1.239a1.318 1.318 0 0 1-.98.413c-.413 0-.724-.155-.982-.413-.256-.31-.41-.723-.41-1.239zm15.018-2.168c0 .827-.207 1.498-.568 2.065-.413.568-.98 1.032-1.754 1.342-.774.258-1.702.413-2.787.413-1.032 0-1.91-.155-2.683-.465-.724-.362-1.29-.722-1.652-1.187-.362-.517-.519-.978-.519-1.445 0-.36.106-.619.312-.825.258-.258.516-.363.878-.363.31 0 .566.053.72.207.159.156.311.362.466.673.308.462.671.877 1.033 1.133.464.257 1.032.363 1.701.416.62-.053 1.085-.159 1.447-.416.412-.256.567-.566.567-.876 0-.516-.155-.93-.567-1.137-.413-.255-1.032-.465-1.91-.669a20.654 20.654 0 0 1-2.476-.774 5.568 5.568 0 0 1-1.5-1.086 2.662 2.662 0 0 1-.565-1.65c0-.62.206-1.135.516-1.654.36-.513.878-.927 1.549-1.237.67-.31 1.495-.463 2.476-.463.723 0 1.445.05 2.012.207.618.152 1.135.362 1.498.668.411.208.721.517.93.879.203.31.308.62.308.928 0 .312-.105.568-.309.826-.26.207-.568.312-.982.312-.31 0-.515-.105-.773-.261-.207-.205-.412-.463-.723-.773a1.901 1.901 0 0 0-.774-.669c-.257-.208-.67-.258-1.187-.258-.515 0-.98.102-1.343.308-.309.206-.514.515-.514.877 0 .26.155.515.411.723.258.207.569.362 1.033.463.413.155 1.031.312 1.754.518.93.205 1.653.464 2.22.774.57.256 1.033.671 1.29 1.085.31.41.465.875.465 1.39zm13.16-5.88v8.461c0 .98-.104 1.806-.309 2.478-.207.721-.516 1.29-.981 1.755a4.318 4.318 0 0 1-1.807.98c-.722.26-1.598.362-2.734.362-.98 0-1.858-.157-2.684-.414-.774-.309-1.394-.672-1.806-1.083-.414-.465-.62-.93-.67-1.394.05-.363.154-.67.358-.878.26-.206.57-.31.879-.31.465 0 .826.155 1.136.57.154.154.309.359.464.566.204.155.362.362.569.517.205.103.463.206.721.31.31.05.62.05.98.1.774-.05 1.342-.153 1.756-.307.465-.258.722-.517.877-.93.208-.36.31-.773.31-1.186.05-.464.05-1.136.05-2.066a4.549 4.549 0 0 1-1.548 1.446c-.566.31-1.289.464-2.116.464a4.696 4.696 0 0 1-2.529-.722c-.72-.517-1.288-1.238-1.702-2.116a8.478 8.478 0 0 1-.566-3.095c0-.878.152-1.705.36-2.376.257-.72.568-1.289 1.03-1.754.416-.515.931-.878 1.498-1.137.62-.257 1.24-.359 1.91-.359.826 0 1.549.154 2.167.463.568.31 1.136.827 1.652 1.498v-.362c0-.516.152-.928.363-1.188.254-.309.617-.41.98-.41.567 0 .928.153 1.133.515.208.36.259.93.259 1.601zm-8.413 3.714c0 1.134.26 2.064.775 2.684a2.588 2.588 0 0 0 1.962.876c.514 0 .981-.154 1.395-.361.462-.31.773-.67 1.03-1.187.31-.566.412-1.187.412-1.91 0-1.186-.258-2.114-.774-2.786-.514-.673-1.187-.981-2.063-.981-.826 0-1.5.308-2.013.929-.465.62-.724 1.55-.724 2.736zm18.942.775h-5.678c0 .67.156 1.237.362 1.754.31.514.62.877 1.083 1.135.412.257.877.413 1.396.413.357 0 .67-.051.979-.156.257-.052.568-.207.824-.36.26-.205.517-.362.724-.568a6.17 6.17 0 0 0 .877-.827c.208-.102.412-.207.673-.154a.807.807 0 0 1 .72.208c.206.154.31.411.26.72.05.259-.105.569-.31.93-.155.31-.464.67-.931.98-.412.31-.928.618-1.547.828-.62.205-1.342.308-2.168.308-1.857 0-3.304-.518-4.387-1.601-1.03-1.082-1.548-2.528-1.548-4.334 0-.88.156-1.653.414-2.375a5.269 5.269 0 0 1 1.082-1.909 5.267 5.267 0 0 1 1.807-1.188 6.357 6.357 0 0 1 2.425-.464c1.135 0 2.116.26 2.89.724.828.464 1.445 1.083 1.86 1.859.413.774.618 1.547.618 2.321 0 .722-.205 1.239-.67 1.446-.363.206-.98.31-1.755.31zm-5.678-1.654h5.265c-.05-.98-.31-1.754-.825-2.219-.415-.515-1.034-.773-1.808-.723a2.146 2.146 0 0 0-1.805.723c-.465.516-.723 1.24-.827 2.22zm19.92 3.045c0 .827-.204 1.498-.617 2.065-.36.568-.93 1.032-1.704 1.342-.773.258-1.701.413-2.785.413-1.033 0-1.963-.155-2.684-.465-.776-.362-1.291-.722-1.652-1.187-.362-.517-.517-.978-.567-1.445.05-.36.152-.619.36-.825.259-.258.517-.363.875-.363.313 0 .519.053.674.207.205.156.362.362.465.673.31.462.668.877 1.082 1.133.414.257.982.363 1.704.416.619-.053 1.084-.159 1.446-.416.362-.256.566-.566.566-.876 0-.516-.204-.93-.62-1.137-.358-.255-.98-.465-1.908-.669-.98-.257-1.807-.517-2.425-.774-.62-.312-1.137-.67-1.498-1.086a2.658 2.658 0 0 1-.569-1.65c0-.62.156-1.135.517-1.654.36-.513.88-.927 1.55-1.237.67-.31 1.494-.463 2.425-.463.774 0 1.444.05 2.064.207.617.152 1.083.362 1.497.668.413.208.723.517.928.879.207.31.31.62.31.928 0 .312-.103.568-.363.826-.205.207-.514.312-.928.312-.309 0-.566-.105-.774-.261a11.035 11.035 0 0 1-.722-.773 1.893 1.893 0 0 0-.774-.669c-.31-.208-.67-.258-1.238-.258-.517 0-.93.102-1.291.308a.958.958 0 0 0-.516.877.9.9 0 0 0 .362.723c.257.207.618.362 1.031.463a31.19 31.19 0 0 0 1.806.518c.932.205 1.652.464 2.22.774.567.256 1.035.671 1.29 1.085.308.41.464.875.464 1.39zm10.58-1.391h-5.726c.05.67.154 1.237.411 1.754.313.514.622.877 1.033 1.135.464.257.93.413 1.444.413.363 0 .674-.051.93-.156.31-.052.619-.207.879-.36.256-.205.514-.362.721-.568.257-.207.517-.464.878-.827a.869.869 0 0 1 .67-.154c.31-.053.517.052.724.208.154.154.255.411.255.72 0 .259-.1.569-.308.93-.206.31-.516.67-.928.98-.413.31-.93.618-1.548.828-.62.205-1.342.308-2.168.308-1.859 0-3.356-.518-4.388-1.601-1.031-1.082-1.548-2.528-1.548-4.334 0-.88.155-1.653.363-2.375.256-.774.67-1.39 1.133-1.909.517-.516 1.084-.928 1.807-1.188a6.104 6.104 0 0 1 2.374-.464c1.187 0 2.167.26 2.941.724.826.464 1.446 1.083 1.859 1.859.411.774.62 1.547.568 2.321.052.722-.206 1.239-.619 1.446-.413.206-.982.31-1.756.31zm-5.726-1.654h5.316c-.053-.98-.363-1.754-.826-2.219-.464-.515-1.032-.773-1.806-.723a2.147 2.147 0 0 0-1.807.723c-.466.516-.723 1.24-.877 2.22zm10.58 5.11V7.441c0-.567.153-1.032.361-1.29.308-.31.62-.463 1.082-.463.465 0 .775.154 1.033.464.31.257.413.722.413 1.289v12.645c0 .568-.103 1.032-.413 1.342a1.439 1.439 0 0 1-1.033.413c-.41 0-.774-.155-1.031-.465-.26-.31-.413-.722-.413-1.29zm5.882 0V7.441c.051-.567.156-1.032.414-1.29.257-.31.62-.463 1.031-.463.465 0 .827.154 1.085.464.31.257.413.722.413 1.289v12.645c0 .568-.156 1.032-.413 1.342-.258.258-.62.413-1.085.413-.411 0-.723-.155-1.031-.465-.258-.31-.363-.722-.414-1.29zm15.33-2.065c0 .827-.206 1.498-.621 2.065-.36.568-.927 1.032-1.701 1.342-.775.258-1.707.413-2.79.413-1.03 0-1.96-.155-2.683-.465-.773-.362-1.29-.722-1.651-1.187-.362-.517-.516-.978-.569-1.445.053-.36.155-.619.364-.825.257-.258.514-.363.876-.363.309 0 .514.053.67.207.207.156.364.362.466.673.308.462.672.877 1.082 1.133.467.257 1.034.363 1.705.416.619-.053 1.082-.159 1.444-.416.363-.256.569-.566.569-.876 0-.516-.206-.93-.57-1.137-.411-.255-1.03-.465-1.96-.669-.979-.257-1.806-.517-2.426-.774-.617-.312-1.134-.67-1.496-1.086a2.665 2.665 0 0 1-.569-1.65c0-.62.157-1.135.517-1.654.362-.513.877-.927 1.548-1.237.672-.31 1.498-.463 2.427-.463.774 0 1.443.05 2.065.207.618.152 1.083.362 1.495.668.412.208.724.517.93.879.206.31.309.62.309.928 0 .312-.103.568-.361.826-.207.207-.516.312-.93.312-.31 0-.566-.105-.774-.261-.205-.205-.411-.463-.721-.773a1.91 1.91 0 0 0-.775-.669c-.31-.208-.671-.258-1.238-.258-.465 0-.93.102-1.291.308-.308.206-.516.515-.516.877 0 .26.154.515.36.723.31.207.622.362 1.032.463.467.155 1.084.312 1.807.518.93.205 1.654.464 2.222.774.563.256 1.03.671 1.286 1.085.312.41.468.875.468 1.39M237.644 18.229c0 .36-.105.774-.361 1.186-.154.411-.518.774-.982 1.187-.411.362-.979.672-1.65.878a7.762 7.762 0 0 1-2.27.361c-1.807 0-3.2-.567-4.233-1.601-.98-1.03-1.498-2.426-1.498-4.18 0-1.239.207-2.27.671-3.198.465-.93 1.137-1.652 2.014-2.118.877-.514 1.909-.774 3.147-.774.723 0 1.447.104 2.066.363.62.206 1.186.463 1.6.825.413.36.774.724.981 1.135.256.362.36.724.36 1.084 0 .361-.104.67-.413.876-.207.26-.567.364-.928.364-.208 0-.414-.052-.621-.158-.101-.153-.31-.359-.515-.616-.36-.57-.723-.93-1.135-1.188-.362-.31-.825-.413-1.446-.413-.878 0-1.549.31-2.116.98-.515.672-.775 1.6-.775 2.787 0 .517.102 1.03.207 1.496.156.465.362.826.568 1.188.31.31.619.518.929.722.414.154.774.257 1.238.257a2.82 2.82 0 0 0 1.497-.41 4.272 4.272 0 0 0 1.085-1.241c.206-.36.362-.618.566-.773.207-.208.467-.259.775-.259.36 0 .671.102.878.414.256.258.36.516.36.826zm4.852-10.788v4.336c.36-.464.723-.773 1.032-1.033a6.293 6.293 0 0 1 1.186-.567 6.08 6.08 0 0 1 1.394-.154c.722 0 1.393.154 1.96.463.57.31 1.033.774 1.345 1.343.204.36.36.724.411 1.188.103.41.103.927.103 1.495v5.574c0 .568-.103.98-.413 1.342-.207.258-.568.413-1.03.413-.931 0-1.446-.567-1.446-1.755v-4.903c0-.98-.104-1.703-.413-2.166-.259-.519-.773-.775-1.6-.775-.466 0-.98.154-1.395.463-.411.259-.724.672-.928 1.19-.154.461-.206 1.235-.206 2.321v3.87c0 .568-.155.98-.414 1.29-.26.31-.62.465-1.083.465-.93 0-1.446-.567-1.446-1.755V7.441c0-.567.156-1.032.362-1.29.309-.31.62-.463 1.084-.463.463 0 .824.154 1.083.464.26.257.414.722.414 1.289zm17.701 12.748c-.721.57-1.393.981-2.065 1.239a6.045 6.045 0 0 1-2.217.413 4.75 4.75 0 0 1-1.962-.413 3.33 3.33 0 0 1-1.292-1.239c-.308-.517-.464-1.031-.464-1.6 0-.826.26-1.498.724-2.063.515-.569 1.238-.93 2.116-1.136.207-.051.618-.155 1.342-.26.774-.204 1.394-.309 1.91-.412.515-.153 1.081-.31 1.703-.465-.052-.773-.206-1.34-.466-1.7-.258-.363-.824-.569-1.702-.519-.724-.05-1.29.053-1.653.31-.36.154-.723.465-.98.929-.257.36-.464.67-.568.774-.103.155-.361.206-.722.206-.31 0-.567-.101-.826-.31-.258-.205-.36-.463-.36-.772 0-.568.206-1.03.516-1.498.412-.515.979-.929 1.703-1.187.775-.36 1.755-.516 2.89-.516 1.29 0 2.27.155 2.991.464.775.31 1.293.776 1.55 1.448.31.616.464 1.495.464 2.577v3.355c0 .517.104 1.084.26 1.705.205.567.308.98.257 1.135.05.31-.106.568-.413.826-.258.258-.568.361-.929.361-.311 0-.619-.155-.876-.413-.313-.31-.621-.723-.93-1.239zm-.205-4.18c-.414.155-1.035.31-1.86.464-.824.207-1.392.31-1.701.414-.312.05-.62.204-.878.464-.31.205-.413.568-.465.98.052.464.206.827.517 1.136.36.309.774.465 1.339.465.57 0 1.086-.106 1.55-.363.517-.256.876-.619 1.084-.98.31-.464.414-1.186.414-2.166v-.414zm5.571-5.729h.671v-.877c.053-.928.158-1.652.363-2.167a2.23 2.23 0 0 1 1.186-1.188c.568-.258 1.292-.36 2.272-.36 1.704 0 2.53.412 2.53 1.238 0 .258-.053.515-.26.721a.85.85 0 0 1-.618.26c-.104 0-.311-.052-.62-.052-.258-.053-.465-.104-.67-.053-.516-.051-.88.105-1.034.466-.153.258-.204.721-.204 1.29v.722h.67c1.134 0 1.703.312 1.703.98 0 .463-.156.774-.466.93-.257.103-.67.155-1.238.206h-.67v7.69c0 .568-.156.98-.412 1.29-.258.31-.62.465-1.086.465-.412 0-.722-.155-1.031-.465-.257-.31-.362-.722-.415-1.29v-7.69h-.772c-.413-.051-.774-.154-1.031-.309a1.044 1.044 0 0 1-.31-.774c0-.721.464-1.033 1.442-1.033zm7.64 0h.362V7.441c.05-.31.102-.515.205-.72.155-.209.309-.364.518-.466.206-.155.463-.207.722-.207a1.4 1.4 0 0 1 .98.413c.206.206.361.413.361.67.102.258.102.671.102 1.137v2.012h1.084c.413 0 .724.102.93.312.208.152.36.412.31.721.05.36-.155.671-.466.827-.257.153-.721.205-1.289.256h-.569v5.316c0 .465.053.827.053 1.083.052.208.104.416.258.569.155.155.363.205.67.258.206-.053.414-.053.673-.103.308-.104.568-.104.72-.104.208 0 .465.104.621.31.207.156.31.361.26.67.05.465-.21.827-.726 1.085-.515.258-1.236.361-2.218.361-.929 0-1.6-.155-2.065-.465a2.225 2.225 0 0 1-.93-1.238c-.154-.569-.204-1.29-.204-2.168v-5.574h-.414c-.411-.051-.721-.154-.93-.309-.205-.205-.36-.465-.36-.774s.155-.569.36-.721c.26-.21.57-.312.981-.312" style="fill:#329938;fill-opacity:1;fill-rule:evenodd;stroke:none"/></svg>