<svg xmlns="http://www.w3.org/2000/svg" width="290" height="110" version="1.0"><path d="M70.188 71.267c7.023 9.265 17.612 14.457 30.034 12.93 12.42-1.528 20.056-8.349 25.247-17.918l-55.281 4.988zm69.942-6.312c-6.109 19.547-22.602 32.783-43.676 32.783-21.076 0-40.826-14.864-45-37.162v-.101h138.257l-49.581 4.48zm-17.613-31.662c-6.108-8.96-17.817-14.458-29.524-13.236-11.71 1.222-21.586 8.857-25.86 18.122l55.384-4.886zm-70.147 6.21c5.702-20.26 24.841-32.986 43.982-32.986 19.038 0 40.114 12.93 44.797 37.365l-.104.101H2.79l49.581-4.48" style="fill:#ed1c24;fill-opacity:1;fill-rule:evenodd;stroke:none"/><path d="m270.039 58.54 2.036-12.622h3.563l-.916 4.886h4.48l.611-4.886h3.563l-1.935 12.622h-3.46l.813-5.19h-4.48l-.814 5.19h-3.461zm-7.534-8.755c0 .101-.101.408-.101.611-.307.205-.408.51-.408.814.611-.507 1.02-.916 1.526-1.017.611-.51 1.121-.51 1.834-.51.814 0 1.731.51 2.342 1.121.713.713 1.017 1.73 1.017 2.952 0 1.425-.406 2.748-1.425 3.767a4.469 4.469 0 0 1-3.157 1.324c-.712 0-1.118-.203-1.628-.307-.51-.203-1.019-.61-1.425-1.118l-.306 1.118h-2.749l2.138-13.337h2.954l-.612 4.582zm3.157 4.072c0-.507-.205-.814-.61-1.22-.307-.205-.713-.51-1.426-.51-.61 0-1.019.305-1.63.815-.408.408-.51.814-.51 1.628 0 .51.102.917.51 1.323.408.205.814.51 1.323.51.814 0 1.324-.305 1.628-.814.51-.408.715-.814.715-1.732zM241.94 58.54l1.222-8.654h2.749l-.203 1.63c.305-.712.814-1.12 1.324-1.323.406-.408 1.017-.51 1.526-.51.713 0 1.222 0 1.628.51.307.101.816.611.918 1.12.51-.509.915-.917 1.425-1.12.408-.51.915-.51 1.526-.51.918 0 1.63.102 2.037.713.51.51.712 1.222.712 2.138v.816c0 .203-.101.406-.101.814l-.814 4.376h-2.952l.915-4.478v-.509c0-.408-.202-.916-.51-1.12-.1-.204-.405-.305-.712-.305-.61 0-.915.304-1.12.51-.305.507-.406 1.118-.61 2.137l-.61 3.765h-2.852l.712-4.478v-.205c0-.203.104-.304.104-.507 0-.307-.104-.713-.307-.918-.304-.203-.51-.304-.915-.304-.51 0-.713.304-1.121.51-.203.507-.408 1.118-.611 2.137l-.611 3.765h-2.749zm-7.023-6.719h6.412c-.101 2.241-.712 4.072-1.83 5.193-1.223 1.323-2.853 1.833-4.89 1.833-2.035 0-3.663-.51-4.885-1.527-1.12-1.12-1.732-2.545-1.732-4.378 0-.916.205-2.036.611-2.749.307-1.02.814-1.935 1.63-2.546.611-.712 1.222-1.222 2.24-1.425.813-.408 1.832-.51 2.95-.51 1.122 0 2.344.206 3.056.713 1.02.408 1.732 1.12 2.444 2.241l-2.647 1.831c-.408-.712-.917-1.017-1.323-1.323-.408-.406-1.02-.406-1.732-.406-1.017 0-1.833.406-2.546 1.017a4.44 4.44 0 0 0-1.118 2.954c0 1.017.406 1.83.915 2.442a3.274 3.274 0 0 0 2.24.917c.306 0 .509 0 .816-.101.405 0 .712-.408.915-.408.203-.102.408-.305.611-.51.102-.203.203-.304.305-.814h-2.75l.308-2.444zm-22.195.408h1.017c.713 0 1.12-.203 1.425-.408.51-.304.713-.814.713-1.324 0-.61-.203-1.017-.611-1.22-.305-.205-.814-.408-1.527-.408h-.51l-.507 3.36zm-1.12 6.922h-3.258l1.833-12.726h3.46c1.018 0 1.73.102 2.24.102.51 0 .918.205 1.323.408.611.306 1.121.712 1.426 1.222.306.611.51 1.222.51 2.036 0 .915-.305 1.833-1.018 2.546-.61.712-1.529 1.222-2.444 1.323l3.053 5.09h-3.969l-2.444-4.887-.712 4.886zm-17.716 0 1.934-12.726h3.36l-.713 4.785h4.38l.813-4.785h3.461l-2.036 12.726h-3.46l.712-5.294h-4.38l-.712 5.294h-3.36zm-6.413-2.748h3.97l-.509 2.748h-7.229l1.935-12.726h7.229l-.408 2.853h-3.87l-.406 1.932h3.665l-.406 2.75h-3.768l-.203 2.443zm-16.798 2.748 1.934-12.726h3.256l-.712 5.295 4.787-5.295h4.275l-6.109 6.212 4.276 6.514h-4.073l-3.36-5.598-.915 5.598h-3.36zm-7.84-6.922h1.12c.713 0 1.119-.203 1.425-.408.406-.304.713-.814.713-1.324 0-.61-.307-1.017-.611-1.22-.305-.205-.814-.408-1.527-.408h-.51l-.61 3.36zm-1.017 6.922h-3.362l1.934-12.726h3.464c1.017 0 1.73.102 2.239.102.51 0 .915.205 1.323.408.611.306 1.121.712 1.425 1.222.305.611.51 1.222.51 2.036 0 .915-.307 1.833-1.02 2.546a3.892 3.892 0 0 1-2.545 1.323l3.157 5.09h-3.97l-2.443-4.887-.712 4.886zm-9.775-2.748h3.97l-.509 2.748h-7.127l1.934-12.726h7.23l-.407 2.853h-3.97l-.307 1.932h3.563l-.305 2.75h-3.768l-.304 2.443zm-13.236 2.748-3.258-12.726h3.461l1.63 7.23v.61c0 .305.102.51.102.916.101-.406.304-.611.408-.916 0-.304.101-.51.203-.61l3.36-7.23h3.767l-6.719 12.726h-2.954zm-12.318-4.173c.406.61.916 1.12 1.425 1.323.51.307 1.017.408 1.527.408s.814-.101 1.12-.306c.406-.305.51-.51.51-1.017 0-.307-.104-.611-.51-.918-.203-.203-.814-.507-1.731-.712-1.222-.406-2.036-.814-2.546-1.324-.507-.507-.713-1.324-.713-2.239 0-1.12.409-2.138 1.223-2.85.712-.816 1.833-1.222 3.055-1.222.712 0 1.323.101 2.036.304.611.102 1.118.51 1.73.918l-1.018 2.34c-.51-.304-.915-.51-1.222-.61a3.076 3.076 0 0 0-1.222-.305c-.406 0-.915.101-1.118.304-.307.206-.307.408-.307.713 0 .408 0 .611.307.816.101.102.712.305 1.323.406 0 0 .102 0 .203.101 1.324.409 2.34.918 2.749 1.324.203.205.51.611.712 1.02.102.405.203 1.016.203 1.526 0 1.323-.405 2.444-1.323 3.156-1.017.814-2.036 1.223-3.664 1.223-.713 0-1.63-.104-2.343-.409a5.955 5.955 0 0 1-1.935-1.323l1.53-2.647zm-14.864-8.553h3.462v8.145l.304.917c.101.406.307.611.611.713a2.72 2.72 0 0 0 1.222.304c.51 0 .916-.101 1.12-.304.305-.102.508-.307.815-.713 0-.306.101-.61.101-.917.102-.508.102-1.119.102-2.036v-6.109h3.46v6.72c0 1.425-.1 2.342-.304 3.055-.101.61-.408 1.222-.814 1.73-.408.407-1.019.917-1.731 1.12-.814.307-1.732.307-2.749.307-1.02 0-2.036 0-2.749-.307-.712-.203-1.323-.713-1.731-1.12-.406-.508-.713-1.12-.814-1.73-.102-.713-.305-1.63-.305-3.055v-6.72zm-9.366 10.08h1.323c.713 0 1.324-.102 1.628-.305.305-.102.51-.611.51-1.02 0-.507-.205-.915-.51-1.118-.203-.306-.712-.306-1.628-.306h-1.323v2.748zM99.1 59.15V46.425h3.461c1.425 0 2.444.102 2.952.102.61.103 1.12.306 1.427.408.609.408.916.712 1.22 1.12.104.51.307 1.017.307 1.527 0 .712-.203 1.324-.51 1.732-.408.507-1.12.712-1.833 1.017.918.101 1.63.306 2.036.915.51.51.918 1.324.918 2.241 0 .713-.205 1.222-.51 1.833-.304.508-.712.916-1.323 1.119a5.31 5.31 0 0 1-1.527.51c-.611.1-1.63.202-3.055.202H99.1zm3.157-7.634h.814c.814 0 1.526 0 1.73-.307.306-.203.509-.507.509-.916 0-.61-.203-.915-.406-1.016-.307-.206-1.02-.409-1.833-.409h-.814v2.648zm-11.71 7.634v-9.67h-2.951v-3.056h9.265v3.055H94.01v9.671h-3.461zm-10.281 0v-9.67h-2.954v-3.056h9.265v3.055h-2.952v9.671h-3.36zM69.27 56.504c1.019 0 1.935-.406 2.444-1.118.713-.611.916-1.63.916-2.647 0-1.02-.203-1.935-.916-2.546-.611-.814-1.526-1.12-2.444-1.12-.814 0-1.73.306-2.24 1.12-.712.611-1.018 1.527-1.018 2.546 0 1.017.306 2.036 1.019 2.647.51.712 1.425 1.118 2.239 1.118zm6.924-3.765c0 .915-.205 1.83-.51 2.545-.407.814-.915 1.527-1.526 2.24-.712.509-1.323 1.016-2.241 1.323-.712.406-1.73.51-2.647.51-.814 0-1.73-.104-2.442-.51-.918-.307-1.63-.814-2.241-1.324-.611-.712-1.222-1.425-1.527-2.239a6.702 6.702 0 0 1-.51-2.545c0-.814.206-1.732.51-2.546.305-.814.916-1.425 1.527-2.138.61-.61 1.323-1.12 2.24-1.425a6.524 6.524 0 0 1 2.443-.51c.918 0 1.935.204 2.647.51.918.305 1.529.814 2.241 1.425.611.713 1.119 1.324 1.527 2.138.304.814.51 1.732.51 2.546zM60.72 46.935v3.768c-.611-.51-1.02-1.02-1.428-1.121a2.876 2.876 0 0 0-1.526-.408c-1.017 0-1.833.306-2.442 1.019-.715.713-1.02 1.628-1.02 2.749 0 .814.305 1.833 1.02 2.342.609.814 1.425 1.119 2.442 1.119.51 0 1.019-.203 1.526-.305.408-.408.817-.712 1.428-1.222v3.664c-.611.307-1.223.51-1.834.713-.51.104-.917.104-1.526.104-.715 0-1.324 0-1.935-.206-.51-.101-1.12-.304-1.63-.814-.915-.51-1.628-1.323-2.138-2.239-.51-1.019-.712-2.137-.712-3.36 0-.917.101-1.832.51-2.545.202-.915.814-1.527 1.425-2.239.51-.51 1.222-1.02 2.036-1.427.712-.203 1.526-.406 2.444-.406.609 0 1.017.101 1.526.203.611.203 1.223.306 1.834.61" style="fill:#231f20;fill-opacity:1;fill-rule:evenodd;stroke:none"/></svg>