<svg xmlns="http://www.w3.org/2000/svg" width="400" height="56.038" viewBox="0 0 105.833 14.827"><path d="M-155.853 141.64a1.392 1.392 0 0 0-1.385 1.393v12.953h3.665v-5.77h5.178a1.392 1.392 0 0 0 1.393-1.4v-1.405h-6.57v-2.105a.673.673 0 0 1 .672-.673h6.2a1.392 1.392 0 0 0 1.406-1.412v-1.58zM-139.376 153.02a.673.673 0 0 1-.673-.673v-9.314a1.392 1.392 0 0 0-1.385-1.392h-2.3v12.96a1.392 1.392 0 0 0 1.392 1.385h7.525a1.385 1.385 0 0 0 1.386-1.38v-1.586zM-128.159 155.986h-3.658v-7.17a1.385 1.385 0 0 1 1.345-1.392h2.28zM-129.517 146.012h-2.273v-2.98a1.392 1.392 0 0 1 1.385-1.391h.888a1.392 1.392 0 0 1 1.392 1.392v1.594a1.392 1.392 0 0 1-1.392 1.385zM-114.164 153.457l-2.501-3.443-2.16 2.965 1.837 2.563a1.722 1.722 0 0 0 2.4.376h.048a1.728 1.728 0 0 0 .376-2.461z" style="fill:#73d600;fill-opacity:1;stroke-width:.67251277" transform="translate(157.238 -141.42)"/><path d="m-117.533 148.817-2.159-2.966-2.69-3.726a1.722 1.722 0 0 0-2.4-.377h-.041a1.728 1.728 0 0 0-.383 2.401l3.362 4.64-3.362 4.634a1.728 1.728 0 0 0 .376 2.408h.04a1.722 1.722 0 0 0 2.395-.29l2.017-2.73z" style="fill:#ffad00;fill-opacity:1;stroke-width:.67251277" transform="translate(157.238 -141.42)"/><path d="M-114.54 141.775h-.047a1.722 1.722 0 0 0-2.401.377l-1.836 2.502 2.159 2.965 2.501-3.443a1.728 1.728 0 0 0-.376-2.4zM-76.832 148.817h-4.432v-2.892a1.345 1.345 0 0 1 1.345-1.345h1.742a1.345 1.345 0 0 1 1.345 1.345zm-4.291-7.176a3.53 3.53 0 0 0-3.53 3.53v10.815h3.362V151.6h4.459v4.385h3.362v-10.814A3.53 3.53 0 0 0-77 141.64zM-110.976 141.64a1.392 1.392 0 0 0-1.385 1.393v1.748h3.92v11.205h3.498V144.78h2.555a1.345 1.345 0 0 0 1.345-1.345v-1.795zM-69.899 155.986v-12.953a1.392 1.392 0 0 1 1.386-1.392h2.084v14.345zM-90.552 151.056h.054a4.977 4.977 0 0 0-2.307-9.415h-4.815a1.385 1.385 0 0 0-1.405 1.385v12.96h3.362V151.6h1.285a.673.673 0 0 1 .531.296c.229.322 2.818 4.089 2.818 4.089h4.035v-.048zm-5.11-6.45h2.279a2.105 2.105 0 0 1 0 4.21h-2.28zM-51.432 143.033a1.392 1.392 0 0 0-1.385-1.392h-1.91v7.949l-4.365-7.27a1.392 1.392 0 0 0-1.19-.672h-1.163a1.392 1.392 0 0 0-1.386 1.392v12.946h3.363v-7.674l4.358 7.021a1.379 1.379 0 0 0 1.177.673h1.143a1.385 1.385 0 0 0 1.385-1.386z" style="fill:#73d600;fill-opacity:1;stroke-width:.67251277" transform="translate(157.238 -141.42)"/></svg>