<svg xmlns="http://www.w3.org/2000/svg" xml:space="preserve" width="3334.73" height="469.127"><defs><clipPath id="a"><path d="M14.908 98.949h533.951v84.496H14.908V98.949z"/></clipPath></defs><text x="622.205" y="-30.261" transform="matrix(1.25 0 0 1.25 -617.805 1119.148)"><tspan x="622.20471 633.99469 645.78473 656.92133 661.36731 670.65527 679.20532 688.1153 694.41528 702.96527 711.87531 721.16333 726.7793 733.1153 738.73132 747.69531 756.55133 762.85132 767.56732 774.82129 780.43732 785.15332 794.04529 798.49133 807.7793" y="-30.261" style="font-size:18px;font-variant:normal;font-weight:400;font-stretch:condensed;writing-mode:lr-tb;fill:#fff;fill-opacity:1;fill-rule:nonzero;stroke:none;font-family:Futura XBlkCn BT;-inkscape-font-specification:FuturaBT-ExtraBlackCondensed">www.behrendt-touristik.de</tspan></text><path d="M0 0h8.777l2.942 11.04h-32.394L-23.661 0h9.23l-6.016-22.579h14.431L0 0zm-52.886-13.213L-49.312.135h3.302c1.148.016 2.067-.075 2.776-.264.7-.188 1.221-.543 1.545-1.063.325-.528.483-1.282.475-2.277 0-.687-.076-1.396-.219-2.135a15.045 15.045 0 0 0-.603-2.194 13.542 13.542 0 0 0-.935-2.044 9.474 9.474 0 0 0-1.183-1.704 4.076 4.076 0 0 0-1.462-1.033c-.574-.242-1.253-.408-2.03-.506a22.523 22.523 0 0 0-2.707-.128h-2.533zm-16.785-9.366h20.585a27.12 27.12 0 0 0 1.591.015c.535-.008 1.078-.015 1.621-.015 1.109-.008 2.24.038 3.401.143 1.161.098 2.345.294 3.567.582a12.077 12.077 0 0 1 4.208 1.96c1.273.92 2.449 2.141 3.527 3.65.732 1.018 1.456 2.398 2.164 4.132.709 1.742 1.359 3.839 1.953 6.297.34 1.463.589 2.813.754 4.043.159 1.221.242 2.315.242 3.265.007 1.682-.189 3.107-.573 4.276-.385 1.169-1.003 2.127-1.84 2.881-.837.761-1.938 1.357-3.288 1.802-.497.166-1.365.302-2.594.415-1.228.113-2.804.166-4.735.173h-21.58l-9.003-33.619zm-44.562 0h13.798l3.484 12.714c.188.679.392 1.486.618 2.421.227.935.439 2.014.649 3.236a175.339 175.339 0 0 1 1.131-5.475l2.895-12.896h15.835l9.004 33.619H-80.8l-3.844-14.253c-.213-.792-.439-1.674-.688-2.662a59.519 59.519 0 0 1-.716-3.311 848.839 848.839 0 0 1-.814 5.702L-89.26 11.04h-15.97l-9.003-33.619zm-39.269 0h33.569l2.397 8.914h-19.318l.905 3.393h19.273l1.945 7.195h-19.318l.905 3.393h19.318l2.895 10.724H-144.5l-9.002-33.619zm-42.21 0h14.341l1.99 7.466c.046.181.152.618.31 1.32.158.693.369 1.644.641 2.843.271-.634.558-1.275.868-1.931.308-.648.655-1.305 1.032-1.961l4.433-7.737h16.966l-9.546 13.982h.769c3.966.007 6.944 1.025 8.943 3.054 1.998 2.028 3.001 5.037 3.001 9.027.007 2.549-.64 4.449-1.938 5.693-1.297 1.245-3.295 1.871-5.98 1.863h-26.828l-9.002-33.619zm18.865 17.059 1.9 6.968h5.61c1.101.007 1.908-.189 2.413-.581.513-.392.762-1.033.754-1.908 0-1.063-.211-1.931-.641-2.587-.43-.663-1.086-1.138-1.968-1.448-.89-.301-2.005-.444-3.363-.444h-4.705zm-62.071-17.059h14.297l3.257 12.172h8.46l-3.257-12.172h14.296l9.003 33.619h-14.296l-3.258-11.99h-8.415l3.212 11.99h-14.296l-9.003-33.619zm-39.269 0h33.569l2.398 8.914h-19.318l.905 3.393h19.272l1.946 7.195h-19.318l.904 3.393h19.319l2.895 10.724h-33.569l-9.003-33.619zm-27.325 7.964 1.492 5.565h6.334c1.078.007 1.87-.136 2.375-.429.506-.295.754-.8.747-1.517 0-.731-.174-1.365-.521-1.9-.346-.543-.859-.965-1.538-1.267-.678-.294-1.515-.445-2.511-.452h-6.378zm3.031 11.312 1.312 5.022h5.881c.754.008 1.372-.037 1.855-.128.475-.098.829-.287 1.063-.566.226-.286.339-.701.339-1.251 0-1.019-.384-1.788-1.153-2.301-.769-.52-1.923-.776-3.461-.776h-5.836zm-19.273-19.276h26.828c1.5-.008 2.873.038 4.117.128 1.244.09 2.367.264 3.385.52 1.018.249 1.946.619 2.776 1.109a8.82 8.82 0 0 1 2.254 1.908 8.514 8.514 0 0 1 1.251 1.977c.355.746.626 1.56.815 2.427.188.875.286 1.772.286 2.7.008 1.335-.256 2.428-.791 3.281-.528.844-1.35 1.478-2.459 1.907-1.108.423-2.526.672-4.26.739 3.597.136 6.304 1.094 8.106 2.866 1.802 1.772 2.707 4.352 2.707 7.723 0 1.281-.158 2.337-.49 3.167-.332.829-.837 1.47-1.508 1.938-.679.46-1.539.784-2.579.965-1.048.181-2.277.272-3.702.264h-27.733l-9.003-33.619z" style="fill:#a8120c;fill-opacity:1;fill-rule:nonzero;stroke:none" transform="matrix(10 0 0 -10 3217.54 110.405)"/><path d="M0 0a28.465 28.465 0 0 1 2.371-.368 19.188 19.188 0 0 1 2.09-.123c.574-.002 1.095.031 1.558.1.463.066.878.177 1.241.33.366.156.691.363.973.621.2.186.371.398.511.639s.249.502.323.779c.075.276.114.559.114.848.002.4-.069.717-.213.953-.145.237-.369.406-.678.51-.307.101-.709.153-1.201.15a8.186 8.186 0 0 1-.794-.035l3.48 1.869.584 2.172H2.056l-.713-2.64H5.08L2.032 4.193l-.175-.782c.328.041.64.072.938.095.298.021.58.033.85.033.466.002.812-.056 1.039-.177a.597.597 0 0 0 .339-.57c.001-.368-.163-.641-.488-.82-.327-.179-.821-.267-1.487-.267-.391 0-.796.026-1.217.078-.418.053-.85.132-1.294.238L0 0zm-9.144.058a17.617 17.617 0 0 1 2.226-.42 18.62 18.62 0 0 1 2.304-.14c1.513 0 2.652.277 3.413.831.762.553 1.142 1.382 1.142 2.486 0 .504-.109.911-.327 1.221-.217.309-.55.533-.997.673-.445.142-1.008.211-1.689.209-.105 0-.28-.002-.526-.008l-.945-.016.221.818H.479l.735 2.733H-7.09l-1.378-5.128c.59.041 1.121.072 1.592.096.47.021.878.033 1.224.033.349.002.637-.022.863-.068.227-.047.393-.129.502-.246.111-.114.164-.276.164-.481a.894.894 0 0 0-.183-.56 1.155 1.155 0 0 0-.533-.37c-.234-.088-.521-.131-.861-.133-.356 0-.776.035-1.263.104-.485.07-1.038.171-1.657.305L-9.144.058zm-3.33 5.502a1.533 1.533 0 0 0-.169-.709 1.373 1.373 0 0 0-.46-.51 1.272 1.272 0 0 0-.679-.194c-.298 0-.521.068-.673.204-.149.136-.226.345-.226.625.002.278.054.524.16.736.106.21.252.375.44.496.187.119.402.179.65.181.315 0 .554-.07.716-.208.159-.138.241-.346.241-.621m-5.956-3.504-.548-2.033.781-.163a16.372 16.372 0 0 1 1.75-.273c.582-.06 1.173-.089 1.766-.089 1.067-.003 1.964.142 2.69.43.728.286 1.294.728 1.701 1.322.205.3.391.623.551.969a8.078 8.078 0 0 1 .678 2.21c.06.379.091.753.091 1.119.002.594-.084 1.094-.257 1.501-.17.409-.436.736-.794.982-.358.247-.816.424-1.372.533-.559.111-1.221.163-1.992.162a9.816 9.816 0 0 1-1.805-.145 4.187 4.187 0 0 1-1.356-.478 2.909 2.909 0 0 1-.95-.884 4.296 4.296 0 0 1-.573-1.184 4.44 4.44 0 0 1-.198-1.316c.002-.498.114-.921.333-1.264.22-.344.545-.603.974-.782.428-.177.955-.265 1.578-.267.535-.002.993.06 1.371.191.379.13.694.343.943.639-.095-.544-.358-.951-.791-1.219-.433-.271-1.037-.405-1.815-.405-.444 0-.892.035-1.35.107a9.798 9.798 0 0 0-1.406.337m-6.049-2.29h3.76l2.335 8.738h-3.702l-2.066-1.437-.737-2.78 1.81.724-1.4-5.245zm-8.036.117.947 2.103a22.242 22.242 0 0 0-1.103-.158 6.945 6.945 0 0 0-.744-.053c-.254 0-.441.034-.56.108-.119.074-.176.198-.174.371 0 .065.003.127.008.188.008.06.02.122.038.186l.466 1.717h2.85l.736 2.745H-32.9l.361 1.355h-2.055a16.646 16.646 0 0 0-1.571-1.359 51.996 51.996 0 0 0-1.851-1.351l-.374-1.413h1.18l-.748-2.827a1.822 1.822 0 0 1-.061-.306 2.175 2.175 0 0 1-.021-.313c0-.325.068-.586.205-.781.138-.195.351-.336.638-.424.288-.086.658-.129 1.108-.127.514 0 1.07.027 1.668.082.598.055 1.235.14 1.906.257m-5.863 9.286h-2.312c-.221.002-.394-.027-.522-.089a.622.622 0 0 1-.296-.319 2.718 2.718 0 0 1-.195-.631 1.457 1.457 0 0 1-.026-.257c0-.133.041-.232.12-.294.082-.061.2-.092.358-.092h2.301c.22-.001.393.03.523.092a.619.619 0 0 1 .294.317 2.653 2.653 0 0 1 .195.633c.017.099.027.183.027.255 0 .128-.039.226-.114.29-.078.064-.196.095-.353.095m-5.477-9.403h3.573l1.95 7.278a18.885 18.885 0 0 0-.973-.112 10.95 10.95 0 0 0-.929-.04c-.282 0-.56.013-.835.04-.278.028-.556.065-.836.112l-1.95-7.278zm-5.35 4.462c.107.29.236.524.384.699.148.175.325.302.533.378.208.078.455.117.741.115.333 0 .585-.066.752-.195.169-.13.253-.317.253-.564a1.74 1.74 0 0 0-.069-.433h-2.594zm3.598-4.17.933 1.893a25.742 25.742 0 0 0-1.933-.322 13.422 13.422 0 0 0-1.64-.111c-.471-.004-.817.053-1.038.166-.222.115-.331.306-.329.57 0 .041.005.094.011.158.007.064.018.14.037.228h5.348c.14.362.257.701.35 1.016.088.286.152.545.195.779.041.231.063.436.063.611 0 .539-.152.979-.457 1.318-.307.339-.768.588-1.387.748-.617.159-1.392.237-2.326.235-.444 0-.864-.017-1.261-.054a8.864 8.864 0 0 1-1.122-.179 2.711 2.711 0 0 1-1.041-.497 4.08 4.08 0 0 1-.874-.952 5.141 5.141 0 0 1-.537-1.047 9.252 9.252 0 0 1-.433-1.488 5.201 5.201 0 0 1-.098-.603 5.217 5.217 0 0 1-.03-.541c-.002-.594.123-1.071.372-1.433.249-.361.631-.627 1.148-.791.518-.163 1.18-.243 1.984-.241.649 0 1.313.046 1.989.132.678.09 1.37.224 2.076.405m-17.181-.175a38.025 38.025 0 0 1 2.299-.23c.72-.05 1.397-.074 2.034-.074.549-.002 1.043.022 1.483.072.442.051.833.14 1.176.269.342.131.638.311.891.547.182.169.336.37.467.602.131.231.23.486.302.763.071.276.109.564.109.866.001.364-.066.662-.198.892-.13.227-.333.397-.608.502-.273.107-.625.162-1.053.16a13.593 13.593 0 0 1-.849-.029 10.599 10.599 0 0 0-.634-.03c-.202-.001-.352.02-.445.068-.094.047-.141.133-.139.259 0 .139.064.248.193.324.128.076.322.13.58.159.261.029.586.045.979.043.35 0 .74-.02 1.168-.058.429-.039.899-.094 1.413-.164l.584 2.138c-.788.105-1.538.185-2.246.237-.709.053-1.374.078-1.993.078-.6.002-1.131-.023-1.599-.078a4.95 4.95 0 0 1-1.218-.284 2.463 2.463 0 0 1-.874-.561 2.921 2.921 0 0 1-.483-.677 3.98 3.98 0 0 1-.322-.839 3.64 3.64 0 0 1-.118-.89c0-.372.075-.678.226-.913.15-.236.38-.411.687-.522.306-.111.695-.165 1.166-.165.374.002.683.01.927.023.245.014.422.022.533.023.129 0 .222-.023.285-.07.06-.046.089-.117.089-.21 0-.134-.064-.239-.193-.315-.126-.074-.321-.127-.58-.156a8.597 8.597 0 0 0-.978-.043c-.351 0-.739.019-1.165.059-.425.038-.892.093-1.394.163l-.502-1.939z" style="fill:#a8120c;fill-opacity:1;fill-rule:nonzero;stroke:none" transform="matrix(10 0 0 -10 3043.242 464.107)"/><g clip-path="url(#a)" transform="matrix(1.25 0 0 -1.25 -617.805 1119.148)"><text transform="matrix(1 0 0 -1 184.189 391.075)"><tspan x="0 9.6020479 18.339756 27.077461 32.310658 36.679512 45.417217 54.154922 67.245766 80.336617 89.074318 94.307518 113.77877 122.51648 131.25418 157.98592 166.72362 175.46132 202.19305 210.93076 219.66846 246.40019 255.13789 263.87561 290.60733 299.34503 308.08273 334.81445 343.55219 352.28989" y="0" style="font-size:15.71529961px;font-variant:normal;font-weight:400;font-stretch:normal;writing-mode:lr-tb;fill:#000;fill-opacity:1;fill-rule:nonzero;stroke:none;font-family:Arial;-inkscape-font-specification:ArialMT">Fahrtnummer 548548548548548548</tspan><tspan x="131.20705 175.4299 219.63704 263.84418 299.3136 308.0513 343.52075 352.25845" y="14.285" style="font-size:15.71529961px;font-variant:normal;font-weight:400;font-stretch:normal;writing-mode:lr-tb;fill:#000;fill-opacity:1;fill-rule:nonzero;stroke:none;font-family:Arial;-inkscape-font-specification:ArialMT">24681214</tspan></text><text transform="matrix(1 0 0 -1 114.684 359.802)"><tspan x="0 8.7350988 16.016531 21.110912 28.392345 35.673775 43.675495 48.769875 56.051308 64.053024 71.334457 78.615891 85.897324 93.89904 98.993423 106.27485 114.27657 121.558 129.55972 137.56143 145.56316 152.85768 185.91223 194.64734 318.57571 327.31082 362.80127 371.53635 407.02679 415.7619" y="0" style="font-size:13.09609985px;font-variant:normal;font-weight:700;font-stretch:normal;writing-mode:lr-tb;fill:#000;fill-opacity:1;fill-rule:nonzero;stroke:none;font-family:&quot;EHHJQA+Arial-BoldMT&quot;;-inkscape-font-specification:Arial-BoldMT">VerkehrsbeschränkungenS S S S </tspan><tspan x="72.748833 82.204216 90.20594 101.84837 109.1298 114.22418 121.50562 129.50734 137.50905 145.51077 152.79221" y="18.557" style="font-size:13.09609985px;font-variant:normal;font-weight:700;font-stretch:normal;writing-mode:lr-tb;fill:#000;fill-opacity:1;fill-rule:nonzero;stroke:none;font-family:&quot;EHHJQA+Arial-BoldMT&quot;;-inkscape-font-specification:Arial-BoldMT">Anmerkungen</tspan><tspan x="221.521" y="18.557" style="font-size:13.09609985px;font-variant:normal;font-weight:700;font-stretch:normal;writing-mode:lr-tb;fill:#fff;fill-opacity:1;fill-rule:nonzero;stroke:none;font-family:&quot;EHHJQA+Arial-BoldMT&quot;;-inkscape-font-specification:Arial-BoldMT">W</tspan></text><text transform="matrix(1 0 0 -1 352.208 341.244)"><tspan x="0" y="0" style="font-size:13.09609985px;font-variant:normal;font-weight:400;font-stretch:normal;writing-mode:lr-tb;fill:#000;fill-opacity:1;fill-rule:nonzero;stroke:none;font-family:&quot;EHHJQA+BahnbusLogos&quot;;-inkscape-font-specification:BahnbusLogos">T</tspan></text><text transform="matrix(1 0 0 -1 380.43 341.244)"><tspan x="0" y="0" style="font-size:13.09609985px;font-variant:normal;font-weight:700;font-stretch:normal;writing-mode:lr-tb;fill:#fff;fill-opacity:1;fill-rule:nonzero;stroke:none;font-family:&quot;EHHJQA+Arial-BoldMT&quot;;-inkscape-font-specification:Arial-BoldMT">W</tspan></text><text transform="matrix(1 0 0 -1 396.433 341.244)"><tspan x="0 36.210716 80.436249 124.66177" y="0" style="font-size:13.09609985px;font-variant:normal;font-weight:400;font-stretch:normal;writing-mode:lr-tb;fill:#000;fill-opacity:1;fill-rule:nonzero;stroke:none;font-family:&quot;EHHJQA+BahnbusLogos&quot;;-inkscape-font-specification:BahnbusLogos">TTTT</tspan></text><text transform="matrix(1 0 0 -1 293.599 323.696)"><tspan x="0 8.7377071 13.10656 21.844267 44.222855 52.96056 57.329414 66.067123 79.692284 88.429993 97.167702 101.53655 110.27426 123.89942 132.63713 141.37483 145.7437 154.4814 168.10657 176.84427 185.58197 189.95084 198.68854 212.31371 221.05141 229.78912 234.15797 242.89568" y="0" style="font-size:15.71529961px;font-variant:normal;font-weight:400;font-stretch:normal;writing-mode:lr-tb;fill:#000;fill-opacity:1;fill-rule:nonzero;stroke:none;font-family:Arial;-inkscape-font-specification:ArialMT">7 138 4012 4013 3914 3915 39</tspan><tspan x="0 8.7377071 13.10656 21.844267 44.207138 52.944847 57.313698 66.051407 79.676575 88.414276 97.151985 101.52084 110.25854 123.88371 132.62141 141.35913 145.72798 154.46568 168.09085 176.82855 185.56627 189.93512 198.67282 212.29799 221.03569 229.77341 234.14226 242.87996" y="14.411" style="font-size:15.71529961px;font-variant:normal;font-weight:400;font-stretch:normal;writing-mode:lr-tb;fill:#000;fill-opacity:1;fill-rule:nonzero;stroke:none;font-family:Arial;-inkscape-font-specification:ArialMT">7 158 4212 4213 4114 4115 41</tspan><tspan x="-0.031430598 8.7062759 13.07513 21.812836 44.191425 52.929131 57.297985 66.03569 79.660858 88.39856 97.136269 101.50512 110.24283 123.868 132.6057 141.34341 145.71227 154.44997 168.07513 176.81284 185.55055 189.9194 198.6571 212.28227 221.01997 229.75769 234.12654 242.86424" y="28.806" style="font-size:15.71529961px;font-variant:normal;font-weight:400;font-stretch:normal;writing-mode:lr-tb;fill:#000;fill-opacity:1;fill-rule:nonzero;stroke:none;font-family:Arial;-inkscape-font-specification:ArialMT">7 178 4412 4413 4314 4315 43</tspan><tspan x="0 8.7377071 13.10656 21.844267 44.207138 52.944847 57.313698 66.051407 79.676575 88.414276 97.151985 101.52084 110.25854 123.88371 132.62141 141.35913 145.72798 154.46568 168.09085 176.82855 185.56627 189.93512 198.67282 212.29799 221.03569 229.77341 234.14226 242.87996" y="43.217" style="font-size:15.71529961px;font-variant:normal;font-weight:400;font-stretch:normal;writing-mode:lr-tb;fill:#000;fill-opacity:1;fill-rule:nonzero;stroke:none;font-family:Arial;-inkscape-font-specification:ArialMT">7 198 4612 4613 4514 4515 45</tspan><tspan x="-0.031430598 8.7062759 13.07513 21.812836 44.191425 52.929131 57.297985 66.03569 79.660858 88.39856 97.136269 101.50512 110.24283 123.868 132.6057 141.34341 145.71227 154.44997 168.07513 176.81284 185.55055 189.9194 198.6571 212.28227 221.01997 229.75769 234.12654 242.86424" y="57.612" style="font-size:15.71529961px;font-variant:normal;font-weight:400;font-stretch:normal;writing-mode:lr-tb;fill:#000;fill-opacity:1;fill-rule:nonzero;stroke:none;font-family:Arial;-inkscape-font-specification:ArialMT">7 228 4912 4913 4814 4815 48</tspan><tspan x="0 8.7377071 13.10656 21.844267 44.207138 52.944847 57.313698 66.051407 79.676575 88.414276 97.151985 101.52084 110.25854" y="72.023" style="font-size:15.71529961px;font-variant:normal;font-weight:400;font-stretch:normal;writing-mode:lr-tb;fill:#000;fill-opacity:1;fill-rule:nonzero;stroke:none;font-family:Arial;-inkscape-font-specification:ArialMT">7 248 5112 51</tspan><tspan x="0 8.7377071 13.10656 21.844267 44.207138 52.944847 57.313698 66.051407 79.676575 88.414276 97.151985 101.52084 110.25854 123.88371 132.62141 141.35913 145.72798 154.46568 168.09085 176.82855 185.56627 189.93512 198.67282 212.29799 221.03569 229.77341 234.14226 242.87996" y="86.434" style="font-size:15.71529961px;font-variant:normal;font-weight:400;font-stretch:normal;writing-mode:lr-tb;fill:#000;fill-opacity:1;fill-rule:nonzero;stroke:none;font-family:Arial;-inkscape-font-specification:ArialMT">7 258 5212 5213 5014 5015 50</tspan><tspan x="0 8.7377071 13.10656 21.844267 44.207138 52.944847 57.313698 66.051407 79.676575 88.414276 97.151985 101.52084 110.25854 123.88371 132.62141 141.35913 145.72798 154.46568 168.09085 176.82855 185.56627 189.93512 198.67282 212.29799 221.03569 229.77341 234.14226 242.87996" y="100.829" style="font-size:15.71529961px;font-variant:normal;font-weight:400;font-stretch:normal;writing-mode:lr-tb;fill:#000;fill-opacity:1;fill-rule:nonzero;stroke:none;font-family:Arial;-inkscape-font-specification:ArialMT">7 278 5412 5413 5214 5215 52</tspan><tspan x="-0.031430598 8.7062759 13.07513 21.812836 44.191425 52.929131 57.297985 66.03569 79.660858 88.39856 97.136269 101.50512 110.24283 123.868 132.6057 141.34341 145.71227 154.44997 168.07513 176.81284 185.55055 189.9194 198.6571 212.28227 221.01997 229.75769 234.12654 242.86424" y="115.225" style="font-size:15.71529961px;font-variant:normal;font-weight:400;font-stretch:normal;writing-mode:lr-tb;fill:#000;fill-opacity:1;fill-rule:nonzero;stroke:none;font-family:Arial;-inkscape-font-specification:ArialMT">7 308 5712 5713 5514 5515 55</tspan><tspan x="0 8.7377071 13.10656 21.844267 44.207138 52.944847 57.313698 66.051407 79.676575 88.414276 97.151985 101.52084 110.25854 123.88371 132.62141 141.35913 145.72798 154.46568 168.09085 176.82855 185.56627 189.93512 198.67282 212.29799 221.03569 229.77341 234.14226 242.87996" y="129.636" style="font-size:15.71529961px;font-variant:normal;font-weight:400;font-stretch:normal;writing-mode:lr-tb;fill:#000;fill-opacity:1;fill-rule:nonzero;stroke:none;font-family:Arial;-inkscape-font-specification:ArialMT">7 328 5912 5913 5714 5715 57</tspan></text><text transform="matrix(1 0 0 -1 352.948 414.523)"><tspan x="0 13.745417 22.920029 32.094639 36.681946 45.856556 55.03117 59.618473 69.255119 73.842422 83.924591 89.419464 98.59407 102.25732 106.84462 116.01923" y="0" style="font-size:16.50110054px;font-variant:normal;font-weight:400;font-stretch:normal;writing-mode:lr-tb;fill:#000;fill-opacity:1;fill-rule:nonzero;stroke:none;font-family:&quot;UFJGGU+ArialMT&quot;;-inkscape-font-specification:ArialMT">Montag − Freitag</tspan></text><text transform="matrix(1 0 0 -1 18.175 323.696)"><tspan x="0 12.226503 20.964211 24.453007 32.310658 41.048363 52.39481 56.763664 61.996857 72.478966 85.569809 90.803001 95.17186 99.54071 110.02281 117.88046 126.61817 135.35588 138.84468" y="0" style="font-size:15.71529961px;font-variant:normal;font-weight:400;font-stretch:normal;writing-mode:lr-tb;fill:#000;fill-opacity:1;fill-rule:nonzero;stroke:none;font-family:Arial;-inkscape-font-specification:ArialMT">Golzow (PM), Schule</tspan></text><text transform="matrix(1 0 0 -1 18.175 309.285)"><tspan x="0 12.226503 20.964211 24.453007 32.310658 41.048363 52.39481 56.763664 61.132519 71.614624 80.352325 88.209976 99.556427 108.29414 111.78293 120.52064 124.88949 133.6272 142.3649 151.10262 159.84032 163.32912" y="0" style="font-size:15.71529961px;font-variant:normal;font-weight:400;font-stretch:normal;writing-mode:lr-tb;fill:#000;fill-opacity:1;fill-rule:nonzero;stroke:none;font-family:&quot;UFJGGU+ArialMT&quot;;-inkscape-font-specification:ArialMT">Golzow, Abzweig Lehnin</tspan></text><text transform="matrix(1 0 0 -1 18.175 294.89)"><tspan x="0 12.226503 20.964211 29.701918 34.935112 38.423908 47.161613 55.899323 64.637032 73.374733 77.743591 82.112442 93.458893 102.19659 107.42979" y="0" style="font-size:15.71529961px;font-variant:normal;font-weight:400;font-stretch:normal;writing-mode:lr-tb;fill:#000;fill-opacity:1;fill-rule:nonzero;stroke:none;font-family:Arial;-inkscape-font-specification:ArialMT">Oberjünne, Dorf</tspan><tspan x="0 12.226503 20.964211 29.701918 34.935112 38.423908 47.161613 55.899323 64.637032 73.374733 77.743591 82.112442 91.714493 100.45219 105.68539 113.54305 117.9119 126.6496 135.38731 144.12502" y="14.395" style="font-size:15.71529961px;font-variant:normal;font-weight:400;font-stretch:normal;writing-mode:lr-tb;fill:#000;fill-opacity:1;fill-rule:nonzero;stroke:none;font-family:Arial;-inkscape-font-specification:ArialMT">Oberjünne, Forsthaus</tspan></text><text transform="matrix(1 0 0 -1 18.175 266.084)"><tspan x="0 13.090845 16.579641 24.437292 33.174999 41.912704 45.401501 53.259151 61.996857 70.734566 75.967758 80.336617 84.705467 89.074318 99.556427 108.29414 116.15178 124.88949 133.6272" y="0" style="font-size:15.71529961px;font-variant:normal;font-weight:400;font-stretch:normal;writing-mode:lr-tb;fill:#000;fill-opacity:1;fill-rule:nonzero;stroke:none;font-family:&quot;UFJGGU+ArialMT&quot;;-inkscape-font-specification:ArialMT">Michelsdorf, Ausbau</tspan><tspan x="0 13.090845 16.579641 24.437292 33.174999 41.912704 45.401501 53.259151 61.996857 70.734566 75.967758 80.336617 84.705467 89.074318 101.30083 106.53402 110.90287 118.76052 131.85136 135.34016 139.70901 144.07787" y="14.411" style="font-size:15.71529961px;font-variant:normal;font-weight:400;font-stretch:normal;writing-mode:lr-tb;fill:#000;fill-opacity:1;fill-rule:nonzero;stroke:none;font-family:&quot;UFJGGU+ArialMT&quot;;-inkscape-font-specification:ArialMT">Michelsdorf, Ortsmitte</tspan><tspan x="0 13.090845 16.579641 24.437292 33.174999 41.912704 45.401501 53.259151 61.996857 70.734566 75.967758 80.336617 84.705467 89.074318 99.556427 108.29414 111.78293 119.64058 123.12938 131.86708 140.60478 145.83798 150.20683 161.55328 170.29099 179.0287 187.7664 195.62405 203.4817 212.21941" y="28.806" style="font-size:15.71529961px;font-variant:normal;font-weight:400;font-stretch:normal;writing-mode:lr-tb;fill:#000;fill-opacity:1;fill-rule:nonzero;stroke:none;font-family:&quot;UFJGGU+ArialMT&quot;;-inkscape-font-specification:ArialMT">Michelsdorf, Belziger Chaussee</tspan><tspan x="0 8.7377071 17.475414 26.21312 34.950829 38.439625 47.17733 51.546185 55.915039 66.397141 76.87925" y="43.201" style="font-size:15.71529961px;font-variant:normal;font-weight:400;font-stretch:normal;writing-mode:lr-tb;fill:#000;fill-opacity:1;fill-rule:nonzero;stroke:none;font-family:&quot;UFJGGU+ArialMT&quot;;-inkscape-font-specification:ArialMT">Lehnin, BVA</tspan><tspan x="0 8.7377071 17.475414 26.21312 34.950829 38.439625 47.17733 51.546185 55.915039 66.397141 75.13485 78.62365 86.481293 89.970093 98.707802 107.4455 112.6787 117.04755 127.52966 131.89851 137.13171" y="57.612" style="font-size:15.71529961px;font-variant:normal;font-weight:400;font-stretch:normal;writing-mode:lr-tb;fill:#000;fill-opacity:1;fill-rule:nonzero;stroke:none;font-family:&quot;UFJGGU+ArialMT&quot;;-inkscape-font-specification:ArialMT">Lehnin, Belziger Str.</tspan></text><path d="M0 0a5.762 5.762 0 1 1-11.525 0A5.762 5.762 0 0 1 0 0" style="fill:#000;fill-opacity:1;fill-rule:evenodd;stroke:none" transform="translate(278.317 200.657)"/><path d="M0 0a4.976 4.976 0 0 1-4.977 4.974A4.976 4.976 0 1 1 0 0" style="fill:#fff;fill-opacity:1;fill-rule:evenodd;stroke:none" transform="translate(277.532 200.657)"/><text transform="matrix(1 0 0 -1 18.175 194.063)"><tspan x="0 8.7377071 17.475414 26.21312 34.950829 38.439625 47.17733 51.546185 55.915039 66.397141 75.13485 82.9925 91.730209 100.46791 109.20562 117.94333 126.68103 135.41875" y="0" style="font-size:15.71529961px;font-variant:normal;font-weight:400;font-stretch:normal;writing-mode:lr-tb;fill:#000;fill-opacity:1;fill-rule:nonzero;stroke:none;font-family:&quot;UFJGGU+ArialMT&quot;;-inkscape-font-specification:ArialMT">Lehnin, Busbahnhof</tspan></text></g></svg>