<svg xmlns="http://www.w3.org/2000/svg" xml:space="preserve" width="1332.289" height="446.159"><path d="M32.766 707.077a2 2 0 0 1 .118-.008c.05-.004.098-.004.14-.004.036 0 .082 0 .136.004.054.002.096.005.124.008l1.475 4.491a.658.658 0 0 1-.109.01 3.31 3.31 0 0 1-.255 0 .886.886 0 0 1-.117-.01l-1.237-4.067-1.255 4.067a.828.828 0 0 1-.12.01 3.302 3.302 0 0 1-.265 0 .628.628 0 0 1-.108-.01l1.473-4.491zm4.897 1.53c.004.042.009.092.012.15l.001.145c0 .208-.028.4-.084.578-.057.176-.14.328-.25.456a1.13 1.13 0 0 1-.41.296c-.161.07-.348.106-.555.106-.25 0-.464-.043-.645-.133a1.166 1.166 0 0 1-.44-.36 1.626 1.626 0 0 1-.255-.537 2.461 2.461 0 0 1-.083-.657c0-.241.03-.462.088-.664.062-.204.155-.377.282-.523.127-.146.288-.258.487-.339.199-.08.435-.122.709-.122.193 0 .37.015.532.043.162.029.304.071.424.125a1.578 1.578 0 0 1-.025.181.714.714 0 0 1-.05.169 2.668 2.668 0 0 0-.395-.11 2.275 2.275 0 0 0-.44-.04c-.394 0-.687.1-.884.3-.194.2-.293.512-.293.936h2.274zm-2.261.345c.034.323.13.576.293.755.165.178.391.27.682.27.158 0 .295-.03.406-.089a.831.831 0 0 0 .431-.555c.034-.126.05-.252.05-.381h-1.862zm3.18-1.875c.025-.003.06-.006.106-.008.045-.004.08-.004.1-.004.025 0 .06 0 .102.004.045.002.08.005.104.008v1.637c0 .416.085.715.255.892.172.181.4.269.682.269h.06c.018 0 .044-.002.08-.005a1.044 1.044 0 0 1 0 .392.505.505 0 0 1-.08.007h-.065c-.248 0-.444-.053-.595-.16a1.144 1.144 0 0 1-.349-.389c0 .083-.002.176-.006.278-.005.101-.01.191-.02.264a1.091 1.091 0 0 1-.093.01c-.029.003-.058.003-.093.003-.03 0-.059 0-.09-.003a1.148 1.148 0 0 1-.098-.01v-3.185zm2.186 0a1.43 1.43 0 0 1 .104-.008c.043-.004.078-.004.104-.004.019 0 .053 0 .098.004.047.002.081.005.106.008v4.592a1.191 1.191 0 0 1-.106.01c-.045.003-.08.003-.098.003-.026 0-.061 0-.104-.003a1.25 1.25 0 0 1-.104-.01v-4.592zm2.011 0c.089-.013.177-.018.27-.018.075 0 .15.005.224.018l-1.343 1.687 1.138 1.498c-.085.013-.17.02-.263.02-.08 0-.151-.007-.218-.02l-1.144-1.54 1.336-1.645zm3.536 1.53a2.947 2.947 0 0 1 .012.295c0 .208-.027.4-.084.578a1.258 1.258 0 0 1-.25.456 1.14 1.14 0 0 1-.407.296c-.165.07-.349.106-.557.106-.251 0-.465-.043-.643-.133a1.132 1.132 0 0 1-.44-.36 1.607 1.607 0 0 1-.257-.537 2.425 2.425 0 0 1-.084-.657c0-.241.03-.462.091-.664a1.264 1.264 0 0 1 .766-.862c.199-.08.435-.122.71-.122.192 0 .369.015.532.043.162.029.303.071.423.125a1.68 1.68 0 0 1-.023.181.77.77 0 0 1-.05.169 2.735 2.735 0 0 0-.397-.11 2.233 2.233 0 0 0-.44-.04c-.391 0-.685.1-.88.3-.198.2-.295.512-.295.936h2.273zm-2.26.345c.032.323.131.576.293.755.162.178.389.27.681.27a.87.87 0 0 0 .405-.089.796.796 0 0 0 .276-.228.973.973 0 0 0 .156-.327c.032-.126.049-.252.049-.381h-1.86zm3.178-1.875c.025-.003.06-.006.106-.008.047-.004.08-.004.102-.004.024 0 .058 0 .103.004.043.002.076.005.102.008v1.607c0 .206.026.392.077.551.053.16.125.294.216.4a.86.86 0 0 0 .328.24c.128.055.265.08.41.08.22 0 .39-.074.506-.23.116-.152.176-.408.176-.76v-1.888c.024-.003.058-.006.105-.008.046-.004.079-.004.1-.004.024 0 .06 0 .103.004.043.002.078.005.103.008v2.012c0 .396-.087.702-.26.92-.173.22-.442.329-.808.329-.133 0-.256-.018-.366-.055a1.191 1.191 0 0 1-.527-.36 1.378 1.378 0 0 1-.163-.228v1.974c-.026.004-.06.007-.107.01-.045.003-.08.003-.098.003-.026 0-.061 0-.105-.003a1.327 1.327 0 0 1-.103-.01v-4.592zm3.575 0c.023-.003.06-.006.106-.008.046-.004.078-.004.099-.004.024 0 .06 0 .105.004.042.002.077.005.102.008v1.637c0 .416.084.715.255.892.172.181.398.269.682.269h.059a.93.93 0 0 0 .077-.005.956.956 0 0 1 0 .392.452.452 0 0 1-.077.007h-.067c-.245 0-.443-.053-.592-.16a1.158 1.158 0 0 1-.35-.389c0 .083-.004.176-.007.278-.003.101-.01.191-.018.264a1.208 1.208 0 0 1-.094.01c-.029.003-.06.003-.094.003-.03 0-.06 0-.09-.003a1.064 1.064 0 0 1-.096-.01v-3.185zm1.91.064c.095-.043.223-.077.377-.101a3.55 3.55 0 0 1 .536-.037c.178 0 .343.021.494.069.15.045.278.11.387.197a.91.91 0 0 1 .253.311c.059.123.089.26.089.41 0 .162-.03.297-.089.404a.865.865 0 0 1-.231.27c-.095.07-.2.128-.313.172a6.088 6.088 0 0 1-.34.12c-.088.026-.17.053-.247.083a1.01 1.01 0 0 0-.207.103.47.47 0 0 0-.143.144.378.378 0 0 0-.053.202c0 .147.053.264.159.354.105.09.286.134.54.134.146 0 .287-.014.423-.043.135-.031.245-.06.335-.088.037.117.065.235.085.356a2.573 2.573 0 0 1-.825.137c-.387 0-.673-.08-.858-.238a.772.772 0 0 1-.278-.617.74.74 0 0 1 .072-.344.734.734 0 0 1 .192-.235 1.09 1.09 0 0 1 .27-.159c.102-.042.207-.078.308-.112.098-.032.192-.067.283-.096.09-.033.174-.074.247-.122a.591.591 0 0 0 .173-.184.549.549 0 0 0 .067-.28.494.494 0 0 0-.218-.408c-.146-.111-.344-.165-.595-.165-.133 0-.272.013-.418.04a1.966 1.966 0 0 0-.356.096 1.858 1.858 0 0 1-.119-.373zm3.798.267c-.112 0-.203.01-.274.028a.483.483 0 0 0-.166.075.217.217 0 0 0-.078.104.413.413 0 0 0 .052.352.91.91 0 0 0 .248.216c.134-.045.29-.07.469-.07.17 0 .33.027.478.077.148.05.277.121.387.215.109.094.197.21.259.346.062.138.093.295.093.476 0 .115-.016.226-.046.327a1.287 1.287 0 0 1-.135.29h.594a.778.778 0 0 1 .024.213.732.732 0 0 1-.024.205c-.075 0-.152-.004-.232-.014a2.523 2.523 0 0 1-.593-.148c-.099.073-.217.13-.35.172a1.482 1.482 0 0 1-.455.066c-.2 0-.376-.029-.529-.087a1.19 1.19 0 0 1-.385-.237.984.984 0 0 1-.232-.354 1.19 1.19 0 0 1-.08-.433c0-.213.045-.397.133-.55.086-.155.202-.276.35-.37a1.158 1.158 0 0 1-.31-.292.684.684 0 0 1-.116-.407c0-.112.026-.206.081-.283a.645.645 0 0 1 .2-.19.848.848 0 0 1-.355-.327.828.828 0 0 1-.138-.455c0-.155.032-.284.093-.39a.704.704 0 0 1 .266-.258c.115-.063.25-.11.406-.138.155-.03.328-.044.514-.044.243 0 .466.025.674.076.204.053.384.127.533.22.15.094.267.205.35.336.082.133.126.28.126.44a.74.74 0 0 1-.235.573c-.158.144-.417.22-.785.226l-.812.014zm.7-.4c.246-.002.422-.04.532-.107.108-.066.162-.177.162-.335 0-.184-.108-.342-.325-.474-.217-.129-.52-.195-.907-.195-.121 0-.234.006-.342.021a1 1 0 0 0-.286.078.47.47 0 0 0-.19.157.424.424 0 0 0-.067.25c0 .188.057.338.176.453a.64.64 0 0 0 .473.165l.774-.013zm-1.046 2.765c.127.148.327.22.597.22.269 0 .47-.072.599-.22a.795.795 0 0 0 .193-.546c0-.218-.063-.4-.193-.546-.13-.15-.33-.223-.6-.223-.27 0-.469.073-.596.223a.81.81 0 0 0-.19.546c0 .216.064.399.19.546zm5.339-1.166.008.15c.003.06.003.106.003.145 0 .208-.027.4-.085.578a1.286 1.286 0 0 1-.248.456 1.154 1.154 0 0 1-.41.296c-.163.07-.347.106-.557.106-.25 0-.463-.043-.642-.133a1.126 1.126 0 0 1-.44-.36 1.597 1.597 0 0 1-.256-.537 2.394 2.394 0 0 1-.085-.657c0-.241.03-.462.09-.664.061-.204.155-.377.28-.523.129-.146.29-.258.488-.339.2-.08.434-.122.71-.122.19 0 .369.015.53.043.162.029.305.071.426.125a2.974 2.974 0 0 1-.025.181.759.759 0 0 1-.05.169 2.75 2.75 0 0 0-.397-.11 2.256 2.256 0 0 0-.442-.04c-.39 0-.683.1-.88.3-.196.2-.293.512-.293.936h2.275zm-2.263.345c.035.323.132.576.294.755.162.178.389.27.68.27.159 0 .294-.03.407-.089a.83.83 0 0 0 .43-.555c.034-.126.053-.252.053-.381h-1.864zm2.974-1.811c.094-.043.222-.077.379-.101.155-.024.333-.037.533-.037.178 0 .343.021.493.069.15.045.28.11.388.197.107.084.191.19.254.311.059.123.09.26.09.41a.833.833 0 0 1-.09.404.88.88 0 0 1-.234.27c-.094.07-.195.128-.311.172a5.33 5.33 0 0 1-.341.12 3.08 3.08 0 0 0-.246.083 1.036 1.036 0 0 0-.207.103.477.477 0 0 0-.142.144.372.372 0 0 0-.054.202c0 .147.054.264.16.354.106.09.285.134.54.134.145 0 .286-.014.422-.043a4.55 4.55 0 0 0 .334-.088c.037.117.067.235.086.356a2.558 2.558 0 0 1-.823.137c-.387 0-.674-.08-.86-.238a.77.77 0 0 1-.278-.617c0-.138.024-.253.073-.344a.717.717 0 0 1 .19-.235c.079-.063.17-.116.27-.159.104-.042.206-.078.312-.112.095-.032.19-.067.28-.096.092-.033.174-.074.246-.122a.585.585 0 0 0 .175-.184.535.535 0 0 0 .065-.28.493.493 0 0 0-.217-.408c-.146-.111-.344-.165-.595-.165a2.31 2.31 0 0 0-.418.04 1.95 1.95 0 0 0-.356.096 1.883 1.883 0 0 1-.118-.373zm5.565 1.466c.004.042.009.092.01.15.003.06.003.106.003.145 0 .208-.027.4-.083.578-.058.176-.141.328-.25.456-.11.125-.248.226-.41.296-.162.07-.348.106-.558.106-.247 0-.462-.043-.642-.133a1.162 1.162 0 0 1-.44-.36 1.558 1.558 0 0 1-.255-.537 2.473 2.473 0 0 1-.085-.657c0-.241.03-.462.09-.664a1.42 1.42 0 0 1 .28-.523c.128-.146.29-.258.489-.339.199-.08.435-.122.708-.122.193 0 .37.015.531.043.162.029.305.071.425.125a1.686 1.686 0 0 1-.024.181.782.782 0 0 1-.05.169 2.668 2.668 0 0 0-.397-.11 2.252 2.252 0 0 0-.441-.04c-.392 0-.685.1-.881.3-.195.2-.294.512-.294.936h2.274zm-2.262.345c.034.323.133.576.295.755.163.178.39.27.68.27.159 0 .294-.03.408-.089a.853.853 0 0 0 .274-.228.917.917 0 0 0 .155-.327c.035-.126.05-.252.05-.381h-1.862zm3.18-1.23a.83.83 0 0 1 .064-.355.547.547 0 0 1 .4-.32 1.409 1.409 0 0 1 .661.03c-.003.05-.01.104-.018.163a.747.747 0 0 1-.043.162 1.214 1.214 0 0 0-.27-.032c-.037 0-.079.005-.125.011a.267.267 0 0 0-.124.05.294.294 0 0 0-.093.13.675.675 0 0 0-.038.254v3.854a1.3 1.3 0 0 1-.107.01c-.047.003-.08.003-.101.003-.024 0-.059 0-.102-.003a1.255 1.255 0 0 1-.103-.01v-3.947zm1.745 0a.87.87 0 0 1 .06-.355.565.565 0 0 1 .4-.32 1.458 1.458 0 0 1 .466-.013c.074.009.14.023.197.043-.003.05-.01.104-.018.163a.613.613 0 0 1-.045.162 1.218 1.218 0 0 0-.268-.032c-.038 0-.08.005-.125.011a.254.254 0 0 0-.124.05.285.285 0 0 0-.094.13.69.69 0 0 0-.038.254v3.854a1.273 1.273 0 0 1-.106.01c-.046.003-.08.003-.101.003-.025 0-.058 0-.103-.003a1.201 1.201 0 0 1-.101-.01v-3.947zm1.536-.581c.095-.043.22-.077.376-.101.157-.024.336-.037.536-.037.178 0 .343.021.494.069.15.045.278.11.387.197.107.084.191.19.253.311a.93.93 0 0 1 .089.41c0 .162-.03.297-.09.404a.87.87 0 0 1-.23.27c-.095.07-.2.128-.312.172-.116.044-.23.085-.342.12a3.177 3.177 0 0 0-.246.083 1 1 0 0 0-.206.103.463.463 0 0 0-.144.144.376.376 0 0 0-.053.202c0 .147.053.264.158.354.106.09.287.134.541.134.146 0 .287-.014.422-.043.136-.031.246-.06.335-.088.038.117.067.235.086.356a2.037 2.037 0 0 1-.351.094c-.154.028-.31.043-.474.043-.387 0-.672-.08-.859-.238a.774.774 0 0 1-.278-.617.74.74 0 0 1 .073-.344.718.718 0 0 1 .191-.235c.079-.063.17-.116.27-.159.104-.042.207-.078.31-.112.097-.032.19-.067.282-.096.09-.033.174-.074.247-.122a.588.588 0 0 0 .173-.184.552.552 0 0 0 .067-.28.497.497 0 0 0-.218-.408c-.145-.111-.344-.165-.595-.165-.133 0-.271.013-.418.04a1.944 1.944 0 0 0-.356.096 1.858 1.858 0 0 1-.118-.373zm4.832.253a2.289 2.289 0 0 0-.358-.03c-.368 0-.66.107-.874.317-.213.21-.322.54-.322.99 0 .19.023.365.069.524.047.158.116.295.21.411a.94.94 0 0 0 .35.274c.14.063.303.096.49.096.145 0 .281-.01.41-.03a2.02 2.02 0 0 0 .316-.076c.016.041.031.098.046.17.013.07.021.133.021.187a2.074 2.074 0 0 1-.34.077 3.072 3.072 0 0 1-.454.034c-.253 0-.476-.042-.67-.13a1.336 1.336 0 0 1-.486-.35 1.558 1.558 0 0 1-.293-.53 2.093 2.093 0 0 1-.098-.657c0-.544.135-.957.404-1.24.272-.287.667-.428 1.187-.428.164 0 .311.013.446.037.132.024.251.056.354.094-.007.045-.02.103-.041.175a.795.795 0 0 1-.058.168 2.515 2.515 0 0 0-.309-.083zm1.197-.317c.022-.003.058-.006.105-.008.046-.004.077-.004.1-.004.025 0 .058 0 .103.004.043.002.079.005.102.008v1.607c0 .206.025.392.078.551.053.16.126.294.216.4a.873.873 0 0 0 .328.24c.127.055.264.08.41.08.219 0 .389-.074.506-.23.117-.152.174-.408.174-.76v-1.888a1.48 1.48 0 0 1 .107-.008c.045-.004.08-.004.098-.004.026 0 .061 0 .104.004.044.002.08.005.104.008v2.012c0 .396-.088.702-.26.92-.174.22-.443.329-.808.329-.134 0-.255-.018-.366-.055a1.21 1.21 0 0 1-.527-.36 1.483 1.483 0 0 1-.164-.228v1.974c-.023.004-.06.007-.105.01-.046.003-.079.003-.1.003-.026 0-.06 0-.104-.003a1.085 1.085 0 0 1-.101-.01v-4.592zm5.326.357a3.24 3.24 0 0 0-.33-.05 3.12 3.12 0 0 0-.364-.02c-.099 0-.2.007-.299.023a.886.886 0 0 0-.275.087.515.515 0 0 0-.203.19.615.615 0 0 0-.078.331c0 .217.087.383.257.5.17.116.411.176.725.176.095 0 .197-.006.303-.016.107-.01.193-.021.264-.028v-1.193zm0 1.556c-.07.006-.16.016-.268.027-.109.01-.237.015-.387.015-.191 0-.367-.023-.527-.068a1.245 1.245 0 0 1-.413-.203.928.928 0 0 1-.268-.33.995.995 0 0 1-.098-.448c0-.346.113-.594.334-.75.223-.154.528-.23.916-.23.187 0 .385.015.594.043.206.029.384.058.529.088v2.106c0 .377-.096.656-.293.832-.195.177-.496.266-.899.266-.167 0-.33-.013-.488-.034a2.513 2.513 0 0 1-.4-.086c0-.062.01-.128.023-.2a.556.556 0 0 1 .053-.16 2.744 2.744 0 0 0 .825.118c.254 0 .444-.064.574-.19.13-.128.193-.329.193-.604v-.192zm1.674-1.913c.026-.003.061-.006.107-.008.047-.004.08-.004.101-.004.024 0 .058 0 .102.004.045.002.078.005.103.008v2.836h.875a.586.586 0 0 1 .008.077.669.669 0 0 1 .004.093c0 .032 0 .067-.004.099a.671.671 0 0 1-.008.08h-.875v.263c0 .171.015.31.048.42.03.108.073.192.13.253.057.06.126.1.21.125.082.022.18.034.288.034.07 0 .137-.005.2-.017.06-.008.11-.018.148-.029.016.06.031.115.042.163.01.05.02.116.027.195a1.744 1.744 0 0 1-.425.05c-.374 0-.647-.099-.82-.293-.173-.197-.261-.49-.261-.88v-.284h-.543a1.121 1.121 0 0 1 0-.35h.543v-2.835zm2.106.744c0-.286.074-.495.222-.623a.857.857 0 0 1 .577-.19c.2 0 .375.024.527.069a2.31 2.31 0 0 1-.063.351 1.155 1.155 0 0 0-.555-.041.33.33 0 0 0-.255.206.615.615 0 0 0-.04.247v2.073h.863l.008.08a1.398 1.398 0 0 1-.008.27h-.863v.981h-.025l-.388-.382v-.6h-.544a.981.981 0 0 1-.008-.269.793.793 0 0 1 .008-.08h.544v-2.092zm3.536-.744c.024-.003.06-.006.106-.008.046-.004.078-.004.1-.004.025 0 .059 0 .103.004.044.002.079.005.102.008v1.6c0 .192.023.367.066.527.045.16.106.298.183.415.08.118.174.209.282.273a.697.697 0 0 0 .357.098.495.495 0 0 0 .44-.234c.102-.153.155-.39.155-.71v-1.97c.022-.002.059-.005.105-.007.045-.004.08-.004.1-.004.024 0 .06 0 .103.004.044.002.079.005.104.008v1.868c0 .138.017.269.052.391a.99.99 0 0 0 .153.32.712.712 0 0 0 .599.299c.222 0 .387-.08.497-.242.111-.162.166-.412.166-.749v-1.887c.025-.003.06-.006.107-.008.044-.004.079-.004.098-.004.026 0 .06 0 .104.004a1.5 1.5 0 0 1 .103.008v2.03c0 .395-.082.7-.247.912-.163.213-.432.319-.802.319a.969.969 0 0 1-.787-.382c-.06-.07-.11-.14-.157-.206a1.68 1.68 0 0 1-.122.24.718.718 0 0 1-.39.305 1.025 1.025 0 0 1-.313.043 1.06 1.06 0 0 1-.346-.053 1.034 1.034 0 0 1-.478-.34 1.226 1.226 0 0 1-.143-.232c0 .083-.003.177-.007.28-.003.105-.01.196-.018.27a1.247 1.247 0 0 1-.093.01c-.031.002-.062.002-.094.002-.03 0-.061 0-.09-.003a1.063 1.063 0 0 1-.098-.01v-3.185zm5.633 1.856c0 .2.034.365.098.497a.887.887 0 0 0 .564.483c.118.034.226.05.327.05.321 0 .552-.107.696-.323.144-.218.215-.516.215-.895a1.69 1.69 0 0 0-.103-.62 1.227 1.227 0 0 0-.274-.429 1.085 1.085 0 0 0-.4-.25 1.43 1.43 0 0 0-.477-.081 2.29 2.29 0 0 0-.342.022 1.593 1.593 0 0 0-.304.071v1.475zm-.41-1.762c.112-.042.255-.08.43-.115.175-.036.356-.053.544-.053.575 0 1.014.155 1.319.469.302.311.456.745.456 1.297 0 .277-.035.511-.097.707a1.358 1.358 0 0 1-.271.487c-.114.13-.253.225-.415.285-.161.06-.34.09-.536.09-.264 0-.477-.053-.64-.16a1.262 1.262 0 0 1-.38-.359v1.85a1.143 1.143 0 0 1-.105.01c-.046.003-.078.003-.1.003-.025 0-.059 0-.103-.003a1.17 1.17 0 0 1-.103-.01v-4.498zm3.766-.094c.024-.003.057-.006.096-.008.04-.004.08-.004.123-.004a2.164 2.164 0 0 1 .213.012v2.186h2.212v-2.186c.028-.003.06-.006.098-.008.038-.004.075-.004.113-.004a1.513 1.513 0 0 1 .218.012v4.491a2.322 2.322 0 0 1-.331.01.656.656 0 0 1-.098-.01v-1.911h-2.212v1.911a2.125 2.125 0 0 1-.431 0l-.001-4.491z" style="fill:#656968;fill-opacity:1;fill-rule:evenodd;stroke:none" transform="matrix(10 0 0 -10 -311.811 7476.08)"/><path d="M31.181 716.241c.1-.016.242-.028.424-.038.183-.008.315-.013.4-.013.1 0 .236.005.41.013.176.01.314.022.413.038v6.414c0 .831.104 1.566.313 2.208.206.64.495 1.172.86 1.597.367.424.802.744 1.31.96a4.131 4.131 0 0 0 1.634.327c.881 0 1.556-.31 2.022-.925.466-.616.698-1.63.698-3.044v-7.537c.1-.016.24-.028.424-.038.184-.008.317-.013.4-.013.1 0 .237.005.412.013.174.01.31.022.41.038v8.034c0 1.582-.344 2.81-1.035 3.683-.69.873-1.767 1.31-3.23 1.31a4.538 4.538 0 0 1-1.46-.225 4.497 4.497 0 0 1-1.186-.599 5.577 5.577 0 0 1-1.572-1.747v7.886a4.548 4.548 0 0 1-.425.038c-.182.007-.314.013-.398.013-.1 0-.237-.006-.413-.013a4.404 4.404 0 0 1-.41-.038v-18.342zm21.285 1.423c-.432-.083-.872-.15-1.322-.2-.45-.05-.932-.075-1.448-.075-.398 0-.798.029-1.198.088-.4.058-.765.173-1.097.349a2.077 2.077 0 0 0-.811.762c-.21.331-.312.773-.312 1.322 0 .864.34 1.53 1.023 1.995.683.467 1.647.7 2.896.7.38 0 .785-.022 1.21-.063.423-.04.777-.08 1.059-.112v-4.766zm0 6.213c-.282.033-.64.072-1.072.112-.434.043-.95.061-1.547.061a7.662 7.662 0 0 1-2.11-.272c-.64-.184-1.189-.452-1.646-.812a3.768 3.768 0 0 1-1.073-1.322c-.257-.524-.387-1.119-.387-1.784 0-1.381.444-2.38 1.335-2.995.89-.614 2.109-.923 3.657-.923.748 0 1.537.058 2.37.175.832.117 1.538.232 2.122.349v8.408c0 1.516-.394 2.625-1.174 3.333-.783.707-1.98 1.06-3.594 1.06a13.92 13.92 0 0 1-1.946-.136 10.948 10.948 0 0 1-1.597-.337c0-.249.029-.515.088-.8.057-.282.128-.498.212-.648.432.134.924.245 1.472.337.549.092 1.156.136 1.822.136 1.014 0 1.778-.254 2.295-.76.516-.508.773-1.309.773-2.409v-.773zm9.06-7.636a4.26 4.26 0 0 1 1.57 0l5.066 12.726a2.855 2.855 0 0 1-.399.037 7.373 7.373 0 0 1-.898 0 2.898 2.898 0 0 1-.399-.037l-4.093-11.005-4.018 11.005a3.22 3.22 0 0 1-.45.037 9.897 9.897 0 0 1-1.021 0 3.104 3.104 0 0 1-.424-.037l5.065-12.726zm19.114 6.114c.015.166.03.366.038.6.007.231.012.424.012.573a7.6 7.6 0 0 1-.337 2.308 5.122 5.122 0 0 1-.998 1.822 4.53 4.53 0 0 1-1.635 1.185c-.649.283-1.39.425-2.221.425-.998 0-1.855-.174-2.57-.524a4.758 4.758 0 0 1-1.759-1.448 6.448 6.448 0 0 1-1.025-2.145 9.87 9.87 0 0 1-.335-2.622c0-.964.12-1.851.361-2.657a5.53 5.53 0 0 1 1.123-2.085c.507-.58 1.156-1.033 1.946-1.36.79-.322 1.736-.485 2.832-.485.766 0 1.474.058 2.121.175.65.117 1.215.283 1.699.499-.018.214-.05.458-.101.725-.05.265-.117.488-.2.672a11.342 11.342 0 0 0-1.585-.437 8.9 8.9 0 0 0-1.759-.162c-1.562 0-2.736.399-3.518 1.198-.782.799-1.174 2.047-1.174 3.743h9.085zm-9.033 1.372c.132 1.297.523 2.304 1.173 3.02.648.715 1.556 1.072 2.719 1.072.631 0 1.174-.116 1.622-.348a3.197 3.197 0 0 0 1.098-.91c.282-.374.49-.81.624-1.311a5.85 5.85 0 0 0 .2-1.523h-7.436zm12.7-4.915c0-.583.083-1.053.25-1.411.166-.358.387-.64.661-.846.275-.21.588-.352.936-.426.35-.075.698-.113 1.048-.113.25 0 .52.018.812.05.29.035.553.092.786.175a13.14 13.14 0 0 1-.075.65c-.035.232-.091.45-.174.65a4.128 4.128 0 0 0-.5-.09 3.777 3.777 0 0 0-1.073 0c-.182.026-.35.092-.5.2-.148.108-.274.282-.374.524-.099.24-.149.579-.149 1.01v15.398c-.1.015-.241.028-.424.037-.184.007-.317.014-.4.014-.1 0-.237-.006-.412-.014a4.45 4.45 0 0 1-.411-.037v-15.771zM90.953 715.969a37.903 37.903 0 0 1 2.545-.237 40.014 40.014 0 0 1 2.27-.064c.999 0 1.952.076 2.859.224.906.15 1.705.426 2.395.826a4.503 4.503 0 0 1 1.646 1.632c.408.69.611 1.577.611 2.658 0 .8-.133 1.481-.4 2.047-.266.565-.599 1.027-.997 1.384-.4.358-.831.629-1.297.81-.466.184-.89.302-1.273.351.35.05.69.188 1.022.411a3.956 3.956 0 0 1 1.536 2.047c.156.456.236.953.236 1.485 0 .899-.174 1.646-.523 2.245a3.95 3.95 0 0 1-1.436 1.436c-.607.357-1.319.61-2.133.76-.815.149-1.679.226-2.595.226-1.048 0-1.921-.025-2.621-.077a22.563 22.563 0 0 1-1.845-.199v-17.965zm3.617 7.933h1.498c.515 0 .986-.04 1.41-.123.424-.084.79-.23 1.098-.438.307-.209.544-.481.71-.822.167-.342.25-.77.25-1.285 0-.55-.108-.996-.323-1.336a2.366 2.366 0 0 0-.824-.798 3.262 3.262 0 0 0-1.074-.387 6.394 6.394 0 0 0-1.098-.101c-.25 0-.529.01-.836.025a8.568 8.568 0 0 0-.81.076v5.189zm0 2.746v4.791c.316.05.707.075 1.172.075.333 0 .672-.03 1.012-.087.34-.058.649-.175.923-.35.274-.173.499-.416.674-.724.174-.308.262-.702.262-1.185 0-.499-.075-.91-.224-1.235a1.92 1.92 0 0 0-.625-.773 2.412 2.412 0 0 0-.936-.4 5.641 5.641 0 0 0-1.16-.112H94.57zm11.33-2.819c0-1.217.1-2.327.298-3.331.2-1.009.558-1.87 1.075-2.583.514-.717 1.205-1.27 2.07-1.661.864-.39 1.964-.586 3.294-.586s2.43.197 3.295.586c.864.39 1.554.944 2.069 1.66.517.714.875 1.575 1.074 2.584.2 1.004.298 2.114.298 3.331v10.08a9.596 9.596 0 0 1-.935.101 17.406 17.406 0 0 1-1.784 0 10.847 10.847 0 0 1-.947-.1v-9.308c0-1.016-.038-1.885-.113-2.608-.074-.723-.224-1.323-.449-1.796-.224-.475-.538-.825-.936-1.05-.399-.223-.925-.336-1.572-.336-.648 0-1.177.113-1.584.336-.41.225-.725.575-.95 1.05-.223.473-.374 1.073-.448 1.796a25.715 25.715 0 0 0-.113 2.608v9.308a9.663 9.663 0 0 1-.922.1 16.866 16.866 0 0 1-1.798 0 9.612 9.612 0 0 1-.921-.1v-10.081zm21.634-.126c.299-.117.59-.238.873-.362.283-.124.537-.28.762-.462a2.2 2.2 0 0 0 .55-.673c.14-.266.211-.599.211-.998 0-.798-.299-1.395-.898-1.784-.6-.392-1.423-.587-2.47-.587-.7 0-1.357.071-1.972.213-.617.14-1.274.352-1.971.636a19.732 19.732 0 0 1-.475-1.585 10.437 10.437 0 0 1-.274-1.51c.416-.166.815-.308 1.196-.423a10.776 10.776 0 0 1 2.395-.45c.435-.034.926-.05 1.475-.05 1.113 0 2.1.143 2.957.424.855.282 1.575.675 2.158 1.174a4.982 4.982 0 0 1 1.335 1.796c.308.698.463 1.471.463 2.32 0 .814-.101 1.502-.3 2.06a4.18 4.18 0 0 1-.837 1.421 4.62 4.62 0 0 1-1.31.986c-.516.267-1.09.525-1.72.773l-1.5.574c-.248.1-.498.204-.748.313-.25.108-.472.24-.673.4-.199.157-.358.348-.474.573-.117.225-.175.503-.175.837 0 .415.075.75.224 1.01.15.258.34.453.575.586.232.134.494.224.786.274.29.05.576.075.86.075.465 0 .883-.02 1.248-.063.367-.04.694-.095.986-.16.291-.068.566-.15.824-.252.256-.098.51-.2.76-.298.433.932.699 1.88.799 2.844-.815.282-1.595.5-2.332.65-.742.148-1.535.225-2.385.225-.931 0-1.77-.114-2.52-.338-.747-.224-1.388-.557-1.92-.997a4.468 4.468 0 0 1-1.236-1.635c-.29-.65-.437-1.398-.437-2.247 0-.698.088-1.297.263-1.797a3.8 3.8 0 0 1 .735-1.284 4.477 4.477 0 0 1 1.147-.924c.45-.258.958-.494 1.522-.71l1.523-.575z" style="fill:#2056ae;fill-opacity:1;fill-rule:evenodd;stroke:none" transform="matrix(10 0 0 -10 -311.811 7476.08)"/><path d="M157.931 731.78a2.883 2.883 0 0 0-2.876-2.885 2.882 2.882 0 0 0-2.878 2.885 2.873 2.873 0 0 0 2.878 2.87 2.873 2.873 0 0 0 2.876-2.87M164.41 725.298a2.878 2.878 0 1 0-5.752.004 2.878 2.878 0 0 0 5.752-.004M151.457 738.252a2.88 2.88 0 1 0-5.758 0 2.888 2.888 0 0 0 2.883 2.883 2.886 2.886 0 0 0 2.875-2.883M144.979 744.728a2.883 2.883 0 0 0-2.877-2.878 2.88 2.88 0 0 0-2.877 2.878 2.877 2.877 0 1 0 5.754 0M144.979 705.865a2.876 2.876 0 0 0-2.877-2.873 2.874 2.874 0 0 0-2.877 2.873 2.88 2.88 0 0 0 2.877 2.883 2.881 2.881 0 0 0 2.877-2.883M151.457 712.348a2.876 2.876 0 0 0-2.875-2.88 2.877 2.877 0 0 0-2.883 2.88c0 1.585 1.29 2.88 2.883 2.88a2.882 2.882 0 0 0 2.875-2.88M157.931 718.82a2.875 2.875 0 0 0-2.876-2.875 2.875 2.875 0 0 0-2.878 2.875 2.878 2.878 0 1 0 5.754 0" style="fill:#656968;fill-opacity:1;fill-rule:evenodd;stroke:none" transform="matrix(10 0 0 -10 -311.811 7476.08)"/></svg>