<?xml version="1.0" encoding="utf-8"?>
<!-- Generator: Adobe Illustrator 14.0.0, SVG Export Plug-In . SVG Version: 6.00 Build 43363)  -->
<!DOCTYPE svg PUBLIC "-//W3C//DTD SVG 1.1//EN" "http://www.w3.org/Graphics/SVG/1.1/DTD/svg11.dtd">
<svg version="1.1" id="Ebene_1" xmlns="http://www.w3.org/2000/svg" xmlns:xlink="http://www.w3.org/1999/xlink" x="0px" y="0px"
	 width="1000px" height="500px" viewBox="0 0 1000 500" enable-background="new 0 0 1000 500" xml:space="preserve">
<g>
	<defs>
		<rect id="SVGID_1_" x="59.534" y="71.484" width="883.448" height="372.053"/>
	</defs>
	<clipPath id="SVGID_2_">
		<use xlink:href="#SVGID_1_"  overflow="visible"/>
	</clipPath>
	<path clip-path="url(#SVGID_2_)" fill="#7B7B7A" d="M880.472,141.746c-0.802-1.102-2.506-1.347-3.608-0.545
		c-0.546,0.412-0.913,1.013-1.013,1.704c-0.111,0.679,0.066,1.358,0.479,1.915c52.567,71.22,71.642,122.808,56.688,153.363
		c-10.378,21.168-37.502,32.447-80.605,33.482l-39.663-0.199v-51.01H213.976v66.531h598.772v-10.367l39.674,0.211h0.022h0.011
		c45.253-1.09,73.914-13.34,85.204-36.377C953.516,268.039,934.285,214.646,880.472,141.746"/>
</g>
<rect x="59.712" y="280.377" fill="#DADADA" width="38.805" height="66.531"/>
<rect x="135.987" y="280.377" fill="#B2B3B4" width="38.817" height="66.531"/>
<g>
	<defs>
		<polygon id="SVGID_3_" points="32.309,461.553 967.691,461.553 967.691,38.447 45.402,18.261 		"/>
	</defs>
	<clipPath id="SVGID_4_">
		<use xlink:href="#SVGID_3_"  overflow="visible"/>
	</clipPath>
	<path clip-path="url(#SVGID_4_)" fill="#FFFFFF" d="M363.664,292.336c-1.659,0-3.074,1.402-3.074,3.072
		c0,1.727,1.415,3.074,3.074,3.074c1.726,0,3.085-1.348,3.085-3.074C366.749,293.738,365.389,292.336,363.664,292.336"/>
	<path clip-path="url(#SVGID_4_)" fill="#FFFFFF" d="M271.388,312.301c-0.947-0.879-1.682-1.246-3.608-1.77
		c3.241-1.561,4.956-4.434,4.956-8.285c0-2.461-0.88-4.811-2.349-6.203c-1.66-1.58-3.541-2.104-7.75-2.104h-8.352
		c-0.567,0-0.69,0.111-0.69,0.746v33.359c0,0.58,0.123,0.668,0.69,0.668h7.394c3.129,0,3.552,0,5.234-0.301
		c4.376-0.779,7.182-4.441,7.182-9.285C274.094,316.365,273.103,313.859,271.388,312.301 M257.77,297.336h4.699
		c4.176,0,5.734,1.457,5.734,5.434c0,4.52-2.082,6.547-6.725,6.547h-3.708V297.336z M262.78,325.328h-5.01v-12.66h4.743
		c4.655,0,7.093,2.182,7.093,6.303C269.606,323.258,267.313,325.328,262.78,325.328"/>
	<path clip-path="url(#SVGID_4_)" fill="#FFFFFF" d="M295.206,303.693c-6.091,0-9.999,5.01-9.999,12.883s4.109,12.828,10.533,12.828
		c1.883,0,3.687-0.369,5.523-1.104c1.727-0.723,2.562-1.236,2.562-1.703c0-0.123-0.067-0.168-0.111-0.379l-0.936-1.98
		c-0.055-0.156-0.211-0.258-0.356-0.258c-0.122,0-0.322,0.045-0.479,0.156c-2.149,1.246-4.064,1.814-5.846,1.814
		c-4.109,0-6.447-3.018-6.725-8.551h14.553c0.479,0,0.58-0.189,0.58-0.936v-0.045v-1.469
		C304.404,307.813,301.008,303.693,295.206,303.693 M289.427,314.283c0.222-4.967,2.138-7.506,5.534-7.506
		c3.385,0,5.311,2.66,5.411,7.506H289.427z"/>
	<path clip-path="url(#SVGID_4_)" fill="#FFFFFF" d="M328.533,324.873c-0.056-0.213-0.156-0.313-0.312-0.313
		c-0.111,0-0.256,0.045-0.378,0.1c-2.083,0.936-3.274,1.303-4.521,1.303c-2.449,0-3.085-0.879-3.085-4.164v-14.287h6.793
		c0.412,0,0.568-0.109,0.667-0.479l0.569-1.982c0.055-0.199,0.055-0.266,0.055-0.311c0-0.256-0.156-0.367-0.479-0.367h-7.606v-7.816
		c0-0.469-0.055-0.58-0.356-0.58c-0.066,0-0.066,0.057-0.111,0.057l-0.156,0.055l-2.661,0.725c-0.301,0.111-0.523,0.322-0.523,0.635
		v6.926h-3.586c-0.522,0-0.635,0.111-0.635,0.578v1.982c0,0.512,0.112,0.578,0.635,0.578h3.586v14.332
		c0,5.367,1.67,7.404,6.202,7.404c2.049,0,4.176-0.512,6.158-1.504c0.323-0.223,0.412-0.322,0.412-0.533v-0.102l-0.044-0.156
		L328.533,324.873z"/>
	<path clip-path="url(#SVGID_4_)" fill="#FFFFFF" d="M351.047,304.16c-0.667-0.301-1.458-0.467-2.171-0.467
		c-2.005,0-3.14,0.734-5.757,3.563l-0.567,0.656c-0.156-1.033-0.312-1.402-0.635-2.236c-0.456-1.248-0.979-1.982-1.303-1.982
		c-0.1,0-0.3,0.057-0.412,0.1l-2.083,1.359c-0.211,0.111-0.311,0.266-0.311,0.422c0,0.168,0.044,0.258,0.211,0.514
		c1.036,1.938,1.248,2.828,1.248,6.836v15.232c0,0.469,0.056,0.568,0.579,0.568h2.649c0.469,0,0.569-0.045,0.569-0.568v-16.803
		c2.516-2.961,3.718-3.852,5.021-3.852c0.467,0,0.668,0,1.559,0.322c0.044,0.045,0.1,0.045,0.144,0.045
		c0.123,0,0.224-0.045,0.268-0.201l1.258-2.773c0.045-0.154,0.1-0.311,0.1-0.367C351.415,304.385,351.26,304.26,351.047,304.16"/>
	<path clip-path="url(#SVGID_4_)" fill="#FFFFFF" d="M365.534,304.373h-0.145h-7.304h-0.211c-0.245,0-0.356,0.211-0.356,0.578v1.982
		c0,0.412,0.111,0.578,0.356,0.578h0.211h4.02v20.645v0.201c0,0.256,0.201,0.367,0.557,0.367h2.728c0.468,0,0.568-0.111,0.568-0.568
		v-23.205C365.958,304.584,365.802,304.373,365.534,304.373"/>
	<path clip-path="url(#SVGID_4_)" fill="#FFFFFF" d="M388.539,303.693c-6.113,0-10.021,5.01-10.021,12.883
		s4.131,12.828,10.533,12.828c1.882,0,3.708-0.369,5.534-1.104c1.714-0.723,2.55-1.236,2.55-1.703c0-0.123-0.056-0.168-0.1-0.379
		l-0.936-1.98c-0.056-0.156-0.211-0.258-0.367-0.258c-0.111,0-0.313,0.045-0.479,0.156c-2.127,1.246-4.054,1.814-5.824,1.814
		c-4.131,0-6.48-3.018-6.736-8.551h14.542c0.479,0,0.589-0.189,0.589-0.936v-0.045v-1.469
		C397.714,307.813,394.318,303.693,388.539,303.693 M382.749,314.283c0.2-4.967,2.138-7.506,5.534-7.506
		c3.385,0,5.312,2.66,5.412,7.506H382.749z"/>
	<path clip-path="url(#SVGID_4_)" fill="#FFFFFF" d="M419.962,303.705c-2.227,0-4.053,0.668-6.726,2.438l0.056-13.563
		c0-0.412-0.1-0.566-0.3-0.566h-0.067h-0.2l-0.1,0.055l-2.617,0.623c-0.423,0.111-0.579,0.313-0.579,0.635v28.473
		c0,2.395-0.457,4.008-1.403,5.311c-0.1,0.156-0.2,0.258-0.2,0.367c0,0.045,0.1,0.156,0.2,0.201l2.149,1.414
		c0.189,0.09,0.3,0.145,0.413,0.145c0.356,0,1.091-0.979,1.614-2.293c2.138,1.781,3.963,2.461,6.525,2.461
		c6.257,0,9.22-4.633,9.22-14.498C427.946,307.512,425.24,303.705,419.962,303.705 M418.559,325.951
		c-2.082,0-3.686-0.568-5.323-1.926v-14.486c2.773-1.871,4.221-2.449,6.013-2.449c3.229,0,4.576,2.494,4.576,8.439
		C423.826,322.734,422.167,325.951,418.559,325.951"/>
	<path clip-path="url(#SVGID_4_)" fill="#FFFFFF" d="M448.802,315.74l-3.541-1.725c-1.927-0.936-2.762-2.07-2.762-3.697
		c0-2.094,1.403-3.33,3.853-3.396c1.358,0,2.918,0.48,4.744,1.303c0.156,0.111,0.323,0.168,0.379,0.168
		c0.2,0,0.356-0.168,0.457-0.367l0.891-1.883c0.111-0.156,0.111-0.211,0.111-0.367c0-0.201-0.156-0.412-0.579-0.623
		c-1.827-0.924-4.021-1.447-5.957-1.447c-4.465,0-7.706,2.916-7.706,7.025c0,1.982,0.724,3.496,2.338,4.811
		c1.203,0.99,2.083,1.504,5.646,3.129c2.395,1.146,3.229,2.137,3.229,3.797c0,2.238-1.57,3.707-4.02,3.707
		c-1.726,0-3.953-0.635-6.158-1.725c-0.145-0.057-0.312-0.1-0.356-0.1c-0.156,0-0.313,0.1-0.356,0.266l-0.936,2.184l-0.066,0.045
		v0.166c0,0.201,0.066,0.313,0.312,0.467c2.027,1.191,4.91,1.939,7.45,1.939c4.854,0,8.095-2.875,8.095-7.205
		C453.868,319.182,452.554,317.578,448.802,315.74"/>
	<path clip-path="url(#SVGID_4_)" fill="#FFFFFF" d="M481.828,303.594c-0.122-0.045-0.268-0.156-0.368-0.156
		c-0.322,0-0.891,0.936-1.458,2.348c-2.305-1.568-3.864-2.08-6.158-2.08c-6.168,0-9.599,4.688-9.599,13.139
		c0,6.926,3.018,11.201,7.872,11.201c2.506,0,4.688-0.834,7.038-2.762v0.514c0,0.166,0.056,0.846,0.101,2.094
		c0,0.934,0.055,1.77,0.055,2.559c0,4.01-1.558,5.568-5.412,5.568c-1.893,0-4.398-0.723-6.636-1.871
		c-0.1-0.1-0.323-0.154-0.368-0.154c-0.156,0-0.256,0.109-0.367,0.311l-0.88,2.037c-0.045,0.102-0.111,0.156-0.111,0.156v0.146
		c0,0.266,0.066,0.422,0.322,0.533c2.238,1.348,5.412,2.238,8.229,2.238c5.913,0,9.03-3.129,9.03-9.02
		c0-0.734-0.056-1.715-0.1-2.873l-0.156-2.916c-0.1-1.604-0.1-2.861-0.1-5.68v-7.816c0-2.25,0.356-3.707,1.292-5.168
		c0.212-0.367,0.267-0.512,0.267-0.633c0-0.146-0.055-0.258-0.155-0.313L481.828,303.594z M478.955,322.154
		c-2.605,1.826-4.176,2.451-6.046,2.451c-3.207,0-4.554-2.607-4.554-8.754c0-5.744,2.038-8.818,5.735-8.818
		c1.537,0,2.828,0.369,4.866,1.414V322.154z"/>
	<path clip-path="url(#SVGID_4_)" fill="#FFFFFF" d="M505.033,303.693c-6.113,0-10.01,5.01-10.01,12.883s4.098,12.828,10.522,12.828
		c1.882,0,3.707-0.369,5.534-1.104c1.714-0.723,2.549-1.236,2.549-1.703c0-0.123-0.055-0.168-0.111-0.379l-0.935-1.98
		c-0.045-0.156-0.212-0.258-0.367-0.258c-0.102,0-0.313,0.045-0.469,0.156c-2.138,1.246-4.063,1.814-5.834,1.814
		c-4.12,0-6.47-3.018-6.726-8.551h14.543c0.478,0,0.567-0.189,0.567-0.936v-0.045v-1.469
		C514.208,307.813,510.813,303.693,505.033,303.693 M499.243,314.283c0.2-4.967,2.127-7.506,5.522-7.506
		c3.386,0,5.313,2.66,5.423,7.506H499.243z"/>
	<path clip-path="url(#SVGID_4_)" fill="#FFFFFF" d="M534.219,315.74l-3.542-1.725c-1.926-0.936-2.772-2.07-2.772-3.697
		c0-2.094,1.415-3.33,3.864-3.396c1.357,0,2.917,0.48,4.743,1.303c0.156,0.111,0.312,0.168,0.379,0.168
		c0.189,0,0.346-0.168,0.456-0.367l0.88-1.883c0.111-0.156,0.111-0.211,0.111-0.367c0-0.201-0.156-0.412-0.579-0.623
		c-1.826-0.924-4.009-1.447-5.935-1.447c-4.488,0-7.728,2.916-7.728,7.025c0,1.982,0.734,3.496,2.349,4.811
		c1.203,0.99,2.083,1.504,5.646,3.129c2.382,1.146,3.218,2.137,3.218,3.797c0,2.238-1.56,3.707-4.009,3.707
		c-1.726,0-3.965-0.635-6.157-1.725c-0.146-0.057-0.313-0.1-0.367-0.1c-0.156,0-0.313,0.1-0.356,0.266l-0.947,2.184l-0.056,0.045
		v0.166c0,0.201,0.056,0.313,0.323,0.467c2.026,1.191,4.899,1.939,7.449,1.939c4.854,0,8.095-2.875,8.095-7.205
		C539.284,319.182,537.971,317.578,534.219,315.74"/>
	<path clip-path="url(#SVGID_4_)" fill="#FFFFFF" d="M559.661,303.693c-6.112,0-10.01,5.01-10.01,12.883s4.119,12.828,10.522,12.828
		c1.882,0,3.696-0.369,5.534-1.104c1.726-0.723,2.55-1.236,2.55-1.703c0-0.123-0.045-0.168-0.101-0.379l-0.946-1.98
		c-0.044-0.156-0.2-0.258-0.356-0.258c-0.111,0-0.313,0.045-0.479,0.156c-2.127,1.246-4.054,1.814-5.835,1.814
		c-4.12,0-6.47-3.018-6.726-8.551h14.554c0.479,0,0.567-0.189,0.567-0.936v-0.045v-1.469
		C568.848,307.813,565.44,303.693,559.661,303.693 M553.871,314.283c0.2-4.967,2.148-7.506,5.534-7.506
		c3.374,0,5.312,2.66,5.411,7.506H553.871z"/>
	<path clip-path="url(#SVGID_4_)" fill="#FFFFFF" d="M589.425,325.695c-0.055-0.199-0.155-0.299-0.367-0.299
		c-0.056,0-0.2,0.043-0.367,0.1c-0.824,0.422-1.569,0.623-2.238,0.623c-1.503,0-2.148-0.947-2.182-3.295v-1.359v-1.926v-26.947
		c0-0.469-0.112-0.578-0.368-0.578h-0.212c-0.045,0.055-0.1,0.055-0.1,0.055l-2.629,0.635c-0.289,0.045-0.557,0.311-0.557,0.611
		v26.135v2.438c0.046,5.635,1.314,7.361,5.435,7.361c1.347,0,2.694-0.324,3.964-0.836c0.256-0.145,0.356-0.256,0.356-0.412
		c0-0.055-0.066-0.211-0.101-0.422L589.425,325.695z"/>
	<path clip-path="url(#SVGID_4_)" fill="#FFFFFF" d="M608.31,325.695c-0.066-0.199-0.166-0.299-0.378-0.299
		c-0.044,0-0.212,0.043-0.367,0.1c-0.835,0.422-1.559,0.623-2.238,0.623c-1.515,0-2.127-0.947-2.183-3.295v-1.359v-1.926v-26.947
		c0-0.469-0.111-0.578-0.379-0.578h-0.189c-0.078,0.055-0.122,0.055-0.122,0.055l-2.606,0.635c-0.311,0.045-0.567,0.311-0.567,0.611
		v26.135v2.438c0.057,5.635,1.304,7.361,5.423,7.361c1.358,0,2.706-0.324,3.953-0.836c0.267-0.145,0.367-0.256,0.367-0.412
		c0-0.055-0.044-0.211-0.101-0.422L608.31,325.695z"/>
	<path clip-path="url(#SVGID_4_)" fill="#FFFFFF" d="M626.594,315.74l-3.541-1.725c-1.927-0.936-2.762-2.07-2.762-3.697
		c0-2.094,1.403-3.33,3.853-3.396c1.358,0,2.918,0.48,4.743,1.303c0.179,0.111,0.323,0.168,0.38,0.168
		c0.2,0,0.367-0.168,0.467-0.367l0.88-1.883c0.111-0.156,0.111-0.211,0.111-0.367c0-0.201-0.156-0.412-0.579-0.623
		c-1.826-0.924-4.02-1.447-5.945-1.447c-4.488,0-7.729,2.916-7.729,7.025c0,1.982,0.746,3.496,2.35,4.811
		c1.214,0.99,2.094,1.504,5.646,3.129c2.395,1.146,3.229,2.137,3.229,3.797c0,2.238-1.57,3.707-4.02,3.707
		c-1.715,0-3.965-0.635-6.158-1.725c-0.145-0.057-0.301-0.1-0.355-0.1c-0.156,0-0.313,0.1-0.368,0.266l-0.925,2.184l-0.065,0.045
		v0.166c0,0.201,0.065,0.313,0.312,0.467c2.037,1.191,4.91,1.939,7.46,1.939c4.854,0,8.084-2.875,8.084-7.205
		C631.66,319.182,630.347,317.578,626.594,315.74"/>
	<path clip-path="url(#SVGID_4_)" fill="#FFFFFF" d="M652.36,303.705c-6.37,0-10.333,5.1-10.333,13.395
		c0,7.762,3.606,12.305,9.599,12.305c2.393,0,4.643-0.736,6.824-2.139c0.735-0.523,1.104-0.891,1.104-1.135
		c0-0.057-0.045-0.18-0.101-0.324c0-0.1-0.056-0.156-0.056-0.199l-0.791-1.938c-0.089-0.258-0.156-0.313-0.367-0.313
		c-0.045,0-0.2,0-0.301,0.1l-1.157,0.836c-1.549,1.09-3.219,1.658-4.845,1.658c-3.752,0-5.634-3.117-5.634-9.42
		c0-6.268,2.082-9.441,6.157-9.441c1.671,0,2.918,0.533,5.212,2.283c0.155,0.121,0.267,0.166,0.367,0.166
		c0.155,0,0.312-0.111,0.411-0.313l1.147-1.98c0-0.102,0.056-0.213,0.056-0.324c0-0.256-0.2-0.512-0.523-0.824
		C657.26,304.572,654.798,303.705,652.36,303.705"/>
	<path clip-path="url(#SVGID_4_)" fill="#FFFFFF" d="M681.768,303.705c-2.962,0-5.066,0.867-7.783,3.328V292.58
		c0-0.412-0.089-0.566-0.301-0.566h-0.044h-0.168l-0.145,0.055l-2.684,0.623c-0.301,0.111-0.513,0.313-0.513,0.635v34.818
		c0,0.48,0.123,0.58,0.635,0.58h2.65c0.479,0,0.568-0.1,0.568-0.58v-17.982c2.816-2.293,4.654-3.184,6.692-3.184
		c2.594,0,3.484,1.102,3.484,4.264v16.902v0.213c0,0.268,0.156,0.367,0.568,0.367h2.672c0.457,0,0.568-0.1,0.568-0.58v-16.836
		C687.97,305.73,686.3,303.705,681.768,303.705"/>
	<path clip-path="url(#SVGID_4_)" fill="#FFFFFF" d="M716.954,320.484v-9.543c0-4.854-2.562-7.148-7.973-7.148
		c-2.25,0-4.275,0.424-6.258,1.203c-1.402,0.523-1.826,0.836-1.826,1.203c0,0.109,0,0.156,0.101,0.355l0.734,2.037
		c0.056,0.168,0.2,0.268,0.356,0.268c0.066,0,0.223-0.045,0.367-0.1c2.461-1.104,4.075-1.504,6.002-1.504
		c3.396,0,4.698,1.227,4.698,4.521v1.67c-9.03,0.156-13.417,3.063-13.417,8.854c0,4.24,2.616,6.947,6.748,6.947
		c2.75,0,4.888-0.936,7.249-3.186c0.513,1.672,1.403,3.186,1.859,3.186c0.111,0,0.256-0.057,0.424-0.156l2.227-1.357
		c0.122-0.057,0.178-0.213,0.178-0.324c0-0.043,0-0.145-0.101-0.244C717.222,325.229,716.954,324.037,716.954,320.484
		 M713.156,323.146c-2.249,2.025-4.02,2.916-5.845,2.916c-2.127,0-3.652-1.67-3.652-4.064c0-3.551,3.129-5.32,9.497-5.377V323.146z"
		/>
	<path clip-path="url(#SVGID_4_)" fill="#FFFFFF" d="M738.846,292.023c-2.071,0-3.697,0.568-4.944,1.727
		c-1.626,1.502-2.049,2.906-2.049,6.658v3.965h-3.385h-0.201c-0.267,0-0.367,0.199-0.367,0.566v1.982c0,0.424,0.101,0.59,0.367,0.59
		h0.201h3.385v20.645c0,0.469,0.066,0.568,0.59,0.568h2.65c0.423,0,0.568-0.1,0.568-0.355v-0.213v-20.645h6.47
		c0.322,0,0.578-0.166,0.689-0.422l0.636-2.049c0.032-0.146,0.089-0.189,0.089-0.301c0-0.268-0.156-0.367-0.568-0.367h-7.315v-3.908
		c0-4.064,0.634-5.213,3.084-5.213c1.046,0,2.506,0.424,3.853,1.092c0.167,0.102,0.379,0.145,0.479,0.145
		c0.156,0,0.313-0.145,0.412-0.301l0.847-2.082c0.056-0.154,0.101-0.211,0.101-0.311c0-0.168-0.101-0.268-0.224-0.367
		C743.232,292.637,740.771,292.023,738.846,292.023"/>
	<path clip-path="url(#SVGID_4_)" fill="#FFFFFF" d="M768.175,326.953l-0.646-2.092c-0.045-0.201-0.146-0.301-0.302-0.301
		c-0.122,0-0.267,0.045-0.378,0.1c-2.082,0.936-3.273,1.303-4.543,1.303c-2.438,0-3.062-0.879-3.062-4.164v-14.287h6.781
		c0.423,0,0.567-0.109,0.667-0.479l0.58-1.982c0.056-0.199,0.056-0.266,0.056-0.311c0-0.268-0.167-0.367-0.479-0.367h-7.604v-7.816
		c0-0.469-0.045-0.568-0.367-0.568c-0.057,0-0.057,0.055-0.101,0.055l-0.167,0.045l-2.65,0.725
		c-0.323,0.111-0.523,0.322-0.523,0.635v6.926h-3.597c-0.523,0-0.623,0.1-0.623,0.566v1.994c0,0.512,0.1,0.578,0.623,0.578h3.597
		v14.332c0,5.367,1.659,7.404,6.214,7.404c2.015,0,4.164-0.512,6.146-1.514c0.3-0.213,0.411-0.313,0.411-0.523v-0.102
		L768.175,326.953z"/>
	<polygon clip-path="url(#SVGID_4_)" fill="#0A4796" points="425.018,126.335 423.993,126.335 423.993,250.378 381.958,250.378 
		381.958,71.496 437.834,71.496 484.723,194.771 485.235,194.771 485.235,71.496 527.281,71.496 527.281,250.378 470.894,250.378 	
		"/>
	<polygon clip-path="url(#SVGID_4_)" fill="#0A4796" points="558.537,71.484 668.238,71.484 668.238,106.86 605.704,106.86 
		605.704,141.201 665.166,141.201 665.166,176.565 605.704,176.565 605.704,215.014 671.568,215.014 671.568,250.391 
		558.537,250.391 	"/>
	<path clip-path="url(#SVGID_4_)" fill="#0A4796" d="M696.165,71.496h67.667c37.937,0,56.388,15.634,56.388,42.28
		c0,28.706-15.633,39.217-33.572,43.582v0.512c22.293,3.841,36.39,18.194,36.39,42.28c0,35.375-24.085,50.229-58.181,50.229h-68.691
		V71.496z M751.795,142.993c11.781,0,22.281-4.61,22.281-19.731c0-13.328-8.195-19.475-19.475-19.475h-12.293v39.206H751.795z
		 M755.125,217.063c13.841,0,21.779-6.914,21.779-20.499c0-13.328-7.182-21.279-19.73-21.279h-14.865v41.778H755.125z"/>
	<polygon clip-path="url(#SVGID_4_)" fill="#0A4796" points="68.598,416.779 68.386,416.779 68.386,442.893 59.534,442.893 
		59.534,405.223 71.304,405.223 81.17,431.178 81.281,431.178 81.281,405.223 90.122,405.223 90.122,442.893 78.252,442.893 	"/>
	<rect x="97.516" y="405.232" clip-path="url(#SVGID_4_)" fill="#0A4796" width="10.155" height="37.66"/>
	<polygon clip-path="url(#SVGID_4_)" fill="#0A4796" points="115.264,405.232 138.359,405.232 138.359,412.67 125.197,412.67 
		125.197,419.91 137.702,419.91 137.702,427.348 125.197,427.348 125.197,435.441 139.06,435.441 139.06,442.893 115.264,442.893 	
		"/>
	<path clip-path="url(#SVGID_4_)" fill="#0A4796" d="M145.04,405.232h14.52c11.057,0,17.258,7.383,17.258,18.619
		c0,13.049-6.903,19.041-18.829,19.041h-12.95V405.232z M155.183,435.666h2.216c5.824,0,8.753-4.154,8.753-11.438
		c0-9.664-4.644-11.559-10.155-11.559h-0.813V435.666z"/>
	<polygon clip-path="url(#SVGID_4_)" fill="#0A4796" points="182.81,405.232 205.903,405.232 205.903,412.67 192.742,412.67 
		192.742,419.91 205.246,419.91 205.246,427.348 192.742,427.348 192.742,435.441 206.605,435.441 206.605,442.893 182.81,442.893 	
		"/>
	<path clip-path="url(#SVGID_4_)" fill="#0A4796" d="M227.539,432.213c-0.969-3.619-2.65-4.053-4.265-4.053h-0.534v14.732h-10.144
		v-37.66h15.043c7.604,0,11.925,3.174,11.925,10.145c0,5.557-3.941,7.828-7.227,8.631v0.166c2.16,0.689,3.563,1.715,5.078,6.947
		l3.396,11.771h-10.467L227.539,432.213z M225.267,420.934c2.161,0,4.154-1.625,4.154-4.053c0-2.584-1.347-4.422-4.309-4.422h-2.807
		v8.475H225.267z"/>
	<path clip-path="url(#SVGID_4_)" fill="#0A4796" d="M246.368,405.223h14.242c7.984,0,11.87,3.295,11.87,8.908
		c0,6.045-3.296,8.26-7.07,9.164v0.121c4.699,0.803,7.661,3.83,7.661,8.896c0,7.451-5.078,10.58-12.249,10.58h-14.453V405.223z
		 M258.082,420.277c2.471,0,4.676-0.969,4.676-4.154c0-2.807-1.714-4.086-4.086-4.086h-2.605v8.24H258.082z M258.772,435.877
		c2.917,0,4.588-1.459,4.588-4.32c0-2.807-1.514-4.477-4.154-4.477h-3.14v8.797H258.772z"/>
	<path clip-path="url(#SVGID_4_)" fill="#0A4796" d="M299.125,434.908h-11.057l-2.427,7.984h-9.709l12.504-37.66h11.18l11.97,37.66
		h-10.466L299.125,434.908z M293.947,412.895h-0.1l-4.053,14.775h7.449L293.947,412.895z"/>
	<path clip-path="url(#SVGID_4_)" fill="#0A4796" d="M330.904,432.213c-0.98-3.619-2.638-4.053-4.265-4.053h-0.535v14.732h-10.144
		v-37.66h15.043c7.606,0,11.926,3.174,11.926,10.145c0,5.557-3.941,7.828-7.227,8.631v0.166c2.16,0.689,3.563,1.715,5.078,6.947
		l3.396,11.771h-10.466L330.904,432.213z M328.633,420.934c2.16,0,4.153-1.625,4.153-4.053c0-2.584-1.347-4.422-4.309-4.422h-2.806
		v8.475H328.633z"/>
	<polygon clip-path="url(#SVGID_4_)" fill="#0A4796" points="358.575,416.779 358.363,416.779 358.363,442.893 349.511,442.893 
		349.511,405.223 361.281,405.223 371.157,431.178 371.257,431.178 371.257,405.223 380.11,405.223 380.11,442.893 368.24,442.893 	
		"/>
	<rect x="387.504" y="405.232" clip-path="url(#SVGID_4_)" fill="#0A4796" width="10.143" height="37.66"/>
	<polygon clip-path="url(#SVGID_4_)" fill="#0A4796" points="414.205,414.297 414.094,414.297 414.094,442.893 405.253,442.893 
		405.253,405.232 420.185,405.232 425.207,428.85 425.318,428.85 430.819,405.232 445.383,405.232 445.383,442.893 436.32,442.893 
		436.32,414.297 436.219,414.297 428.125,442.893 421.811,442.893 	"/>
	<polygon clip-path="url(#SVGID_4_)" fill="#0A4796" points="452.989,405.232 476.083,405.232 476.083,412.67 462.92,412.67 
		462.92,419.91 475.426,419.91 475.426,427.348 462.92,427.348 462.92,435.441 476.784,435.441 476.784,442.893 452.989,442.893 	
		"/>
	<path clip-path="url(#SVGID_4_)" fill="#0A4796" d="M497.718,432.213c-0.979-3.619-2.64-4.053-4.265-4.053h-0.535v14.732h-10.144
		v-37.66h15.043c7.605,0,11.926,3.174,11.926,10.145c0,5.557-3.941,7.828-7.227,8.631v0.166c2.16,0.689,3.563,1.715,5.078,6.947
		l3.396,11.771h-10.467L497.718,432.213z M495.445,420.934c2.161,0,4.154-1.625,4.154-4.053c0-2.584-1.348-4.422-4.31-4.422h-2.806
		v8.475H495.445z"/>
	<polygon clip-path="url(#SVGID_4_)" fill="#0A4796" points="531.323,405.232 554.417,405.232 554.417,412.67 541.256,412.67 
		541.256,419.91 553.76,419.91 553.76,427.348 541.256,427.348 541.256,435.441 555.118,435.441 555.118,442.893 531.323,442.893 	
		"/>
	<rect x="561.109" y="405.232" clip-path="url(#SVGID_4_)" fill="#0A4796" width="10.144" height="37.66"/>
	<path clip-path="url(#SVGID_4_)" fill="#0A4796" d="M578.958,433.828c1.248,0.689,4.922,2.271,8.53,2.271
		c3.83,0,5.178-1.682,5.178-4.053c0-2.484-1.671-3.186-4.577-4.322l-2.215-0.855c-6.203-2.43-8.096-5.779-8.096-11.113
		c0-7.127,5.712-11.18,13.706-11.18c2.862,0,6.414,0.279,9.499,1.514l-0.435,7.395c-1.793-0.914-4.854-1.895-7.783-1.895
		c-3.018,0-4.855,1.248-4.855,3.574c0,1.939,0.98,2.797,4.321,4.311l4.532,2.049c3.407,1.559,6.368,3.941,6.368,9.555
		c0,8.25-5.934,12.459-14.73,12.459c-4.521,0-8.151-0.98-10.033-1.459L578.958,433.828z"/>
	<polygon clip-path="url(#SVGID_4_)" fill="#0A4796" points="609.657,405.232 632.752,405.232 632.752,412.67 619.59,412.67 
		619.59,419.91 632.105,419.91 632.105,427.348 619.59,427.348 619.59,435.441 633.453,435.441 633.453,442.893 609.657,442.893 	
		"/>
	<polygon clip-path="url(#SVGID_4_)" fill="#0A4796" points="648.284,416.779 648.073,416.779 648.073,442.893 639.221,442.893 
		639.221,405.223 650.99,405.223 660.867,431.178 660.967,431.178 660.967,405.223 669.819,405.223 669.819,442.893 657.95,442.893 
			"/>
	<path clip-path="url(#SVGID_4_)" fill="#0A4796" d="M677.214,405.223h14.23c7.983,0,11.869,3.295,11.869,8.908
		c0,6.045-3.285,8.26-7.059,9.164v0.121c4.698,0.803,7.66,3.83,7.66,8.896c0,7.451-5.077,10.58-12.249,10.58h-14.452V405.223z
		 M688.905,420.277c2.482,0,4.699-0.969,4.699-4.154c0-2.807-1.726-4.086-4.098-4.086h-2.595v8.24H688.905z M689.617,435.877
		c2.907,0,4.577-1.459,4.577-4.32c0-2.807-1.503-4.477-4.143-4.477h-3.14v8.797H689.617z"/>
	<path clip-path="url(#SVGID_4_)" fill="#0A4796" d="M729.96,434.908h-11.058l-2.427,7.984h-9.699l12.505-37.66h11.18l11.97,37.66
		h-10.467L729.96,434.908z M724.793,412.895h-0.111l-4.042,14.775h7.438L724.793,412.895z"/>
	<polygon clip-path="url(#SVGID_4_)" fill="#0A4796" points="764.823,427.57 756.939,427.57 756.939,442.893 746.807,442.893 
		746.807,405.232 756.939,405.232 756.939,419.686 764.823,419.686 764.823,405.232 774.967,405.232 774.967,442.893 
		764.823,442.893 	"/>
	<polygon clip-path="url(#SVGID_4_)" fill="#0A4796" points="791.414,416.779 791.202,416.779 791.202,442.893 782.35,442.893 
		782.35,405.223 794.108,405.223 803.985,431.178 804.096,431.178 804.096,405.223 812.949,405.223 812.949,442.893 
		801.078,442.893 	"/>
</g>
</svg>
