<svg xmlns="http://www.w3.org/2000/svg" width="1010" height="230"><path d="M172.889 216.998h-17.774s-60.764.06-74.774-42.118h78.952s60.735-.04 74.738 42.118h-61.142zm-25.064-81.515h-30.106s-60.742.07-74.752-42.117H159.292s60.735-.073 74.738 42.117h-86.205zm0-81.41h-67.02s-60.72.073-74.752-42.117H159.292s60.735-.073 74.738 42.117h-86.205zM839.234 216.998h17.789s60.727.06 74.759-42.118H852.83s-60.757-.04-74.752 42.118h61.156zm25.067-81.515h30.07s60.756.07 74.781-42.117H852.834s-60.757-.073-74.759 42.117h86.226zm0-81.41H931.3s60.757.073 74.75-42.117H852.834s-60.757-.073-74.759 42.117h86.226z" style="fill:#f89c0e;fill-opacity:1;fill-rule:nonzero;stroke:none"/><path d="M692.314 216.198c-18.633-2.72-30.183-9.86-37.146-22.97-6.104-11.49-6.456-15.833-6.436-79.358 0-62.242.297-65.955 5.699-76.617 3.399-6.708 10.882-14.856 16.863-18.361 15.409-9.03 40.117-9.036 55.514 0 13.747 8.056 23.64 26.566 23.64 44.23v6.338h-31.961l-.39-8.045c-.708-14.614-5.67-20.191-18.069-20.308-7.138-.07-10.262 1.396-14.133 6.617-3.502 4.723-4.127 16.833-3.777 73.184.325 52.163.407 54.052 2.482 58.01 2.929 5.59 6.58 8.04 12.846 8.65 7.073.67 13.752-1.92 17.465-6.78l2.837-3.717.314-23.701.314-23.7h-19.833V99.565h51.905v38.15c0 40.923-.244 43.163-5.547 54.353-7.944 16.77-30.899 27.31-52.574 24.14zm-70.708 1.07v-30.25h-59.107v-57.263h58.991V98.719h-58.991V40.571h59.122V11.766h-94.387v205.502h94.372zM428.047 40.638h12.041c18.552 0 24.983 7.129 24.983 28.711v89.169c0 21.6-6.431 28.81-24.983 28.81h-12.041V40.638zm-34.844 176.39h51.659c35.97 0 55.031-19.92 55.031-62.071v-81.35c0-42.081-19.061-62.021-55.031-62.021h-51.659v205.442zm-133.282-51.15c0 28.28 16.83 51.39 53.345 51.39 36.413 0 53.286-23.11 53.286-51.39V62.64c0-28.347-16.873-51.361-53.286-51.361-36.515 0-53.345 23.014-53.345 51.361v103.238zM294.67 63.462c0-14.992 4.535-22.193 18.596-22.193 13.959 0 18.443 7.201 18.443 22.193V165.05c0 15.008-4.484 22.188-18.443 22.188-14.061 0-18.596-7.18-18.596-22.188V63.462z" style="fill:#2c5357"/></svg>