<svg xmlns="http://www.w3.org/2000/svg" width="768" height="768" viewBox="-2.696 -2.696 95.241 95.241"><path d="M0 89.85h89.85V0H0v89.85z" style="fill:#020cff;fill-opacity:1;fill-rule:evenodd;stroke:none"/><path d="M0 74.85h89.85v-15H0v15zm0-29.925h89.85v-15H0v15zm0-30h89.85V0H0v14.925z" style="fill:#036;fill-opacity:1;fill-rule:evenodd;stroke:none"/><path d="m29.1 8.85.07-.9.15-.825.3-.75.75-1.2.525-.525.525-.375.6-.375.6-.225.675-.225.6-.15h1.35l.6.15.675.225.6.225.6.375.525.375.45.525.45.6.3.6.3.75.15.825.07.9v1.125H36.74v-1.5l-.07-.375-.07-.3-.15-.225-.15-.3-.225-.15-.15-.225-.3-.07-.225-.15-.225-.08h-.3l-.3-.07-.3.07h-.3l-.225.08-.3.15-.225.07-.375.375-.15.3-.15.225-.07.3-.07.375V21.15l.15.6.15.3.3.45.225.15.225.15.3.07.225.07.3.07h.6l.3-.07.225-.07.225-.07.3-.15.375-.375.15-.225.15-.3.15-.6V16.5h-2.55v-2.85h5.775v7.05l-.07.9-.15.825-.3.75-.3.675-.9 1.05-.525.45-1.2.6-.675.15-.6.15h-1.35l-.6-.15-.675-.15-1.2-.6-.525-.45-.525-.525-.375-.525-.375-.675-.3-.75-.15-.825-.07-.9V8.85m-5.7 17.25h-2.85L15.995 3.525h3.375l2.625 15.75 2.625-15.75h3.45L23.42 26.1M3.995 8.85l.07-.9.15-.825.3-.75.3-.6.45-.6.45-.525.525-.375.6-.375.675-.225.6-.225.675-.15h1.275l.675.15.675.225.6.225.6.375.525.375.45.525.45.6.375.6.225.75.15.825.07.9V20.7l-.07.9-.15.825-.225.75-.375.675-.9 1.05-.525.45-.6.3-.6.3-1.35.3H8.79l-.675-.15-.6-.15-.675-.3-.6-.3-.525-.45-.9-1.05-.3-.675-.3-.75-.15-.825-.07-.9V8.85zM7.22 20.7l.08.45v.3l.15.3.07.3.225.225.15.225.225.15.225.15.3.07.225.07.3.07h.6l.225-.07.3-.07.225-.07.225-.15.225-.15.15-.225.225-.225.08-.3.15-.3v-.3l.07-.45V8.85l-.07-.375V8.1l-.15-.3-.08-.225-.225-.3-.375-.375-.225-.07-.225-.15-.3-.08H9.77l-.3-.07-.3.07h-.3l-.225.08-.3.15-.225.07-.375.375-.225.3-.07.225-.15.3v.375l-.08.375V20.7" style="fill:#fff;fill-opacity:1;fill-rule:evenodd;stroke:none"/><path d="M89.85 89.85v-15H30l-15.075 15H89.85m0-59.85V15l-15 15h15m0 29.925v-15H59.925l-15 15H89.85" style="fill:#06f;fill-opacity:1;fill-rule:evenodd;stroke:none"/><path d="M89.85 74.85V59.843H15.007L0 74.848h89.85m0-59.923V0h-15L59.925 14.925H89.85m0 30v-15H44.925l-15 15H89.85" style="fill:#3cf;fill-opacity:1;fill-rule:evenodd;stroke:none"/></svg>