<svg xmlns="http://www.w3.org/2000/svg" xml:space="preserve" width="145.409" height="166.212"><defs><clipPath id="a" clipPathUnits="userSpaceOnUse"><path d="M27 639.284h612.283V27H27v612.284Z"/></clipPath></defs><g clip-path="url(#a)" transform="matrix(10 0 0 -10 -500.431 1063.063)"><path d="M0 0a7.159 7.159 0 0 0-5.895-12.943l1.398 2.629.317.597h3.313l1.912 3.588-2.216 8.272h-3.913l.32-1.192.774-2.887h-4.689l1.124-4.193-2.107-3.963A7.162 7.162 0 0 0-5.332.844l-.508 1.892h5.107L0 0Z" style="fill:#99d536;fill-opacity:1;fill-rule:evenodd;stroke:none" transform="translate(61.127 103.57)"/><path d="M0 0h4.091l.964-3.598-4.126-7.756h-4.091L.963-3.598 0 0Z" style="fill:#127bca;fill-opacity:1;fill-rule:evenodd;stroke:none" transform="translate(53.205 101.04)"/></g><path d="M0 0h-27m639.283 0h27M0-595.276h-27m639.283 0h27M8.504 8.504v27m0-639.284v-27M603.779 8.504v27m0-639.284v-27" style="fill:none;stroke:#fff;stroke-width:1.25;stroke-linecap:butt;stroke-linejoin:miter;stroke-miterlimit:10;stroke-dasharray:none;stroke-opacity:1" transform="matrix(1.25 0 0 -1.25 -28.804 -510.157)"/></svg>