<svg xmlns="http://www.w3.org/2000/svg" xmlns:xlink="http://www.w3.org/1999/xlink" xml:space="preserve" width="1000" height="500"><defs><path id="a" d="M39.146 100.065h921.708v322.596H39.146z"/></defs><clipPath id="b"><use xlink:href="#a" overflow="visible"/></clipPath><path fill="#048142" fill-rule="evenodd" d="M612.801 195.672h-16.112l-6.3 30.504h8.604c17.825 0 27.669-4.856 27.992-17.101.246-9.466-3.759-13.174-14.184-13.403m25.263 53.576c6.448 7.359 8.615 18.987 10.214 28.266l10.545 58.313h-49.859l-7.354-47.737c-2.634-17.607-.915-20.607-18.909-20.607h-.898l-14.137 68.345h-50.058l38.771-181.46h52.663c28.172.233 68.979.814 67.733 48.499-.749 28.589-18.389 41.198-38.711 46.381" clip-path="url(#b)" clip-rule="evenodd"/><path fill="#048142" d="M465.394 151.393c17.724 0 36.172 1.341 52.166 9.865l-13.461 42.81c-12.586-6.772-21.347-9.883-36.292-9.883-8.742 0-25.34-.15-25.669 12.392-.497 19.047 59.387 13.643 57.968 67.852-1.354 51.653-44.915 64.372-81.057 64.372-18.071 0-35.819-4.575-52.705-10.53l13.587-44.977c12.089 8.983 24.759 12.714 40.01 12.714 10.796 0 28.7-1.817 29.077-16.355.593-22.586-59.345-15.18-58.016-66.117 1.263-48.194 39.859-62.143 74.392-62.143M782.327 151.393c17.719 0 36.173 1.341 52.16 9.865l-13.46 42.81c-12.581-6.772-21.347-9.883-36.293-9.883-8.736 0-25.335-.15-25.664 12.392-.502 19.047 59.388 13.643 57.975 67.852-1.359 51.653-44.921 64.372-81.063 64.372-18.065 0-35.818-4.575-52.704-10.53l13.58-44.977c12.095 8.983 24.767 12.714 40.017 12.714 10.79 0 28.693-1.817 29.077-16.355.593-22.586-59.345-15.18-58.017-66.117 1.263-48.194 39.861-62.143 74.392-62.143" clip-path="url(#b)"/><path fill="#DADADA" d="M39.146 354.754h39.562v67.823H39.146z" clip-path="url(#b)"/><path fill="#B2B3B4" d="M116.903 354.754h39.567v67.823h-39.567z" clip-path="url(#b)"/><path fill="#7B7B7A" d="M196.41 354.837h610.402v67.824H196.41z" clip-path="url(#b)"/><path fill="#FFF" d="M228.294 379.608c-1.227-.744-2.832-1.19-4.431-1.19-2.461 0-4.065 1.676-4.065 3.873 0 1.677.677 2.719 4.401 4.881 4.024 2.308 5.365 4.583 5.365 7.565 0 4.135-2.569 7.377-7.563 7.377-2.09 0-4.066-.446-5.443-1.117v-3.392c1.491.896 3.431 1.677 4.958 1.677 2.94 0 4.617-1.974 4.617-4.099 0-2.012-.521-3.168-4.018-5.29-4.7-2.833-5.743-4.435-5.743-7.787 0-4.285 3.282-6.519 7.227-6.519 1.719 0 3.54.372 4.694.854v3.167zM245.438 386.166c-1.083-.594-2.162-.896-3.616-.896-3.054 0-5.216 2.125-5.216 7.267 0 4.4 2.09 6.895 5.144 6.895 1.491 0 2.754-.446 3.838-1.006l.149 2.868c-.934.409-2.611.817-3.988.817-5.665 0-8.418-4.21-8.418-9.574 0-6.147 3.203-9.946 8.491-9.946 1.305 0 2.76.258 3.766.742l-.15 2.833zM249.503 373.908h3.126v11.548h.078c.814-1.6 2.455-2.865 4.652-2.865 3.317 0 5.557 1.9 5.557 6.075v13.188h-3.132v-12.257c0-3.021-1.12-4.323-3.132-4.323-2.455 0-4.023 1.712-4.023 5.141v11.439h-3.126v-27.946zM274.915 382.591c5.03 0 7.635 3.799 7.635 9.764 0 5.958-2.604 9.76-7.635 9.76-5.029 0-7.64-3.802-7.64-9.76 0-5.965 2.611-9.764 7.64-9.764m-4.472-7.38h2.976v3.728h-2.976v-3.728zm4.472 24.367c2.976 0 4.36-2.454 4.36-7.224 0-4.772-1.384-7.23-4.36-7.23-2.981 0-4.359 2.458-4.359 7.23 0 4.77 1.378 7.224 4.359 7.224m1.491-24.367h2.976v3.728h-2.976v-3.728zM286.915 386.95c0-1.38-.114-2.758-.15-4.1h3.018l.108 2.833h.078c1.006-2.162 2.604-3.093 4.808-3.093 3.317 0 5.551 1.9 5.551 6.071v13.188h-3.132v-12.257c0-3.016-1.114-4.32-3.132-4.32-2.455 0-4.018 1.712-4.018 5.143v11.435h-3.131v-14.9zM307.968 393.285c0 4.395 1.712 6.442 5.18 6.442 1.563 0 3.275-.78 4.359-1.563l.15 2.832c-1.491.71-3.431 1.117-5.329 1.117-5.03 0-7.64-3.8-7.64-9.764 0-5.957 2.61-9.76 7.34-9.76 4.288 0 6.671 3.428 6.671 9.018v1.677h-10.731zm7.599-2.386c0-3.949-1.228-5.922-3.725-5.922-2.012 0-3.802 1.487-3.874 5.922h7.599zM326.488 378.753h-3.431v-3.726h3.431v3.726zm-3.281 4.098h3.132v19.003h-3.132v-19.003zM343.104 386.166c-1.084-.594-2.161-.896-3.617-.896-3.047 0-5.209 2.125-5.209 7.267 0 4.4 2.083 6.895 5.137 6.895 1.491 0 2.754-.446 3.838-1.006l.15 2.868c-.934.409-2.604.817-3.988.817-5.665 0-8.419-4.21-8.419-9.574 0-6.147 3.204-9.946 8.491-9.946 1.312 0 2.76.258 3.766.742l-.149 2.833zM347.17 373.908h3.125v11.548h.078c.814-1.6 2.456-2.865 4.653-2.865 3.317 0 5.557 1.9 5.557 6.075v13.188h-3.132v-12.257c0-3.021-1.113-4.323-3.132-4.323-2.455 0-4.024 1.712-4.024 5.141v11.439h-3.125v-27.946zM368.224 393.285c0 4.395 1.712 6.442 5.179 6.442 1.563 0 3.275-.78 4.359-1.563l.149 2.832c-1.491.71-3.431 1.117-5.329 1.117-5.03 0-7.641-3.8-7.641-9.764 0-5.957 2.611-9.76 7.341-9.76 4.287 0 6.67 3.428 6.67 9.018v1.677h-10.728zm7.598-2.386c0-3.949-1.228-5.922-3.724-5.922-2.012 0-3.803 1.487-3.874 5.922h7.598zM383.163 386.95c0-1.38-.114-2.758-.15-4.1h3.024l.108 2.982h.071c1.012-2.312 2.611-3.242 5.408-3.242v3.093a6.142 6.142 0 0 0-1.192-.113c-2.425 0-4.137 2.086-4.137 6.224v10.057h-3.131V386.95zM392.486 390.043h8.048v2.683h-8.048zM405.641 375.845h6.671c2.754 0 4.287.671 5.479 1.791 1.341 1.267 1.94 3.054 1.94 4.955 0 2.754-1.312 5.404-5.144 6.222v.075c1.563.296 2.305 1.042 2.832 2.532l3.647 10.431h-3.54l-2.981-8.79c-.743-2.161-1.676-2.982-4.131-2.982h-1.491v11.772h-3.282v-26.006zm3.281 11.551h2.533c3.503 0 4.844-2.311 4.844-4.583 0-2.904-1.904-4.285-4.772-4.285h-2.605v8.868zM438.544 397.755c0 1.381.114 2.758.149 4.099h-3.018l-.107-2.832h-.078c-1.006 2.162-2.605 3.093-4.808 3.093-3.317 0-5.551-1.901-5.551-6.071v-13.192h3.132v12.258c0 3.018 1.114 4.323 3.125 4.323 2.461 0 4.024-1.713 4.024-5.141v-11.44h3.131v14.903zm-11.179-22.544h2.981v3.728h-2.981v-3.728zm5.964 0h2.976v3.728h-2.976v-3.728zM457.514 398.351c0 1.156.113 2.347.149 3.503h-3.018l-.114-2.797h-.078c-.813 1.491-2.233 3.058-4.987 3.058-3.91 0-6.557-3.204-6.557-9.76 0-6.56 2.647-9.764 6.557-9.764 2.162 0 3.575.856 4.844 2.868h.072v-11.551h3.132v24.443zm-7.306-13.227c-2.868 0-4.173 2.458-4.173 7.23 0 4.77 1.306 7.224 4.173 7.224 2.868 0 4.174-2.454 4.174-7.224 0-4.772-1.306-7.23-4.174-7.23M464.854 393.285c0 4.395 1.712 6.442 5.18 6.442 1.563 0 3.275-.78 4.359-1.563l.15 2.832c-1.491.71-3.425 1.117-5.33 1.117-5.029 0-7.64-3.8-7.64-9.764 0-5.957 2.611-9.76 7.341-9.76 4.288 0 6.67 3.428 6.67 9.018v1.677h-10.73zm7.599-2.386c0-3.949-1.227-5.922-3.724-5.922-2.012 0-3.802 1.487-3.874 5.922h7.598zM479.8 386.95c0-1.38-.113-2.758-.15-4.1h3.018l.108 2.982h.078c1.006-2.312 2.604-3.242 5.401-3.242v3.093a6.087 6.087 0 0 0-1.191-.113c-2.419 0-4.138 2.086-4.138 6.224v10.057H479.8V386.95zM490.752 398.165c1.419.854 2.91 1.417 4.473 1.417 2.383 0 3.61-1.231 3.61-2.684 0-1.302-.664-2.197-2.419-2.982l-2.083-.931c-2.726-1.23-3.731-2.458-3.731-4.88 0-3.132 2.426-5.515 6.114-5.515 1.563 0 2.945.26 4.023.671l-.149 2.682a9.144 9.144 0 0 0-3.725-.819c-2.048 0-3.132 1.117-3.132 2.607 0 1.527 1.12 2.387 3.21 3.204l1.113.448c2.306.931 3.767 2.494 3.767 4.841 0 3.278-1.755 5.89-6.113 5.89-1.977 0-3.767-.411-5.144-1.117l.186-2.832zM519.78 398.351c0 1.156.114 2.347.15 3.503h-3.019l-.113-2.797h-.078c-.814 1.491-2.233 3.058-4.987 3.058-3.911 0-6.557-3.204-6.557-9.76 0-6.56 2.646-9.764 6.557-9.764 2.161 0 3.574.856 4.844 2.868h.071v-11.551h3.132v24.443zm-7.304-13.227c-2.868 0-4.168 2.458-4.168 7.23 0 4.77 1.3 7.224 4.168 7.224 2.874 0 4.173-2.454 4.173-7.224-.001-4.772-1.299-7.23-4.173-7.23M531.48 382.591c5.03 0 7.641 3.799 7.641 9.76 0 5.964-2.61 9.761-7.641 9.761-5.029 0-7.635-3.797-7.635-9.761.001-5.961 2.606-9.76 7.635-9.76m0 16.991c2.982 0 4.359-2.462 4.359-7.231s-1.377-7.227-4.359-7.227c-2.981 0-4.358 2.458-4.358 7.227s1.377 7.231 4.358 7.231M543.479 386.95c0-1.38-.113-2.758-.148-4.1h3.018l.113 2.982h.078c1-2.312 2.604-3.242 5.4-3.242v3.093a6.162 6.162 0 0 0-1.191-.113c-2.425 0-4.138 2.086-4.138 6.224v10.057h-3.132V386.95zM556.6 385.384h-3.018v-2.533h3.018v-4.248c0-3.089 1.413-5.141 4.73-5.141.856 0 1.754.111 2.455.297v2.683c-.365-.297-1.042-.446-1.785-.446-1.748 0-2.269.971-2.269 2.869v3.986h3.425v2.533h-3.425v16.47H556.6v-16.47zM568.707 393.285c0 4.395 1.719 6.442 5.179 6.442 1.563 0 3.275-.78 4.36-1.563l.149 2.832c-1.492.71-3.425 1.117-5.33 1.117-5.029 0-7.634-3.8-7.634-9.764 0-5.957 2.604-9.76 7.341-9.76 4.281 0 6.664 3.428 6.664 9.018v1.677h-10.729zm7.605-2.386c0-3.949-1.233-5.922-3.725-5.922-2.018 0-3.803 1.487-3.88 5.922h7.605zM583.652 386.95c0-1.38-.114-2.758-.15-4.1h3.019l.114 2.982h.071c1.006-2.312 2.611-3.242 5.407-3.242v3.093a6.19 6.19 0 0 0-1.198-.113c-2.419 0-4.131 2.086-4.131 6.224v10.057h-3.132V386.95zM616.441 379.608c-1.228-.744-2.832-1.19-4.431-1.19-2.461 0-4.066 1.676-4.066 3.873 0 1.677.671 2.719 4.402 4.881 4.023 2.308 5.363 4.583 5.363 7.565 0 4.135-2.573 7.377-7.567 7.377-2.084 0-4.06-.446-5.437-1.117v-3.392c1.49.896 3.431 1.677 4.958 1.677 2.939 0 4.615-1.974 4.615-4.099 0-2.012-.52-3.168-4.023-5.29-4.694-2.833-5.736-4.435-5.736-7.787 0-4.285 3.281-6.519 7.228-6.519 1.713 0 3.538.372 4.694.854v3.167zM630.789 401.63c-.744.26-1.791.484-2.647.484-2.868 0-4.395-1.155-4.395-4.506v-12.225h-3.018v-2.533h3.018v-3.877l3.131-.927v4.804h3.911v2.533h-3.911V396.6c0 2.161.558 2.979 1.971 2.979.784 0 1.347-.219 1.94-.482v2.533zM634.184 386.95c0-1.38-.113-2.758-.156-4.1h3.023l.108 2.982h.078c1-2.312 2.604-3.242 5.4-3.242v3.093a6.069 6.069 0 0 0-1.19-.113c-2.426 0-4.139 2.086-4.139 6.224v10.057h-3.125V386.95zM646.703 384.156c1.563-1.009 3.498-1.565 5.365-1.565 2.791 0 4.468 1.191 5.065 1.791.821.816 1.635 1.969 1.635 4.655v9.91c0 1.115.079 2.232.15 2.906h-2.832l-.18-2.571h-.077c-.857 1.455-2.426 2.829-5.33 2.829-3.126 0-5.473-1.823-5.473-5.474 0-3.688 2.42-6.412 8.939-6.412h1.827v-.854c0-1.416-.114-2.236-.714-3.058-.629-.855-1.855-1.194-3.161-1.194-1.939 0-3.803.788-4.886 1.979l-.328-2.942zm9.091 8.383c-.558-.074-1.343-.074-2.198-.074-3.688 0-5.442 1.751-5.442 3.949 0 2.012 1.042 3.313 3.203 3.313 2.718 0 4.438-2.194 4.438-4.806v-2.382zM663.806 381.545c0-4.732 1.903-8.083 6.855-8.083 4.581 0 6.593 3.129 6.593 7.266 0 3.091-.893 4.731-4.317 6.148v.071c3.425.413 5.323 1.829 5.323 7.306 0 4.06-1.898 7.861-6.743 7.861-.892 0-1.825-.113-2.496-.261l.15-2.718a6.433 6.433 0 0 0 2.425.442c2.119 0 3.532-1.077 3.532-4.806 0-5.587-1.6-6.11-5.623-6.296v-2.682c3.39 0 4.617-1.156 4.617-5.552 0-2.683-1-4.248-3.461-4.248-3.317 0-3.725 2.904-3.725 5.812v20.047h-3.131v-20.307zM684.972 393.285c0 4.395 1.713 6.442 5.18 6.442 1.563 0 3.275-.78 4.358-1.563l.15 2.832c-1.491.71-3.431 1.117-5.329 1.117-5.029 0-7.635-3.8-7.635-9.764 0-5.957 2.605-9.76 7.335-9.76 4.288 0 6.671 3.428 6.671 9.018v1.677h-10.73zm7.599-2.386c0-3.949-1.229-5.922-3.726-5.922-2.012 0-3.802 1.487-3.874 5.922h7.6zM699.911 386.95c0-1.38-.113-2.758-.149-4.1h3.023l.107 2.833h.079c1.006-2.162 2.604-3.093 4.808-3.093 3.312 0 5.545 1.9 5.545 6.071v13.188h-3.126v-12.257c0-3.016-1.119-4.32-3.131-4.32-2.455 0-4.024 1.712-4.024 5.143v11.435h-3.132v-14.9zM718.323 373.908h3.133v11.551h.071c1.264-2.012 2.683-2.868 4.845-2.868 3.909 0 6.556 3.204 6.556 9.76 0 6.557-2.646 9.761-6.556 9.761-2.76 0-4.174-1.563-4.994-3.051h-.077l-.108 2.79h-3.019c.036-1.153.149-2.344.149-3.5v-24.443zm7.3 25.674c2.874 0 4.174-2.462 4.174-7.231s-1.3-7.227-4.174-7.227c-2.868 0-4.167 2.458-4.167 7.227s1.299 7.231 4.167 7.231M738.036 384.156c1.563-1.009 3.503-1.565 5.365-1.565 2.796 0 4.473 1.191 5.065 1.791.82.816 1.641 1.969 1.641 4.655v9.91c0 1.115.078 2.232.149 2.906h-2.832l-.186-2.571h-.078c-.856 1.455-2.42 2.829-5.323 2.829-3.131 0-5.479-1.823-5.479-5.474 0-3.688 2.42-6.412 8.946-6.412h1.821v-.854c0-1.416-.115-2.236-.707-3.058-.635-.855-1.862-1.194-3.168-1.194-1.94 0-3.796.788-4.881 1.979l-.333-2.942zm9.09 8.383c-.558-.074-1.342-.074-2.198-.074-3.688 0-5.437 1.751-5.437 3.949 0 2.012 1.041 3.313 3.202 3.313 2.72 0 4.433-2.194 4.433-4.806v-2.382zM755.286 373.908h3.133v11.548h.071c.82-1.6 2.461-2.865 4.659-2.865 3.317 0 5.55 1.9 5.55 6.075v13.188h-3.132v-12.257c0-3.021-1.113-4.323-3.125-4.323-2.461 0-4.023 1.712-4.023 5.141v11.439h-3.133v-27.946zM773.992 386.95c0-1.38-.113-2.758-.149-4.1h3.024l.107 2.833h.077c1.006-2.162 2.605-3.093 4.81-3.093 3.31 0 5.544 1.9 5.544 6.071v13.188h-3.126v-12.257c0-3.016-1.12-4.32-3.132-4.32-2.454 0-4.023 1.712-4.023 5.143v11.435h-3.132v-14.9z" clip-path="url(#b)"/><path fill="#048142" d="m797.662 142.543 35.035-42.48 92.116 111.487-92.057 111.483-13.843-16.756c2.089-4.458 3.766-9.365 4.95-14.76l8.893 10.76 74.913-90.724-74.967-90.725-19.485 23.631c-5.207-.973-10.423-1.569-15.555-1.916" clip-path="url(#b)"/><path fill="#7B7B7A" d="m885.683 120.394 75.171 90.984-75.135 90.998-8.574-10.381 66.572-80.613-66.608-80.611z" clip-path="url(#b)"/></svg>