<?xml version="1.0"?>
<svg xmlns="http://www.w3.org/2000/svg" height="215.02" width="539.73"><g fill="#ae2040">
<path d="m409.41 68.994h-35.11c-0.43-2.253-0.64-4.57-0.64-6.908 0-28.708 32.63-52.086 72.65-52.086s72.64 23.378 72.64 52.086c0 2.338-0.21 4.655-0.63 6.908h-35.62c-2.55-18.304-16.03-32.33-36.64-32.33-20.65 0-34.13 14.028-36.65 32.33z"/><path d="m301.97 64.361c12.94 12.681 41.31 13.796 74.71 13.839h98.76c42.65 2.821 55.27 27.3 54.23 61.58-3.58 50.05-55.43 66.45-94.67 65.17-35.13-3.5-55.27-14.62-67.02-45.66l41.96-0.51c3.7 13.88 17.94 20.64 47.57 19.48 12.81 0 20.48-5.11 27.64-10.76 8.19-11.98-3.06-17.8-16.87-17.46h-65c-13.03 0-24.71-1.99-34.3-5.14-8.08-2.66-15.85-6.24-20.77-10.97-3.48-3.34-6.13-7.82-7.34-12.41 0.4 0.38 2.95 2.88 8.81 5.45 6.04 2.65 14.66 4.03 21.18 4.55 6.48 0.52 13.68 0.58 20.65 0.58h78.81c19.02-0.95 26.85 8.46 25.06 24.11 12.64-17.1-2.38-31.3-21.48-31.3h-84.44c-10.86 0-23.76-1.1-35.36-4.38-9.02-2.55-17-6.69-23.15-12.09-7.88-6.92-9.71-14.765-9.63-15.57 0.61 0.534 3.43 3.347 7.7 5.374 8.04 3.816 20.62 6.326 27.97 6.806 6.88 0.45 13.07 0.88 16.61 0.86l93.64-0.5c17.38 0.84 27.49 7.69 34.29 19.5-1.7-7.2-4.95-25.673-29.67-26.18l-95.71 0.506c-39.74-2.376-69.42-12.296-74.18-34.875z"/><path d="m42.792 131.5-9.936 0.54c-0.225-2.98-1.889-4.48-4.992-4.48-1.272 0-2.24 0.28-2.92 0.81-0.68 0.55-1.024 1.19-1.024 1.94 0 0.54 0.28 1.06 0.824 1.56 0.544 0.49 1.84 1.12 3.888 1.89 2.601 1 4.704 1.94 6.328 2.83s2.952 2.05 3.984 3.47 1.552 3.19 1.552 5.32c0 2-0.56 3.86-1.68 5.59-1.112 1.72-2.729 3.15-4.824 4.27-2.104 1.11-5.088 1.67-8.968 1.67-5.448 0-9.32-1.05-11.601-3.14-2.279-2.09-3.423-4.78-3.423-8.06v-0.8l9.984-0.68c0 2.14 0.472 3.65 1.424 4.53 0.944 0.89 2.248 1.33 3.92 1.33 1.688 0 2.977-0.37 3.856-1.1 0.888-0.74 1.328-1.57 1.328-2.51 0-0.7-0.28-1.35-0.849-1.95-0.56-0.59-1.943-1.28-4.144-2.08-5.048-1.81-8.24-3.48-9.576-5.01-1.336-1.54-2.007-3.38-2.007-5.54 0-1.97 0.552-3.76 1.655-5.39 1.104-1.63 2.704-2.88 4.809-3.79 2.096-0.89 4.616-1.34 7.552-1.34 9.296 0 14.248 3.38 14.84 10.12z"/><polygon points="68.069 137.96 60.17 137.96 56.198 156.32 48.644 156.32 52.6 137.96 45.046 137.96 46.304 131.99 69.315 131.99 69.315 131.99"/><path d="m72.517 131.98h13.849c2.386 0 4.137 0.63 5.242 1.88 1.111 1.25 1.66 2.76 1.66 4.52 0 1.9-0.583 3.56-1.756 4.98-1.174 1.43-3.05 2.34-5.628 2.74 1.524 1.24 3.35 4.65 5.475 10.22h-7.95c-0.663-1.76-1.445-3.68-2.346-5.77-0.907-2.08-1.581-3.29-2.035-3.62-0.453-0.34-1.002-0.5-1.644-0.5h-0.401l-2.074 9.89h-7.554l5.162-24.34zm5.446 9.9h1.429c2.391 0 3.938-0.11 4.641-0.33s1.224-0.59 1.57-1.12c0.34-0.53 0.516-1.03 0.516-1.52 0-0.62-0.204-1.11-0.618-1.46-0.408-0.36-1.298-0.54-2.669-0.54h-3.818l-1.051 4.97z"/><path d="m117.49 156.32h-7.37l-0.33-3.98h-7.94l-1.889 3.98h-8.103l13.742-24.34h8.02l3.87 24.34zm-8.19-9.14-0.74-8.87h-0.07l-4.18 8.87h4.99z"/><path d="m146.4 131.98-3.16 14.68c-0.74 3.43-2.06 5.97-3.97 7.61-1.9 1.65-4.73 2.47-8.48 2.47-2.08 0-3.74-0.21-4.99-0.62-1.24-0.4-2.29-1.02-3.15-1.84-0.85-0.82-1.47-1.75-1.85-2.8-0.39-1.04-0.59-2.16-0.59-3.36 0-1.52 0.16-2.97 0.46-4.35l2.5-11.79h7.55l-2.92 13.7c-0.13 0.64-0.2 1.32-0.2 2.04 0 1.93 1.14 2.89 3.43 2.89 1.2 0 2.23-0.36 3.07-1.09 0.85-0.73 1.49-2.15 1.94-4.25l2.77-13.29h7.59z"/><path d="m170.4 138.74-7.04 0.38c-0.16-2.11-1.33-3.17-3.53-3.17-0.9 0-1.59 0.19-2.07 0.57-0.48 0.39-0.73 0.84-0.73 1.37 0 0.39 0.2 0.76 0.59 1.11 0.38 0.34 1.3 0.79 2.75 1.34 1.84 0.7 3.33 1.37 4.48 2 1.15 0.64 2.09 1.45 2.82 2.46s1.1 2.26 1.1 3.77c0 1.42-0.39 2.74-1.19 3.96-0.78 1.22-1.93 2.23-3.41 3.02-1.49 0.79-3.61 1.19-6.36 1.19-3.85 0-6.6-0.74-8.21-2.22-1.62-1.49-2.43-3.39-2.43-5.72v-0.56l7.07-0.48c0 1.52 0.34 2.59 1.01 3.21 0.67 0.63 1.59 0.94 2.78 0.94s2.11-0.26 2.73-0.78c0.63-0.52 0.94-1.11 0.94-1.78 0-0.49-0.2-0.95-0.6-1.38-0.4-0.42-1.38-0.91-2.94-1.47-3.57-1.29-5.83-2.47-6.78-3.56-0.95-1.08-1.42-2.39-1.42-3.92 0-1.39 0.39-2.66 1.17-3.82 0.78-1.15 1.92-2.04 3.41-2.68 1.48-0.63 3.27-0.95 5.35-0.95 6.58 0 10.09 2.39 10.51 7.17z"/><path d="m176.04 131.98h11.22c1.37 0 2.49 0.07 3.37 0.19s1.72 0.43 2.54 0.92c0.81 0.49 1.45 1.15 1.91 1.95 0.46 0.81 0.69 1.69 0.69 2.66 0 1.23-0.37 2.38-1.09 3.48-0.72 1.08-1.88 1.87-3.46 2.36v0.07c2.6 0.78 3.9 2.49 3.9 5.12 0 1.93-0.8 3.68-2.41 5.24-1.6 1.57-3.89 2.35-6.87 2.35h-14.99l5.19-24.34zm5.52 9.52h2.55c1.11 0 1.97-0.08 2.57-0.23 0.6-0.16 1.09-0.48 1.46-0.98 0.37-0.49 0.55-0.98 0.55-1.48 0-0.6-0.19-1.06-0.6-1.4-0.4-0.33-1.2-0.5-2.38-0.5h-3.2l-0.95 4.59zm-2.05 9.59h4.02c2.83 0 4.25-0.94 4.25-2.82 0-0.66-0.2-1.18-0.61-1.57-0.41-0.38-1.25-0.57-2.51-0.57h-4.08l-1.07 4.96z"/><polygon points="197.23 156.32 202.42 131.99 222.31 131.99 222.31 131.99 221.2 137.21 208.85 137.21 208.03 141.09 219.94 141.09 218.84 146.01 206.96 146.01 205.92 150.78 219.33 150.78 218.13 156.32"/><path d="m226.98 131.98h13.84c2.39 0 4.14 0.63 5.25 1.88s1.66 2.76 1.66 4.52c0 1.9-0.59 3.56-1.76 4.98-1.17 1.43-3.05 2.34-5.63 2.74 1.53 1.24 3.35 4.65 5.48 10.22h-7.95c-0.67-1.76-1.45-3.68-2.35-5.77-0.91-2.08-1.58-3.29-2.03-3.62-0.46-0.34-1.01-0.5-1.65-0.5h-0.4l-2.07 9.89h-7.56l5.17-24.34zm5.44 9.9h1.43c2.39 0 3.94-0.11 4.64-0.33s1.22-0.59 1.57-1.12c0.34-0.53 0.52-1.03 0.52-1.52 0-0.62-0.21-1.11-0.62-1.46-0.41-0.36-1.3-0.54-2.67-0.54h-3.82l-1.05 4.97z"/><path d="m274.47 139.02-7.4 0.82c-0.67-1.93-2.05-2.89-4.12-2.89-2.02 0-3.62 1.02-4.81 3.07-1.18 2.04-1.78 4.24-1.78 6.57 0 1.35 0.44 2.48 1.32 3.4 0.88 0.91 2 1.37 3.36 1.37h0.07c1.55 0 2.91-0.4 4.09-1.2l0.54-2.6h-4.6l1.1-5.08h11.35l-2.44 11.44c-3.78 1.88-7.54 2.82-11.25 2.82-3.36 0-6.01-0.91-7.98-2.72-1.96-1.82-2.95-4.37-2.95-7.66 0-2.74 0.63-5.26 1.88-7.55s3.01-4.07 5.29-5.34c2.27-1.26 4.88-1.9 7.82-1.9 5.76 0 9.27 2.48 10.51 7.45z"/><polygon points="275.67 156.32 280.86 131.99 300.75 131.99 300.75 131.99 299.64 137.21 287.29 137.21 286.48 141.09 298.38 141.09 297.29 146.01 285.4 146.01 284.37 150.78 297.77 150.78 296.57 156.32"/><path d="m305.42 131.98h13.85c2.38 0 4.13 0.63 5.24 1.88s1.66 2.76 1.66 4.52c0 1.9-0.59 3.56-1.76 4.98-1.17 1.43-3.05 2.34-5.63 2.74 1.53 1.24 3.35 4.65 5.48 10.22h-7.95c-0.66-1.76-1.45-3.68-2.35-5.77-0.9-2.08-1.58-3.29-2.03-3.62-0.45-0.34-1-0.5-1.65-0.5h-0.4l-2.07 9.89h-7.55l5.16-24.34zm5.44 9.9h1.43c2.39 0 3.94-0.11 4.64-0.33s1.23-0.59 1.57-1.12 0.52-1.03 0.52-1.52c0-0.62-0.21-1.11-0.62-1.46-0.41-0.36-1.3-0.54-2.67-0.54h-3.82l-1.05 4.97z"/><polygon points="84.68 204.53 92.02 170.17 120.1 170.17 120.1 170.17 118.53 177.56 101.09 177.56 99.94 183.02 116.74 183.02 115.2 189.98 98.42 189.98 96.96 196.7 115.88 196.7 114.19 204.53"/><polygon points="134.55 175.9 128.42 204.53 119.46 204.53 125.59 175.9"/><path d="m163.03 183.84-8.28 0.46c-0.19-2.49-1.57-3.74-4.16-3.74-1.06 0-1.87 0.23-2.44 0.68-0.56 0.45-0.85 0.98-0.85 1.61 0 0.45 0.23 0.89 0.69 1.3 0.45 0.41 1.53 0.94 3.24 1.57 2.16 0.84 3.92 1.62 5.27 2.36 1.35 0.75 2.46 1.71 3.32 2.9 0.86 1.18 1.29 2.66 1.29 4.43 0 1.67-0.46 3.22-1.4 4.66-0.92 1.44-2.27 2.62-4.02 3.55s-4.24 1.4-7.47 1.4c-4.54 0-7.77-0.87-9.67-2.61-1.9-1.75-2.85-3.99-2.85-6.72v-0.67l8.32-0.57c0 1.79 0.39 3.05 1.19 3.78 0.78 0.74 1.87 1.11 3.26 1.11 1.41 0 2.48-0.31 3.22-0.92s1.1-1.31 1.1-2.09c0-0.59-0.23-1.12-0.7-1.63-0.47-0.49-1.62-1.07-3.46-1.73-4.2-1.51-6.86-2.9-7.98-4.18-1.11-1.28-1.67-2.81-1.67-4.61 0-1.64 0.46-3.13 1.38-4.49s2.25-2.4 4.01-3.16c1.74-0.74 3.84-1.12 6.29-1.12 7.75 0 11.88 2.81 12.37 8.43z"/><polygon points="163.48 204.53 169.59 175.9 192.99 175.9 192.99 175.9 191.68 182.05 177.15 182.05 176.19 186.61 190.2 186.61 188.91 192.4 174.92 192.4 173.71 198 189.48 198 188.07 204.53"/><polygon points="213.93 192.58 217.52 175.9 225.84 175.9 225.84 175.9 219.69 204.53 211.41 204.53 204.32 187.89 204.24 187.89 200.68 204.53 192.36 204.53 198.52 175.9 206.8 175.9 213.85 192.58"/><path d="m231.87 175.9h13.2c1.61 0 2.92 0.07 3.96 0.21 1.04 0.15 2.03 0.51 2.99 1.09 0.95 0.58 1.71 1.35 2.25 2.29 0.54 0.96 0.81 1.99 0.81 3.13 0 1.44-0.43 2.81-1.28 4.09s-2.21 2.21-4.07 2.78v0.08c3.06 0.93 4.59 2.94 4.59 6.03 0 2.27-0.94 4.32-2.84 6.16-1.88 1.85-4.58 2.77-8.08 2.77h-17.64l6.11-28.63zm6.49 11.19h3.01c1.3 0 2.3-0.09 3.01-0.27 0.71-0.19 1.29-0.57 1.72-1.15 0.44-0.58 0.65-1.16 0.65-1.74 0-0.7-0.23-1.25-0.71-1.64-0.47-0.4-1.41-0.59-2.8-0.59h-3.77l-1.11 5.39zm-2.41 11.29h4.73c3.33 0 5-1.11 5-3.32 0-0.78-0.24-1.4-0.72-1.85s-1.47-0.67-2.95-0.67h-4.8l-1.26 5.84z"/><path d="m283.67 204.53h-8.67l-0.39-4.69h-9.34l-2.22 4.69h-9.54l16.18-28.63h9.43l4.55 28.63zm-9.63-10.76-0.87-10.43h-0.08l-4.92 10.43h5.87z"/><polygon points="309.35 186.02 311.6 175.9 320.47 175.9 320.47 175.9 314.31 204.53 305.43 204.53 307.91 192.89 298.32 192.89 295.88 204.53 286.91 204.53 293.07 175.9 301.95 175.9 299.79 186.02"/><polygon points="341.76 192.58 345.35 175.9 353.67 175.9 353.67 175.9 347.52 204.53 339.24 204.53 332.15 187.89 332.07 187.89 328.51 204.53 320.19 204.53 326.35 175.9 334.63 175.9 341.68 192.58"/>
</g></svg>
