<svg xmlns="http://www.w3.org/2000/svg" width="190" height="100" version="1.0"><defs><clipPath id="a" clipPathUnits="userSpaceOnUse"><path d="M304.02 599.859h36v19.998h-36v-19.998z"/></clipPath></defs><g clip-path="url(#a)" transform="matrix(4.98493 0 0 -4.95018 -1514.159 3070.855)"><path d="M0 0h9.801l1.339 4.962h3.66l-2.144-7.939H-.804L0 0zm-1.376-6.017h13.46L9.94-13.956H6.28l1.34 4.962h-9.8l.804 2.977zm14.561-7.939h10.597c3.978 0 7.915 1.692 8.134 5.799.098 1.828-1.136 3.583-3.002 4.06 2.353.318 3.83 2.488 3.945 4.634.192 3.604-2.703 4.425-6.68 4.425h-7.811l-5.183-18.918zm6.43 7.945h4.594c1.585 0 3.44-.159 3.334-2.146-.108-2.013-1.87-2.815-3.845-2.815h-5.48l1.397 4.961zm2.085 7.74h4.617c1.418 0 2.282-.503 2.205-1.934-.088-1.643-1.496-2.49-3.081-2.49H20.49l1.21 4.424z" style="fill:#33b540;fill-opacity:1;fill-rule:evenodd;stroke:none" transform="translate(307.064 614.749)"/></g></svg>