<svg xmlns="http://www.w3.org/2000/svg" width="140" height="100" version="1.0"><path d="m3.52 57.312.135-4.672c1.084-7.582 7.585-13.338 15.508-13.338.677 0 1.557 0 2.234.065a15.616 15.616 0 0 1 15.643-15.03c.61 0 1.287.067 1.828.132a10.995 10.995 0 0 1-.203-2.096A13.93 13.93 0 0 1 52.615 8.42c7.11 0 12.866 5.42 13.746 12.327C68.121 9.845 77.602 1.584 88.98 1.584c12.595 0 22.888 10.222 22.888 22.885 0 3.59-.813 6.908-2.302 9.957l1.219 1.284c2.708-1.825 6.026-2.909 9.615-2.909 9.616 0 17.471 7.785 17.471 17.4 0 .881-.067 1.762-.203 2.644l-.745 4.4-133.402.067" style="fill:#fff;fill-opacity:1;fill-rule:nonzero;stroke:none"/><path d="M42.322 27.79c-1.625-.677-3.454-1.086-5.282-1.086-7.381 0-13.34 5.96-13.34 13.34 0 .88.067 1.761.27 2.574-1.49-.542-3.182-.948-4.875-.948-7.314 0-13.273 5.959-13.273 13.272h129.136l.407-2.37c.067-.745.135-1.557.135-2.37 0-8.33-6.772-15.098-15.1-15.098-3.793 0-7.314 1.419-9.955 3.724l-3.657-3.928a20.431 20.431 0 0 0 2.844-10.43c0-11.445-9.277-20.652-20.653-20.652-10.903 0-19.841 8.397-20.654 19.094h-4.198v-.54c0-6.367-5.147-11.579-11.512-11.579-6.433 0-11.648 5.212-11.648 11.58 0 1.964.474 3.792 1.287 5.417h.068" style="fill:#23aa4a;fill-opacity:1;fill-rule:nonzero;stroke:none"/><path d="M26.476 98.416H10.495L6.567 61.85H20.45l2.167 21.399h.136l12.053-21.399H49.5L26.476 98.416M62.908 72.007H50.38l2.506-10.226h39.75L90.13 72.007H77.128l-6.636 26.41H56.407l6.5-26.41M97.376 61.85h35.483l-2.505 10.224H109.36l-.88 3.725h18.42l-2.37 9.142h-18.285l-3.453 13.475H88.302l9.074-36.567" style="fill:#0071bc;fill-opacity:1;fill-rule:nonzero;stroke:none"/></svg>