<?xml version="1.0" encoding="UTF-8"?>
<svg enable-background="new 6.8 6.9 1008.9 251.6" version="1.1" viewBox="6.8 6.9 1009 251.6" xml:space="preserve" xmlns="http://www.w3.org/2000/svg">
<title>Abellio logo</title>
<g fill="#4D545E">
<path d="m83.9 121.5c-8.2 0-15.9 2-22.8 6.1-6.9 4-12.5 9.8-16.6 17-4.1 7.4-6.2 15.2-6.2 23.4 0 8 2.1 15.9 6.3 23.4 4.2 7.4 9.8 13.2 16.8 17.3s14.5 6.2 22.5 6.2c8.1 0 15.9-2.1 23.1-6.2 7.2-4 12.8-9.6 16.6-16.4 3.9-7 5.9-14.9 5.9-23.8 0-13.6-4.3-24.6-13.2-33.6s-19.5-13.4-32.4-13.4m-1.9 123.3c-20.7 0-38.6-7.6-53.3-22.6-14.6-15-22-33.4-22-54.7 0-21 7.5-39.2 22.2-54.1 14.8-14.9 32.8-22.5 53.6-22.5 12 0 23.1 2.6 32.9 7.8 4.5 2.4 8.9 5.3 12.9 8.8v-13.2h31v147.1h-31v-12.9c-4.4 3.6-9.1 6.6-13.9 9-9.8 4.8-20.7 7.3-32.4 7.3"/>
<path d="m675.4 76c-5.4 0-10-2-13.8-5.8s-5.8-8.5-5.8-13.9 1.9-10.1 5.8-14c3.8-3.9 8.5-5.8 13.8-5.8 5.4 0 10.1 1.9 14 5.8 3.8 3.8 5.8 8.5 5.8 14 0 5.4-1.9 10-5.8 13.9s-8.6 5.8-14 5.8m15.7 165.4h-31.3v-147.1h31.3v147.1z"/>
<path d="m791.2 121.8c-12.4 0-22.7 4.5-31.6 13.6-9 9.2-13.3 20.1-13.3 33.2 0 8.3 2.1 16.2 6.1 23.4 4 7.1 9.4 12.7 16.2 16.6s14.4 5.8 22.6 5.8 15.8-2 22.6-5.9c6.8-3.8 12.2-9.4 16.2-16.5 4-7.2 6.1-15.1 6.1-23.4 0-13.1-4.4-23.9-13.4-33.2-8.9-9.2-19.2-13.6-31.5-13.6m0.1 123c-22.4 0-40.9-7.8-55.2-23.1-14.1-15.2-21.3-33.2-21.3-53.5 0-20.1 6.8-37.9 20.2-52.7 14.8-16.4 33.7-24.7 56.3-24.7 22.5 0 41.4 8.3 56.2 24.6 13.4 14.8 20.2 32.6 20.2 52.8 0 20.3-7.2 38.4-21.3 53.5-14.3 15.3-32.9 23.1-55.1 23.1"/>
<path d="m305.9 191c-4.1 7.3-9.7 13.1-16.6 17.1s-14.6 6.1-22.8 6.1c-12.9 0-23.5-4.4-32.3-13.4-8.9-9.1-13.2-20.1-13.2-33.7 0-8.8 2-16.8 5.9-23.8 3.9-6.9 9.5-12.4 16.7-16.5 7.3-4.1 15.1-6.2 23.1-6.2 7.9 0 15.4 2.1 22.3 6.2 7 4.1 12.6 9.9 16.7 17.3 4.2 7.5 6.3 15.4 6.3 23.5 0.1 8.1-2 16-6.1 23.4m-37.5-100.2c-11.6 0-22.5 2.4-32.3 7.2-4.8 2.4-9.5 5.4-13.9 8.9v-100h-31.2v234.5h31.3v-13.3c4.1 3.5 8.4 6.5 12.9 8.9 9.8 5.1 20.8 7.8 32.7 7.8 20.8 0 38.8-7.6 53.5-22.5s22.2-33.2 22.2-54.2c0-21.3-7.4-39.7-22-54.6-14.6-15-32.5-22.7-53.2-22.7"/>
<path d="m411.1 132.2c8.1-7.2 17.6-10.8 28.9-10.8 6.8 0 13.5 1.5 19.7 4.4 6.1 2.8 11.1 6.6 14.8 11.2 2.2 2.8 5 7.5 6.9 13h-81.7c3-8.1 7.3-14.2 11.4-17.8m87.6 63.2h-20.7c-2.6 3.5-5 6.3-7.3 8.3-3.8 3.3-8.6 6-14.2 8.1-5.6 2-11.4 3.1-17.3 3.1-12.1 0-22-4.1-30.3-12.7-6.8-7.1-10.9-15.6-12.3-26h101.9v-58.2c-14.8-18-34.6-27.2-58.9-27.2-24.2 0-43.8 9.4-58.3 27.9-11.3 14.4-17 31-17 49.5 0 19.6 6.8 37.4 20.1 52.8 13.6 15.8 32.5 23.8 56.3 23.8 10.6 0 20.3-1.6 28.9-4.9 8.5-3.3 16.3-8.1 23.2-14.4 1.9-1.8 3.9-3.9 5.8-6.2v-23.9z"/></g><g fill="#D30132">
<path d="M596,258.5V7.7h31.3v233.4L596,258.5z"/>
<path d="M529.1,258.5V7.7h31.3v233.4L529.1,258.5z"/>
<path d="m917.6 40.5c-3.5-3.4-8.2-5.5-13.4-5.5h-36.7l13.5-13.6h34.6c1.5 0 2.8 0.7 3.8 1.6l20.1 20.1c3.5 3.4 8.2 5.5 13.4 5.5h36.8l-13.7 13.6h-34.5c-1.5 0-2.8-0.7-3.8-1.7l-20.1-20zm10.5 29.7c3.4 3.5 8.2 5.6 13.4 5.6h40.1l34.1-34-34.1-34h-19.2l27.2 27.2h-36.8c-1.4 0-2.8-0.6-3.7-1.5l-20.1-20.1c-3.4-3.5-8.2-5.6-13.4-5.6h-40.2l-34 34 34 34h19.2l-27.2-27.2h36.7c1.5 0 2.8 0.6 3.7 1.5l20.3 20.1"/>
</g></svg>
