<svg xmlns="http://www.w3.org/2000/svg" width="190" height="65" version="1.0"><path d="M102.693 16.566C111.467 6.33 122.852 2.2 132.34 2.2c13.204 0 28.682 7.996 22.243 29.316-6.921 22.911-24.96 32.41-39.556 32.41-10.75 0-19.781-5.154-20.186-17.024H3.205L17.01 16.566h85.682" style="fill:#ffe600;fill-opacity:1;fill-rule:nonzero;stroke:none"/><path d="M60.691 31.6c3.102-8.383 5.973-11.464 9.686-15.034h32.316c1.519 3.57 2.727 8.055.905 15.035-2.138 8.192-5.216 12.124-8.758 15.301H60.342c-.927-3.837-2.132-8.592.35-15.301M149.873 7.984c-9.097 1.215-14.535 4.424-18.439 10.188-3.552 5.239 1.124 6.38 3.805 7.173 2.945.866 7.484 2.443 7.484 2.443 5.425 1.838 9.988 8.463 6.834 15.32-8.598 14.573-22.697 20.819-34.53 20.819-6.67 0-12.678-1.985-16.375-6.325 13.15 1.575 28.807-3.944 30.7-13.755 1.244-6.447-8.215-8.557-8.215-8.557-10.69-2.683-16.711-8.009-7.719-18.186 8.162-9.235 21.398-12.01 33.038-11.49a20.786 20.786 0 0 1 3.417 2.37" style="fill:#231f20;fill-opacity:1;fill-rule:nonzero;stroke:none"/><path d="M11.87 46.902H50.8c-4.694 5.81-12.5 7.647-19.859 7.647H8.391l3.48-7.647" style="fill:#ed1c29;fill-opacity:1;fill-rule:nonzero;stroke:none"/><path d="m11.87 46.902 13.804-30.336h34.36c-.081.979-.349 2.054-.795 3.216-2.744 7.155-7.736 9.831-12.736 10.95l-.053.132c5.285.991 9.591 4.73 7.142 11.138a17.874 17.874 0 0 1-2.793 4.9H11.871" style="fill:#231f20;fill-opacity:1;fill-rule:nonzero;stroke:none"/><path d="m27.43 43.837 4.054-9.533h5.66c2.742 0 3.582 1.779 2.354 4.798-1.269 3.124-3.697 4.735-6.788 4.735h-5.28M34.34 27.531l3.517-8.269h5.002c2.368 0 3.57 1.277 2.431 4.065-1.312 3.213-3.97 4.204-6.498 4.204h-4.451" style="fill:#ffe600;fill-opacity:1;fill-rule:nonzero;stroke:none"/><path d="m25.674 16.566 3.16-6.941h20.602c7.556 0 10.975 2.49 10.598 6.941h-34.36" style="fill:#ed1c29;fill-opacity:1;fill-rule:nonzero;stroke:none"/><path d="M74.722 31.045c2.494-6.87 7.056-11.327 11.474-11.327 4.363 0 6.009 4.457 3.761 11.327-2.367 7.245-7.323 11.831-12.542 11.831-3.08 0-5.323-4.586-2.693-11.83" style="fill:#ffe600;fill-opacity:1;fill-rule:nonzero;stroke:none"/><path d="M186.801 24.98c0 1.44-1.167 2.58-2.55 2.58h-20.516a2.577 2.577 0 0 1-2.579-2.58V12.2c0-1.437 1.167-2.551 2.579-2.551h20.515a2.548 2.548 0 0 1 2.551 2.55V24.98" style="fill:#ed1c24;fill-opacity:1;fill-rule:nonzero;stroke:none"/><path d="M184.928 24.98V12.2c0-.408-.27-.734-.678-.734h-20.515c-.408 0-.706.326-.706.734V24.98c0 .408.298.734.706.734h20.515c.408 0 .678-.326.678-.734" style="fill:#fff;fill-opacity:1;fill-rule:nonzero;stroke:none"/><path d="M174.916 24.466h4.559c2.115 0 4.125-1.004 4.125-3.392 0-1.465-.978-2.334-2.415-2.742 1.032-.515 1.98-1.33 1.98-2.469 0-2.2-1.22-3.122-3.473-3.122h-4.776v11.725" style="fill:#ed1c24;fill-opacity:1;fill-rule:nonzero;stroke:none"/><path d="M177.709 14.56h.787c.923 0 1.792.299 1.792 1.41 0 1.004-.678 1.412-1.6 1.412h-.979V14.56" style="fill:#fff;fill-opacity:1;fill-rule:nonzero;stroke:none"/><path d="M164.685 24.466H169c3.583-.028 4.669-2.526 4.669-5.917 0-3.907-1.629-5.808-4.669-5.808h-4.314v11.725" style="fill:#ed1c24;fill-opacity:1;fill-rule:nonzero;stroke:none"/><path d="M167.506 14.586h.57c2.552 0 2.796 1.845 2.796 4.207 0 2.58-.869 3.772-2.362 3.772h-1.004v-7.979M177.709 19.553h1.032c1.114 0 1.873.272 1.873 1.465 0 1.223-.897 1.547-1.901 1.547h-1.004v-3.012" style="fill:#fff;fill-opacity:1;fill-rule:nonzero;stroke:none"/></svg>