<svg xmlns="http://www.w3.org/2000/svg" xml:space="preserve" width="1815.74" height="571.81"><path d="M0 0c0-15.789-12.801-28.591-28.59-28.591S-57.179-15.789-57.179 0c0 15.79 12.8 28.59 28.589 28.59C-12.801 28.59 0 15.79 0 0" style="fill:#c1002b;fill-opacity:1;fill-rule:nonzero;stroke:none" transform="matrix(10 0 0 -10 800.69 285.9)"/><path d="M0 0h3.349v-5.217H6.02V0h3.349v-13.95H6.02v5.96H3.349v-5.96H0V0Z" style="fill:#fff;fill-opacity:1;fill-rule:nonzero;stroke:none" transform="matrix(10 0 0 -10 292.029 214.035)"/><path d="M0 0h-.04l-1.176-6.214h2.432L0 0Zm-2.034 2.539h4.187l3.548-13.95H2.232l-.517 2.657h-3.41l-.498-2.657h-3.469l3.628 13.95z" style="fill:#fff;fill-opacity:1;fill-rule:nonzero;stroke:none" transform="matrix(10 0 0 -10 453.083 239.426)"/><path d="M0 0h3.847l2.751-9.064h.042V0h3.109v-13.95H5.96L3.03-4.337h-.04v-9.613H0V0Z" style="fill:#fff;fill-opacity:1;fill-rule:nonzero;stroke:none" transform="matrix(10 0 0 -10 520.847 214.035)"/><path d="M0 0v-.489c0-1.055.299-1.856 1.455-1.856 1.177 0 1.515.86 1.515 1.66 0 3.01-6.119 1.33-6.119 6.545 0 2.229 1.214 4.104 4.664 4.104 3.348 0 4.545-1.66 4.545-3.81v-.332H2.831c0 .664-.08 1.154-.28 1.466-.199.332-.519.488-1.017.488-.836 0-1.336-.488-1.336-1.505 0-2.911 6.121-1.446 6.121-6.369 0-3.165-1.794-4.435-4.864-4.435-2.432 0-4.684.723-4.684 3.635V0H0Z" style="fill:#fff;fill-opacity:1;fill-rule:nonzero;stroke:none" transform="matrix(10 0 0 -10 666.755 310.939)"/><path d="M0 0h.513v-2.103h1.736V0h.513v-5.127h-.513v2.377H.513v-2.377H0V0Z" style="fill:#c1002b;fill-opacity:1;fill-rule:nonzero;stroke:none" transform="matrix(10 0 0 -10 837.302 395.402)"/><path d="m0 0-.566-2.248H.543L0 0Zm-.255.775h.548l1.315-5.127h-.56L.677-2.825H-.729l-.39-1.527h-.547L-.255.775z" style="fill:#c1002b;fill-opacity:1;fill-rule:nonzero;stroke:none" transform="matrix(10 0 0 -10 905.25 403.156)"/><path d="M0 0h.573l1.675-4.029V0h.513v-5.127h-.569L.513-1.069v-4.058H0V0Z" style="fill:#c1002b;fill-opacity:1;fill-rule:nonzero;stroke:none" transform="matrix(10 0 0 -10 945.007 395.402)"/><path d="M0 0h.525c0-.191.018-.377.054-.559.047-.252.222-.429.525-.531.124-.043.253-.063.39-.063.22 0 .408.051.567.153.218.145.328.363.328.656 0 .25-.15.452-.449.606L.823.85c-.459.238-.686.632-.686 1.181 0 .507.142.893.429 1.155.239.22.526.331.859.331h.026c.552 0 .94-.228 1.161-.683.117-.238.175-.555.175-.949v-.029h-.529c0 .292-.033.488-.097.591-.125.282-.366.422-.723.422a.804.804 0 0 1-.496-.162c-.187-.141-.28-.344-.28-.611 0-.168.042-.303.127-.401.047-.051.136-.113.267-.183L2.223.907c.462-.239.693-.636.693-1.188 0-.506-.161-.907-.479-1.203-.227-.211-.547-.317-.96-.317C.492-1.801 0-1.254 0-.162V0Z" style="fill:#c1002b;fill-opacity:1;fill-rule:nonzero;stroke:none" transform="matrix(10 0 0 -10 998.083 429.582)"/><path d="M0 0h2.647v-.646H.513v-1.506h1.972v-.647H.513V-4.48h2.162v-.647H0V0Z" style="fill:#c1002b;fill-opacity:1;fill-rule:nonzero;stroke:none" transform="matrix(10 0 0 -10 1052.703 395.402)"/><path d="m0 0-.564-2.248H.544L0 0Zm-.254.775h.549l1.314-5.127h-.558L.678-2.825H-.728l-.389-1.527h-.548L-.254.775z" style="fill:#c1002b;fill-opacity:1;fill-rule:nonzero;stroke:none" transform="matrix(10 0 0 -10 1117.878 403.156)"/><path d="M0 0h2.942v-.646H1.724v-4.481h-.513v4.481H0V0Z" style="fill:#c1002b;fill-opacity:1;fill-rule:nonzero;stroke:none" transform="matrix(10 0 0 -10 1149.304 395.402)"/><path d="M1907.72 870.154h4.113v-41.016h-4.112v41.016z" style="fill:#c1002b;fill-opacity:1;fill-rule:nonzero;stroke:none" transform="matrix(1.25 0 0 -1.25 -1181.946 1483.098)"/><path d="M0 0h.526c0-.191.019-.377.053-.559.047-.252.222-.429.525-.531.124-.043.253-.063.391-.063.218 0 .408.051.566.153.218.145.329.363.329.656 0 .25-.15.452-.449.606L.824.85c-.459.238-.688.632-.688 1.181 0 .507.143.893.428 1.155.242.22.528.331.861.331h.026c.553 0 .94-.228 1.162-.683.117-.238.175-.555.175-.949v-.029h-.53c0 .292-.032.488-.097.591-.126.282-.367.422-.723.422a.799.799 0 0 1-.495-.162c-.187-.141-.28-.344-.28-.611 0-.168.041-.303.126-.401.048-.051.136-.113.268-.183L2.223.907c.462-.239.692-.636.692-1.188 0-.506-.159-.907-.477-1.203-.228-.211-.548-.317-.96-.317C.493-1.801 0-1.254 0-.162V0Z" style="fill:#c1002b;fill-opacity:1;fill-rule:nonzero;stroke:none" transform="matrix(10 0 0 -10 1233.386 429.582)"/><path d="M0 0h-.509c-.125.703-.464 1.055-1.015 1.055-.384 0-.679-.188-.887-.561-.198-.356-.298-.846-.298-1.469 0-.603.095-1.08.284-1.431.199-.375.484-.562.856-.562a.87.87 0 0 1 .703.347c.188.23.307.562.357.996H0c-.056-.623-.23-1.115-.526-1.477-.279-.341-.618-.513-1.022-.513-.516 0-.926.224-1.226.676-.311.464-.466 1.105-.466 1.926 0 .829.153 1.49.461 1.98.306.49.72.735 1.24.735a1.43 1.43 0 0 0 1.001-.373c.321-.3.5-.743.538-1.329" style="fill:#c1002b;fill-opacity:1;fill-rule:nonzero;stroke:none" transform="matrix(10 0 0 -10 1317.859 411.437)"/><path d="M0 0h.514v-2.103h1.735V0h.513v-5.127h-.513v2.377H.514v-2.377H0V0Z" style="fill:#c1002b;fill-opacity:1;fill-rule:nonzero;stroke:none" transform="matrix(10 0 0 -10 1343.23 395.402)"/><path d="M0 0h2.647v-.646H.512v-1.506h1.972v-.647H.512V-4.48h2.162v-.647H0V0Z" style="fill:#c1002b;fill-opacity:1;fill-rule:nonzero;stroke:none" transform="matrix(10 0 0 -10 1398.474 395.402)"/><path d="M0 0h2.647v-.646H.513v-1.506h1.973v-.647H.513V-4.48h2.161v-.647H0V0Z" style="fill:#c1002b;fill-opacity:1;fill-rule:nonzero;stroke:none" transform="matrix(10 0 0 -10 837.302 479.797)"/><path d="M1657.409 802.642h4.112v-41.016h-4.112v41.016z" style="fill:#c1002b;fill-opacity:1;fill-rule:nonzero;stroke:none" transform="matrix(1.25 0 0 -1.25 -1181.946 1483.098)"/><path d="M0 0h.525c0-.191.018-.377.053-.559.047-.252.223-.429.526-.531.123-.043.252-.063.39-.063.219 0 .408.051.566.153.219.145.328.363.328.656 0 .25-.15.452-.448.606L.823.85c-.459.238-.688.632-.688 1.181 0 .507.143.893.429 1.155.241.22.527.331.859.331h.027c.553 0 .941-.228 1.162-.683.117-.238.175-.555.175-.949v-.029h-.53c0 .292-.032.488-.096.591-.127.282-.367.422-.723.422a.809.809 0 0 1-.497-.162c-.186-.141-.28-.344-.28-.611 0-.168.042-.302.127-.401.046-.051.137-.113.268-.183L2.222.907c.462-.239.692-.636.692-1.188 0-.506-.159-.907-.477-1.203-.229-.211-.548-.317-.961-.317C.492-1.801 0-1.254 0-.162V0Z" style="fill:#c1002b;fill-opacity:1;fill-rule:nonzero;stroke:none" transform="matrix(10 0 0 -10 920.505 513.976)"/><path d="M0 0h2.646v-.646H.513v-1.506h1.972v-.647H.513V-4.48h2.16v-.647H0V0Z" style="fill:#c1002b;fill-opacity:1;fill-rule:nonzero;stroke:none" transform="matrix(10 0 0 -10 975.124 479.797)"/><path d="M0 0h.574l1.675-4.029V0h.513v-5.127h-.569L.512-1.069v-4.058H0V0Z" style="fill:#c1002b;fill-opacity:1;fill-rule:nonzero;stroke:none" transform="matrix(10 0 0 -10 1027.585 479.797)"/><path d="M0 0v-1.703h.843c.571 0 .858.281.858.844 0 .572-.272.859-.815.859H0Zm0 2.131V.646h.868c.447 0 .672.24.672.718 0 .309-.076.523-.225.64-.109.084-.272.127-.491.127H0Zm-.513.646h1.35c.402 0 .692-.093.868-.281.242-.258.364-.602.364-1.034 0-.506-.162-.853-.487-1.04.195-.084.353-.242.472-.472.118-.229.177-.504.177-.823 0-.529-.132-.928-.399-1.195-.187-.188-.502-.282-.946-.282H-.513v5.127z" style="fill:#c1002b;fill-opacity:1;fill-rule:nonzero;stroke:none" transform="matrix(10 0 0 -10 1087.947 507.57)"/><path d="m0 0-.564-2.248H.544L0 0Zm-.255.775h.549l1.315-5.127H1.05L.678-2.825H-.728l-.389-1.527h-.549L-.255.775z" style="fill:#c1002b;fill-opacity:1;fill-rule:nonzero;stroke:none" transform="matrix(10 0 0 -10 1147.996 487.55)"/><path d="M0 0h.513v-2.103h1.735V0h.514v-5.127h-.514v2.377H.513v-2.377H0V0Z" style="fill:#c1002b;fill-opacity:1;fill-rule:nonzero;stroke:none" transform="matrix(10 0 0 -10 1187.76 479.797)"/><path d="M0 0h.574l1.674-4.029V0h.514v-5.127h-.569L.513-1.069v-4.058H0V0Z" style="fill:#c1002b;fill-opacity:1;fill-rule:nonzero;stroke:none" transform="matrix(10 0 0 -10 1242.996 479.797)"/><path d="M0 0h-.518c-.134.694-.468 1.041-1.003 1.041-.389 0-.687-.181-.897-.543-.209-.363-.312-.859-.312-1.486 0-.613.105-1.098.317-1.456.212-.359.508-.537.888-.537.422 0 .741.235.951.708.085.19.137.492.158.902h-1.145v.576H.044v-2.714h-.33l-.116.626-.045-.07c-.28-.451-.654-.676-1.117-.676-.512 0-.923.233-1.232.697-.31.463-.466 1.104-.466 1.919 0 .845.163 1.508.487 1.992.312.472.734.709 1.262.709C-.656 1.688-.151 1.126 0 0" style="fill:#c1002b;fill-opacity:1;fill-rule:nonzero;stroke:none" transform="matrix(10 0 0 -10 1361.169 495.695)"/><path d="M0 0h.731l.939-4.288L2.597 0h.726v-5.127H2.81v4.114l-.907-4.114h-.486L.514-.998v-4.129H0V0Z" style="fill:#c1002b;fill-opacity:1;fill-rule:nonzero;stroke:none" transform="matrix(10 0 0 -10 1389.177 479.797)"/><path d="M0 0v-1.703h.841c.573 0 .859.281.859.844C1.7-.287 1.428 0 .886 0H0Zm0 2.131V.646h.868c.446 0 .67.24.67.718 0 .309-.074.523-.224.64-.108.084-.272.127-.491.127H0Zm-.513.646H.836c.404 0 .692-.093.868-.281.243-.258.365-.602.365-1.034 0-.506-.162-.853-.486-1.04.194-.084.352-.242.47-.472.119-.229.178-.504.178-.823 0-.529-.133-.928-.399-1.195-.187-.188-.503-.282-.946-.282H-.513v5.127z" style="fill:#c1002b;fill-opacity:1;fill-rule:nonzero;stroke:none" transform="matrix(10 0 0 -10 1455.154 507.57)"/><path d="M0 0h.512v-2.103h1.736V0h.514v-5.127h-.514v2.377H.512v-2.377H0V0Z" style="fill:#c1002b;fill-opacity:1;fill-rule:nonzero;stroke:none" transform="matrix(10 0 0 -10 1502.498 479.797)"/><path d="M0 0c-5.027 0-73.156.428-104.999.263a28.92 28.92 0 0 0 1.1-2.165C-63.478-.865 0 0 0 0" style="fill:#c1002b;fill-opacity:1;fill-rule:nonzero;stroke:none" transform="matrix(10 0 0 -10 1815.74 148.35)"/><path d="M0 0c.919 3.075 5.203 10.734 16.634 15.493a28.541 28.541 0 0 0 1.027 3.334C7.065 15.741-2.555 9.796-7.022-1.871c-2.437-6.361 15.96-8.439 30.721-9.09a28.51 28.51 0 0 0-1.151 1.282C10.912-8.188-1.595-5.334 0 0" style="fill:#c1002b;fill-opacity:1;fill-rule:nonzero;stroke:none" transform="matrix(10 0 0 -10 72.41 373.127)"/><path d="M0 0c7.656.387 20.398.783 34.991 1.158a28.91 28.91 0 0 1-1.099 2.165c-7.972-.042-14.23-.12-17.482-.252C7.991 2.73-5.547 2.976-17.781-.59a28.737 28.737 0 0 1-1.028-3.334C-13.936-1.896-7.772-.391 0 0" style="fill:#fff;fill-opacity:1;fill-rule:nonzero;stroke:none" transform="matrix(10 0 0 -10 426.833 178.957)"/><path d="M0 0s-9.01.302-18.61 1.532c.37-.439.755-.866 1.151-1.282C-7.98-.169 0 0 0 0" style="fill:#fff;fill-opacity:1;fill-rule:nonzero;stroke:none" transform="matrix(10 0 0 -10 483.992 485.236)"/><path d="m0 0 .093.082C-14.133.01-62.621-.289-83.34-.729a28.51 28.51 0 0 0 .083-1.688C-56.419-1.227-13.021-.297 0 0" style="fill:#c1002b;fill-opacity:1;fill-rule:nonzero;stroke:none" transform="matrix(10 0 0 -10 1688.269 255.793)"/><path d="m0 0 .041.036c-9.836-.042-57.037-.344-78.769-.803a29.071 29.071 0 0 0-.154-1.653C-50.929-1.161-8.588-.204 0 0" style="fill:#c1002b;fill-opacity:1;fill-rule:nonzero;stroke:none" transform="matrix(10 0 0 -10 1642.488 296.086)"/><path d="m0 0 .01.008C-5.989-.006-52.052-.303-74.693-.77a28.282 28.282 0 0 0-.439-1.789C-46.425-1.16-4.442-.109 0 0" style="fill:#c1002b;fill-opacity:1;fill-rule:nonzero;stroke:none" transform="matrix(10 0 0 -10 1596.775 336.3)"/><path d="m0 0 .047.041c-11.258-.048-66.709-.358-88.706-.827.131-.579.248-1.164.343-1.757C-59.722-1.233-10.149-.226 0 0" style="fill:#c1002b;fill-opacity:1;fill-rule:nonzero;stroke:none" transform="matrix(10 0 0 -10 1735.31 214.396)"/></svg>