<svg xmlns="http://www.w3.org/2000/svg" viewBox="0 0 2657.47 593.04"><defs><style>.cls-2{fill-rule:evenodd;fill:#e2020f}</style></defs><g id="Ebene_2" data-name="Ebene 2"><g id="logo-svg"><g id="logo"><path id="_die_gute_Reise_" d="M828.7 512.21h-33.23v38.92h33.23Zm68 0h-33.24v38.92h33.23v-38.92Zm68 0h-33.26v38.92h33.24v-38.92ZM1168.35 397h-34.28v47.34a103.94 103.94 0 0 0-12.56-5.4q-6.12-2.11-15.7-2.12a46.4 46.4 0 0 0-34 15.64 57.92 57.92 0 0 0-10.81 18.79 73.92 73.92 0 0 0-3.93 25.11q0 26.53 11.66 42.19t31.11 15.65a41.77 41.77 0 0 0 17.73-3.57 74.32 74.32 0 0 0 16.5-11.09v11.59h34.28V397Zm-43.47 128.3a29.63 29.63 0 0 1-9.85 1.84q-11.94 0-17.34-7.39t-5.4-23.76q0-15.58 6.73-24.36t20.18-8.77a42.44 42.44 0 0 1 7.29.69 32.81 32.81 0 0 1 7.58 2.28v54.66a34 34 0 0 1-9.19 4.81Zm110-85.41h-34.28v111.23h34.28Zm.95-42.89h-36.18v27h36.18v-27Zm136.26 92.6q0-25.74-13.1-39.46t-39.12-13.72q-28.22 0-44.4 16.09t-16.18 43.63q0 27.82 17.09 42.88t49.18 15.06a110.21 110.21 0 0 0 22.7-2.18 124.11 124.11 0 0 0 21.84-7v-28.64h-3.8a65 65 0 0 1-16 8.72 56.07 56.07 0 0 1-21 4.06q-17.1 0-25.88-6.93t-9.54-20h78.24v-12.49Zm-78.34-8.42q.77-11.77 7.12-17.13t16.24-5.35q10.63 0 15.67 5.65t5.32 16.83Zm272.61-41.3h-33.23l-1.24 5a49.83 49.83 0 0 0-12.84-5.9 54.47 54.47 0 0 0-15.7-2.13 47.87 47.87 0 0 0-18.73 3.87 42.78 42.78 0 0 0-15.41 10.8 52.91 52.91 0 0 0-10.43 17.43q-3.7 10-3.7 23.77 0 28.73 12.14 42.78t34.52 14.07a43.92 43.92 0 0 0 16.69-3.07 50.54 50.54 0 0 0 13.65-8.32v2.08a46.62 46.62 0 0 1-1.32 11.88 18.89 18.89 0 0 1-4.27 8.12 20.17 20.17 0 0 1-9 5.2 53.07 53.07 0 0 1-15.41 1.83 70.64 70.64 0 0 1-16.12-2.12 103.21 103.21 0 0 1-15.27-4.7h-4.17v27.83a163.92 163.92 0 0 0 18.66 3.36 170.43 170.43 0 0 0 21.89 1.39 101.37 101.37 0 0 0 24.54-2.72 48.09 48.09 0 0 0 18.57-8.87q7.68-6 12-16.74t4.27-26.34v-98.47Zm-43.28 80.62a30.63 30.63 0 0 1-10 1.69q-11.27 0-17-6.34t-5.73-22.38q0-14.46 6.72-22.54t20.18-8.07a45.91 45.91 0 0 1 7.67.74 31.14 31.14 0 0 1 7.2 2v50.41a37.18 37.18 0 0 1-9 4.45Zm181.82-80.61h-34.28v78.83a40.77 40.77 0 0 1-10.25 5 32.3 32.3 0 0 1-9.69 1.69q-6.56 0-10.21-1.69a11.12 11.12 0 0 1-5.46-5.34 25.31 25.31 0 0 1-2.42-9.26q-.52-5.59-.52-14v-55.21h-34.28v72.4q0 20.7 9.53 31.3t27.17 10.6q10.9 0 18.78-3.92a101.39 101.39 0 0 0 17.35-11.43v12.28h34.28V439.91Zm100.46 85.86h-2.84a27.35 27.35 0 0 1-6 2.18 27 27 0 0 1-7 1.19q-6.43 0-9.8-2a10.89 10.89 0 0 1-4.69-5.5 21.9 21.9 0 0 1-1.51-7.84q-.09-4.36-.09-10.21v-39.5h31.9v-24.16h-31.9v-31.8h-34.28v31.8h-14.06v24.16h14.06v52q0 20.4 9.73 28.82t29.67 8.42a115.43 115.43 0 0 0 15.1-.84 92.8 92.8 0 0 0 11.68-2.32v-24.38Zm125.43-36.15q0-25.74-13.1-39.46t-39.12-13.72q-28.2 0-44.39 16.09T1818 496.16q0 27.84 17.09 42.89t49.19 15.05a109.42 109.42 0 0 0 22.69-2.18 123.29 123.29 0 0 0 21.84-7v-28.66H1925a64.72 64.72 0 0 1-16 8.72 56.07 56.07 0 0 1-21 4.06q-17.1 0-25.88-6.93t-9.54-20h78.24v-12.49Zm-78.33-8.41q.75-11.79 7.12-17.14t16.23-5.35q10.64 0 15.67 5.65t5.32 16.84Zm248.35-22.44a19.77 19.77 0 0 1-5.56 6.79 20.52 20.52 0 0 1-9.87 4.06 100.83 100.83 0 0 1-14.63.89h-11.2v-39.7h13.2q6.54 0 11.49.35a26.71 26.71 0 0 1 8.64 1.93 14.78 14.78 0 0 1 7.5 6.24 19.49 19.49 0 0 1 2.18 9.51 23.55 23.55 0 0 1-1.75 9.95Zm11.44 29.17q13.47-6.82 20.74-17.13t7.27-26.64q0-11.9-4.7-19.76a37.78 37.78 0 0 0-12.68-12.83 45.3 45.3 0 0 0-16.9-6.44 135.13 135.13 0 0 0-21.55-1.48h-61.15v147.49h36.27v-54.08h16.89l38.46 54.07h44.54Zm166.26 1.68q0-25.74-13.1-39.46t-39.12-13.72q-28.21 0-44.4 16.09t-16.18 43.63q0 27.84 17.09 42.89t49.2 15.07a109.52 109.52 0 0 0 22.7-2.18 123.29 123.29 0 0 0 21.84-7v-28.66h-3.8a65 65 0 0 1-16.04 8.74 56.07 56.07 0 0 1-21 4.06q-17.1 0-25.88-6.93t-9.54-20h78.24v-12.51Zm-78.34-8.41q.77-11.79 7.12-17.14t16.24-5.35q10.64 0 15.67 5.65t5.32 16.84Zm136.74-41.3h-34.28v111.23h34.28V439.91Zm.95-42.89h-36.18v27h36.18v-27Zm117.45 99.19q-6.45-7.87-19.94-11.54-6.08-1.59-12.1-2.63t-11.27-2.11q-9.49-2.07-12.06-4.15a7.35 7.35 0 0 1-2.56-6.05q0-4.35 5.65-6.73a36.08 36.08 0 0 1 13.97-2.38 59.08 59.08 0 0 1 19.7 3.42 68.55 68.55 0 0 1 17.33 8.86h2.97v-28.12a89.56 89.56 0 0 0-17.14-5.4 101.68 101.68 0 0 0-22.93-2.53q-25.26 0-39.84 10.65t-14.57 26.69q0 12.48 7 20.85t21.56 12.33a108 108 0 0 0 11.82 2.52q6.51 1 10.3 1.93 8 1.69 10.83 3.52t2.85 5.89q0 4.56-4.85 6.88c-3.22 1.56-8.2 2.33-14.9 2.33a61.56 61.56 0 0 1-14.44-1.63 77.14 77.14 0 0 1-12.06-3.91 60.41 60.41 0 0 1-9.54-4.8c-2.25-1.49-4.22-2.86-5.93-4.11H2362v29.31a95.28 95.28 0 0 0 18.61 6.14 111.09 111.09 0 0 0 25.83 2.77q25.72 0 40.55-10.54t14.81-27.78q0-11.79-6.46-19.66Zm134.17-6.59q0-25.75-13.1-39.47t-39.12-13.71q-28.2 0-44.39 16.09t-16.19 43.63q0 27.82 17.09 42.88T2543 554.1a110.21 110.21 0 0 0 22.7-2.18 123.32 123.32 0 0 0 21.84-7v-28.66h-3.8a65 65 0 0 1-16 8.72 56.07 56.07 0 0 1-21 4.06q-17.1 0-25.88-6.93t-9.54-20h78.24Zm-78.34-8.42q.76-11.77 7.13-17.13t16.23-5.35q10.63 0 15.67 5.65t5.32 16.83Zm105.59-77.55 4.37 105h30.95l4.37-105Zm39 121.33h-38.36v26.14h38.36V525Z" data-name="die gute Reise" style="fill-rule:evenodd;fill:#fff"/><g id="Lange-Tours-White"><path d="M1859.48 307c-35.14 0-62.79-7.47-82.18-22.21-20.44-15.53-31.25-38.94-31.25-67.69 0-35 14.29-66.8 40.24-89.43a135 135 0 0 1 41-24.31h-68l-63.15 198.85h-113.2l63.15-198.85h-82L1590 21.79h269.75l-25.11 79c17.39-5.63 36.68-8.52 57.4-8.52 34.58 0 61.83 7.63 81 22.66 20 15.65 30.52 39 30.52 67.58C2003.54 254.65 1943 307 1859.48 307Zm10.82-133.77c-10.11 14.32-18 38.39-18 54.82 0 10 3.87 10 8 10 5.41 0 12.09-1.6 20.6-13.45 10.31-14.27 18.36-38.31 18.36-54.77 0-10-3.87-10-8-10-5.26 0-12.41 1.53-20.96 13.4Zm-855.68 133.43c-46 0-79.89-9-103.49-27.44-24.66-19.28-37.13-48.47-37.13-86.76 0-51.13 17.83-95 51.56-126.77S1006.21 17 1061.13 17c38.26 0 70.69 7.48 93.78 21.63 24.87 15.23 38.56 38 38.56 64.16v.39a150 150 0 0 1-1.28 16.55l-1.84 14h2.65l-50.1 156.15-9.23 2.27a501.76 501.76 0 0 1-119 14.53Zm45-210.14c-20.59 0-38.66 8.62-50.88 24.26l-.09.12c-13.64 17.15-23.92 48.21-23.92 72.25 0 16.13 4.36 32.62 36.7 32.62 10.72 0 23.41-1.34 36.25-2.94l3.27-10.29h-58.28l25.27-78.83h57.41v-17.23c0-6.97 0-19.96-25.73-19.96Zm1009.26 209.79c-42.74 0-71.45-24.71-71.45-61.49a86.81 86.81 0 0 1 4.23-26.8l38.93-121.62h108.64l-40 125.78a48.35 48.35 0 0 0-2.3 10.68 8.42 8.42 0 0 0 1.31.09c6.6 0 18.88 0 29.9-35.29l32.13-101.26h108.21l-47 149.34c-.59 1.92-1.25 4-2 6.26a294.19 294.19 0 0 0-9.67 36.38l-2.63 13.82h-109.8l.8-2.55c-12.18 4.55-24.98 6.66-39.3 6.66Zm445.69 0c-32.68 0-55.58-4.33-72.06-13.61-19.08-10.75-29.2-28.52-29.27-51.4a78.33 78.33 0 0 1 1-14.59l2.3-14.29h48.2c-9.45-6.43-19.23-15.89-24-29.62l-.89 2.66-15.28-3.92a104.39 104.39 0 0 0-24.62-3.23c-14.93 0-20.77 3.22-32.47 40.46L2341 302.2h-108.62l48.23-152.2c4.12-13.22 8.08-26.3 10.9-40l2.78-13.58H2400l-.33 1.06a64.07 64.07 0 0 1 24.94-5.17c8.72 0 17.38 1.71 25.51 3.46l18.61 4-4.4 13.06c1.62-1.18 3.3-2.3 5.06-3.38 18.52-11.38 44.4-17.15 76.92-17.15 28 0 50.14 4.53 65.84 13.48 18.25 10.39 28.3 27.2 28.3 47.33 0 4-.37 7.93-.75 12.09l-1.5 16.2h-42c23.63 15.21 27.59 35.89 27.59 48 .05 37.19-28.66 76.91-109.22 76.91Zm-3.36-72.2q-.06 1.24-.06 2.49a3.45 3.45 0 0 0 .36 1.92c.56.47 2.47 1.28 6.08 1.28a19.24 19.24 0 0 0 5.23-.64c-1-.52-2.4-1.16-4.25-1.94Zm-1358.84 68.1 89.07-280.42h236.79l-25.45 80.89h-124.11l-3.82 11.86h116.72l-25.1 79.52h-116.84l-8.58 27.26h128.19l-25.45 80.89Zm-459.83 0-20.8-123.59-35.6 123.59H443.2l-2.64-50.31h-82l-34.79 50.31H23.24l89.07-280.42H225.1L162 221.32h102.62L409.45 21.79h113.73l26.74 220.58L620 21.79h129.64l21.24 125.27 35.5-125.27h105.25L823 302.21Zm-257.71-128.8L433 142.83l-20.45 30.58Z" class="cls-2"/><path d="M1061.13 34c72.61 0 115.34 28.06 115.34 68.79a134.29 134.29 0 0 1-1.14 14.72h-73v-1c0-24-15.12-37-42.73-37-25.71 0-48.78 11-64.28 30.8-15.51 19.51-27.61 53.73-27.61 82.83 0 32.51 18.53 49.62 53.7 49.62 14.37 0 30.63-2.05 49.16-4.45l13.61-42.78H1026l14.37-44.83h129.32l-40.08 124.92a484.66 484.66 0 0 1-115 14c-83.19 0-123.65-31.15-123.65-97.2C891 98.68 957.52 34 1061.13 34m-325.85 4.79 25 147.17a425 425 0 0 1 5.29 51.33c3.78-22.24 8.7-39 12.1-51.68l41.6-146.82h69.2l-77.9 246.42H706.92l-23.44-139.3a517.55 517.55 0 0 1-6.81-59.55A379.93 379.93 0 0 1 665 140.78l-41.6 144.43h-69.2l78.22-246.42h102.86m-227.17 0L538 285.21h-78.67l-2.65-50.31h-107l-34.79 50.31h-70.65l3.82-12.14L418.11 38.79h90M380.68 190.41h72.22l-6-98.91-66.17 98.91M1836.47 38.79l-15.12 47.57h-74.5l-63.15 198.85h-77.52l63.15-198.85h-82l15.12-47.57h234.07m-381.41 0-14.75 46.89h-124l-14.75 45.86h116.85L1404 177.06h-116.84l-19.28 61.26h128.19l-14.75 46.89h-205.71l78.27-246.42h201.18m-1253.17 0-63.15 199.53H259l-10.93 34.75-8.81 12.14H46.47l78.28-246.42h77.14m2344.44 70.5c50.3 0 77.14 15.4 77.14 43.81 0 3.42-.37 7.18-.75 11.29H2560a52.7 52.7 0 0 0 .37-5.47c0-11.3-6.8-17.12-19.66-17.12-12.48 0-20.42 5.82-20.42 14.38 0 7.53 6.43 14 19.29 19.16l35.16 14c21.18 8.56 32.15 22.25 32.15 40 0 35.93-32.53 59.89-92.27 59.89-57.48 0-84.33-14.37-84.33-48.26a62 62 0 0 1 .76-11.63h63.53a69.12 69.12 0 0 0-.38 7.19c0 12.66 9.07 20.19 23.44 20.19 14.75 0 24.2-7.53 24.2-17.45 0-9.25-6.05-13.35-16.63-17.8l-34-14.38c-24.95-10.61-36.3-23.61-36.3-42.44 0-34.9 32.14-55.44 91.51-55.44m-121.7 0c6.81 0 14 1.37 21.93 3.08L2428.88 165a120.6 120.6 0 0 0-28.74-3.77c-29.12 0-37.81 17.46-48.78 52.36l-22.69 71.53h-73l41.22-130c4.16-13.35 8.32-27 11.34-41.75H2377l-9.83 31.83c20.42-23.62 38.19-35.94 57.48-35.94m-532.63 0c62 0 94.54 26.36 94.54 73.24 0 60.58-50.67 107.47-127.06 107.47-63.15 0-96.43-25.67-96.43-72.9 0-60.58 48.78-107.81 129-107.81m-31.76 145.8c13.61 0 24.58-6.84 34.41-20.53 12.85-17.8 21.55-45.18 21.55-64.69 0-17.45-9.45-27-25-27-13.61 0-25 6.85-34.79 20.54-12.1 17.11-21.17 44.83-21.17 64.68 0 17.46 9.45 27 25 27m395-141.66-40.08 127.31c-3 9.93-8.32 24.64-12.1 44.49h-72.61l7.94-25.32c-21.93 20.53-42.35 29.43-69.58 29.43-32.89 0-54.45-16.77-54.45-44.49a69.82 69.82 0 0 1 3.4-21.56L2053 113.4h73l-32.89 103.36a65.34 65.34 0 0 0-3.41 19.5c0 7.19 7.56 13.69 18.53 13.69 22.69 0 36.3-15.74 46.13-47.23l28.37-89.32h72.6M1061.13 0c-29.38 0-56.92 4.58-81.87 13.6a189.52 189.52 0 0 0-57.57 32.78l13.15-41.59H793.52l-7 24.73L775.05 70l-6.25-36.89L764 4.79H607.55L600 28.5l-42.62 134.21-15.51-128-3.63-29.92H400.78l-10.18 14L256 204.32h-70.84l49.15-155.27 14-44.26H99.88L92.35 28.5 14.07 274.91 0 319.21h332.71l10.14-14.67 24.65-35.64h56.93l.95 18.09 1.69 32.22h221.87l7.06-24.59 11.36-39.46 6 35.69 4.77 28.36h157.31l7.56-23.75 19.34-61.17a121 121 0 0 0 4.92 14.31 108 108 0 0 0 33.44 44c26.72 20.89 64 31.05 114 31.05A519.47 519.47 0 0 0 1132.06 310l-2.92 9.21h277.13l7.48-23.8 14.75-46.89 13.91-44.2h-11.35l5.37-17 14.37-45.51 7-22.1h7.48l7.48-23.8L1487.49 49l13.91-44.2H1229l-7.53 23.71-15.1 47.49a86.42 86.42 0 0 0-8.75-19c-8-13-19.36-24.06-33.83-32.92C1138 8.34 1102.53 0 1061.13 0Zm-19.36 116.71a49.88 49.88 0 0 1 17.85-3.19 30.87 30.87 0 0 1 8.63 1 19 19 0 0 1 .1 2v.23ZM1883 4.79h-305.47l-7.53 23.7-15.12 47.57-14.08 44.3h82.06l-49.09 154.56-14.06 44.29h148.87l7.52-23.71 16.11-50.71a93.34 93.34 0 0 0 34.8 53.54c22.42 17 53.53 25.67 92.47 25.67a193.37 193.37 0 0 0 63.16-10.13 154.55 154.55 0 0 0 51.36-29.22 140.11 140.11 0 0 0 11.63-11.33 72.74 72.74 0 0 0 22.4 30.61c15.73 12.68 36.79 19.38 60.9 19.38a132.14 132.14 0 0 0 33.7-4.11h250.88l7.53-23.72 22.64-71.48c2.36-7.52 5.16-16 8.06-22.15a25.41 25.41 0 0 1 3.56-6 18 18 0 0 1 4.56-.44c1.13 0 2.25.05 3.38.11h-1.22l-4.59 28.48a96.44 96.44 0 0 0-1.19 17.56c.07 14.11 3.24 26.87 9.41 37.91a72.9 72.9 0 0 0 28.51 28c19.14 10.78 44.69 15.8 80.41 15.8 36.09 0 65.52-7.49 87.5-22.25 25-16.8 38.77-42.24 38.77-71.64a71.35 71.35 0 0 0-7-31h19.83l2.86-30.87.06-.73c.41-4.38.83-8.9.83-13.69 0-26.51-13.1-48.56-36.88-62.1-18.56-10.57-42.85-15.71-74.26-15.71-25.16 0-46.93 3.28-65 9.79l-27.59-6c-9-1.94-18.7-3.84-29.09-3.84a79.92 79.92 0 0 0-25.16 4.11h-371.26l-7.56 23.66-10.22 31.9a93.24 93.24 0 0 0-26.9-33.36c-22.24-17.44-53-26.28-91.5-26.28a220.9 220.9 0 0 0-32.18 2.29l9-28.49L1883 4.79Z" style="fill:#e2020f"/></g><g id="Lange-Tours-White-2" data-name="Lange-Tours-White"><path d="M1859.48 298.5c-91.3 0-104.93-51-104.93-81.4 0-32.55 13.25-62 37.32-83 25-21.77 59.59-33.28 100.13-33.28 32.63 0 58.12 7 75.77 20.85 18.09 14.18 27.27 34.67 27.27 60.89a108.3 108.3 0 0 1-37.81 82.87c-24.93 21.62-58.73 33.07-97.75 33.07Zm31.76-147.17c-10.69 0-19.55 5.4-27.89 17-11 15.5-19.57 41.75-19.57 59.72 0 12.48 5.38 18.54 16.46 18.54 10.58 0 19.07-5.24 27.5-17 11.39-15.77 20-41.43 20-59.73 0-12.47-5.38-18.54-16.46-18.54Zm-876.62 146.83c-44.06 0-76.2-8.39-98.26-25.64-22.49-17.58-33.89-44.52-33.89-80.06 0-99.86 71.8-167 178.66-167 36.69 0 67.59 7 89.34 20.37 22.25 13.64 34.5 33.85 34.5 56.92v.2a145.82 145.82 0 0 1-1.21 15.63l-1 7.39h-88.93v-9.53c0-7 0-28.46-34.23-28.46-23.27 0-43.72 9.78-57.58 27.53-15 18.84-25.81 51.45-25.81 77.6 0 27.67 14.78 41.12 45.2 41.12 12.73 0 27.79-1.77 42.7-3.69l8.45-26.54h-58.26l19.82-61.83h147.17L1136.2 282.7l-4.61 1.14a493.77 493.77 0 0 1-117 14.28Zm1054.26-.35c-38.24 0-63-20.8-63-53a78.46 78.46 0 0 1 3.81-24.18l37.11-115.73h90.8l-36.46 114.57a57.1 57.1 0 0 0-3 16.84c.06 1.88 3.41 5.14 10 5.14 12.43 0 26.66-4.9 38-41.26l30.26-95.29h90.41l-43.56 138.36c-.56 1.84-1.22 3.91-1.94 6.16a306.1 306.1 0 0 0-9.92 37.37l-1.32 6.91H2119l3.28-10.48c-16.41 10.08-33.35 14.59-53.4 14.59Zm445.69 0c-39.82 0-92.74-5.88-92.83-56.63a70.36 70.36 0 0 1 .87-13.12l1.15-7.14h78.06l-14-5.92c-17.82-7.58-41.49-21-41.49-50.27 0-40.63 36.45-63.94 100-63.94 74.51 0 85.64 32.77 85.64 52.31 0 3.61-.35 7.36-.72 11.33l-.78 8.46h-74.15l21.52 8.59c31 12.52 37.5 33 37.5 47.94 0 20.94-9.51 38.39-27.49 50.48-17.7 11.88-42.35 17.91-73.28 17.91ZM2503 230.32a59.76 59.76 0 0 0-.33 6.28c0 9.67 8.12 11.7 14.94 11.7 9.24 0 15.7-3.68 15.7-9 0-3.2-.55-5.4-11.43-10l-18-7.59Zm37.68-80c-5.93 0-11.92 1.82-11.92 5.88 0 3.57 5.21 7.78 13.94 11.27l8 3.17.88-7.25a42.89 42.89 0 0 0 .31-4.52c-.08-4.53-.97-8.57-11.23-8.57Zm-946.1 143.41 63.15-198.85h-82l20.52-64.57h251.91l-20.52 64.57h-74.5l-63.15 198.85Zm-430.57 0 83.67-263.42h219l-20.09 63.89h-124.12l-9.28 28.8H1430l-19.74 62.52H1293.4l-13.93 44.26h128.18l-20.09 63.89Zm-464.26 0-24.66-146.41c-.4-2.32-.79-4.66-1.16-7-.27 1-.55 1.91-.83 2.86l-43.36 150.53H451.27l-2.65-50.31h-94.49l-34.79 50.31H34.86l83.67-263.42h95l-63.18 199.53H269L413.78 30.29h101.86l30.54 251.91 80-251.91h116.28l26.16 154.25.18 1.15.65-2.39 43.35-153H900l-83.24 263.41ZM443.87 181.91l-4-64.74-43.32 64.74ZM2244 293.7l44.73-141.12c4.19-13.47 8.21-26.76 11.11-40.89l1.4-6.79h87.27l-3.43 11.1c13.5-10.37 26.27-15.18 39.55-15.18 7.89 0 16 1.62 23.72 3.27l9.3 2-23.33 69.2-7.64-2a112.5 112.5 0 0 0-26.72-3.5c-22.4 0-29.46 11-40.58 46.41l-24.58 77.5Z" style="fill:#fff;fill-rule:evenodd"/><path d="M1061.13 34c72.61 0 115.34 28.06 115.34 68.79a134.29 134.29 0 0 1-1.14 14.72h-73v-1c0-24-15.12-37-42.73-37-25.71 0-48.78 11-64.28 30.8-15.51 19.51-27.61 53.73-27.61 82.82 0 32.52 18.53 49.63 53.7 49.63 14.37 0 30.63-2.05 49.16-4.45l13.61-42.78H1026l14.37-44.83h129.32l-40.08 124.92a484.66 484.66 0 0 1-115 14c-83.19 0-123.65-31.15-123.65-97.2C891 98.68 957.52 34 1061.13 34m-325.85 4.79 25 147.17a425 425 0 0 1 5.29 51.33c3.78-22.24 8.7-39 12.1-51.68l41.6-146.82h69.2l-77.9 246.42H706.92l-23.44-139.3a517.55 517.55 0 0 1-6.81-59.55A379.93 379.93 0 0 1 665 140.78l-41.6 144.43h-69.2l78.22-246.42h102.86m-227.17 0L538 285.21h-78.67l-2.65-50.31h-107l-34.79 50.31h-70.65l3.82-12.14L418.11 38.79h90M380.68 190.41h72.22l-6-98.91-66.17 98.91M1836.47 38.79l-15.12 47.57h-74.5l-63.15 198.85h-77.52l63.15-198.85h-82l15.12-47.57h234.07m-381.41 0-14.75 46.89h-124l-14.75 45.86h116.85L1404 177.06h-116.84l-19.28 61.26h128.19l-14.75 46.89h-205.71l78.27-246.42h201.18m-1253.17 0-63.15 199.53H259l-10.93 34.75-8.81 12.14H46.47l78.28-246.42h77.14m2344.44 70.5c50.3 0 77.14 15.4 77.14 43.81 0 3.42-.37 7.18-.75 11.29H2560a52.71 52.71 0 0 0 .37-5.48c0-11.29-6.8-17.11-19.66-17.11-12.48 0-20.42 5.82-20.42 14.38 0 7.53 6.43 14 19.29 19.16l35.16 14c21.18 8.56 32.15 22.25 32.15 40 0 35.93-32.53 59.89-92.27 59.89-57.48 0-84.33-14.37-84.33-48.26a62 62 0 0 1 .76-11.63h63.53a69.12 69.12 0 0 0-.38 7.19c0 12.66 9.07 20.19 23.44 20.19 14.75 0 24.2-7.53 24.2-17.45 0-9.25-6.05-13.36-16.63-17.8l-34-14.38c-24.95-10.61-36.3-23.61-36.3-42.44 0-34.91 32.14-55.44 91.51-55.44m-121.7 0c6.81 0 14 1.37 21.93 3.08L2428.88 165a120.6 120.6 0 0 0-28.74-3.77c-29.12 0-37.81 17.46-48.78 52.36l-22.69 71.53h-73l41.22-130c4.16-13.35 8.32-27 11.34-41.75H2377l-9.83 31.83c20.42-23.62 38.19-35.94 57.48-35.94m-532.63 0c62 0 94.54 26.35 94.54 73.24 0 60.58-50.67 107.47-127.06 107.47-63.15 0-96.43-25.67-96.43-72.9 0-60.58 48.78-107.81 129-107.81m-31.76 145.8c13.61 0 24.58-6.85 34.41-20.54 12.85-17.79 21.55-45.17 21.55-64.68 0-17.45-9.45-27-25-27-13.61 0-25 6.85-34.79 20.54-12.1 17.11-21.17 44.83-21.17 64.68 0 17.46 9.45 27 25 27m395-141.66-40.08 127.31c-3 9.93-8.32 24.64-12.1 44.49h-72.61l7.94-25.32c-21.93 20.53-42.35 29.43-69.58 29.43-32.89 0-54.45-16.77-54.45-44.49a69.82 69.82 0 0 1 3.4-21.56L2053 113.4h73l-32.89 103.35a65.46 65.46 0 0 0-3.41 19.51c0 7.19 7.56 13.69 18.53 13.69 22.69 0 36.3-15.74 46.13-47.23l28.37-89.32h72.6M1061.13 17c-27.4 0-53 4.23-76.08 12.59a170.66 170.66 0 0 0-59.52 36.1 158.93 158.93 0 0 0-38.28 56C878.44 143.3 874 167.1 874 192.46c0 38.29 12.5 67.48 37.16 86.76 23.6 18.46 57.46 27.44 103.49 27.44a501.82 501.82 0 0 0 119-14.53l9.22-2.27 2.91-9 40.08-124.92 7.12-22.19h-2.64l1.85-14a150.36 150.36 0 0 0 1.28-16.56v-.39c0-26.14-13.69-48.93-38.56-64.16-23.09-14.16-55.52-21.64-93.78-21.64Zm-39.7 208.77c-13.09 0-22.68-2.73-28.5-8.11-5.44-5-8.2-13.27-8.2-24.52 0-24 10.28-55.09 23.92-72.24v-.12c12.22-15.64 30.29-24.26 50.88-24.26 25.73 0 25.73 13 25.73 20v17.23h-57.41l-3.79 11.81-14.37 44.83-7.11 22.19H1061l-3.27 10.29c-12.84 1.6-25.52 2.94-36.25 2.94Zm-271.79-204H620l-3.77 11.85-66.3 208.73L525 36.74l-1.81-15H409.45l-5.1 7-139.73 192.58H162l56.1-177.4 7-22.13H112.31l-3.76 11.86-78.28 246.41-7 22.15h300.52l5.07-7.33 29.72-43h82l1.79 34.2.85 16.11h192.92l3.54-12.3 32.06-111.29L690.15 288l2.39 14.18H823l3.76-11.88 77.9-246.41 7-22.13H806.38l-3.51 12.37-32 112.9L752 36l-2.4-14.16ZM412.51 173.41 433 142.83l1.87 30.58Zm1447.2-151.62H1590l-3.76 11.85-15.12 47.57-7 22.15h82L1590 280.06l-7 22.15h113.2l3.76-11.86 59.39-187h68a135 135 0 0 0-41 24.31c-26 22.63-40.24 54.39-40.24 89.43 0 28.75 10.8 52.16 31.25 67.69 19.39 14.74 47 22.21 82.18 22.21a176.53 176.53 0 0 0 57.62-9.2 137.79 137.79 0 0 0 45.7-26 116.68 116.68 0 0 0 40.74-89.29c-.06-28.5-10.6-51.9-30.6-67.5-19.18-15-46.43-22.66-81-22.66-20.72 0-40 2.89-57.4 8.52l3-9.3 15.12-47.57 7-22.15Zm10.59 151.44c8.39-11.65 15.41-13.34 20.63-13.4h.31c4.09 0 8 0 8 10 0 16.45-8 40.5-18.33 54.73-8.54 11.89-15.22 13.49-20.63 13.49-4.09 0-8 0-8-10 0-16.43 7.91-40.5 18-54.82ZM1478.23 21.79h-236.79l-3.76 11.86-78.27 246.41-7 22.15h241.42l3.75-11.9 14.75-46.89 7-22.1h-128.28l8.58-27.26h116.84l3.75-11.88 14.37-45.52 7-22.12h-116.74l3.82-11.86h124.11l3.75-11.9 14.75-46.89 7-22.1Zm1068.1 70.5c-32.52 0-58.4 5.77-76.92 17.15a80.904 80.904 0 0 0-5.06 3.38l4.4-13.06-18.61-4c-8.13-1.75-16.79-3.46-25.51-3.46a64 64 0 0 0-24.93 5.17l.32-1.06h-105.73l-2.78 13.59c-2.82 13.74-6.77 26.8-10.91 40.09l-41.21 130-7 22.13H2341l3.76-11.86 22.69-71.53c11.72-37.28 17.56-40.49 32.49-40.5a103.73 103.73 0 0 1 24.61 3.24l15.29 3.91.88-2.61a52.43 52.43 0 0 0 10 17.26 69.32 69.32 0 0 0 14.13 12.31h-48.33l-2.3 14.29a78.33 78.33 0 0 0-1 14.59c.07 22.88 10.19 40.65 29.27 51.4 16.48 9.28 39.38 13.61 72.06 13.61s58.9-6.51 78-19.36c20.15-13.54 31.25-34 31.25-57.53 0-12.14-4-32.83-27.57-48h41.95l1.43-15.43.07-.74c.38-4.18.75-8.12.75-12.12a52.47 52.47 0 0 0-7.45-27.65 56.58 56.58 0 0 0-20.85-19.68c-15.7-9-37.86-13.48-65.84-13.48Zm-28.74 147.51c-3.61 0-5.52-.81-6.08-1.28a3.43 3.43 0 0 1-.36-1.91c0-.83 0-1.67.06-2.5l7.34 3.1c1.86.78 3.25 1.43 4.27 1.95a19.24 19.24 0 0 1-5.23.64ZM2278.48 96.4h-108.21l-3.76 11.85-28.37 89.33c-11 35.29-23.3 35.29-29.9 35.29a8.42 8.42 0 0 1-1.31-.09 48.35 48.35 0 0 1 2.3-10.68l.05-.13v-.14l32.89-103.36 7.05-22.15h-108.63l-3.78 11.81-35.17 109.86a86.83 86.83 0 0 0-4.21 26.76c0 18.54 7.54 34.84 21.22 45.87 12.68 10.21 30 15.61 50.23 15.61 14.32 0 27.16-2.11 39.3-6.66l-.81 2.55h109.83l2.63-13.82a294.19 294.19 0 0 1 9.67-36.3c.71-2.22 1.38-4.32 2-6.28l40.05-127.22 6.95-22.1Z" style="fill:#fff"/></g><path id="Lange-Tours-Red" d="M46.47 285.21h197.77L259 238.32H138.74l63.15-199.53h-77.14Zm192.78 0h75.63l34.79-50.31h107l2.65 50.31H538L508.11 38.79h-90Zm141.43-94.8 66.17-98.91 6 98.91Zm173.47 94.8h69.2L665 140.78a379.93 379.93 0 0 0 11.72-54.42 517.55 517.55 0 0 0 6.81 59.55l23.44 139.3h103.56l77.9-246.42h-69.2l-41.6 146.82c-3.4 12.67-8.32 29.44-12.1 51.68a425 425 0 0 0-5.29-51.29l-25-147.17H632.42Zm615.51-134.5h-129.32L1026 195.54h58.23l-13.61 42.78c-18.53 2.4-34.79 4.45-49.16 4.45-35.17 0-53.7-17.11-53.7-49.63 0-29.09 12.1-63.31 27.61-82.82 15.5-19.85 38.57-30.8 64.28-30.8 27.61 0 42.73 13 42.73 37v1h73a134.29 134.29 0 0 0 1.14-14.72c0-40.73-42.73-68.79-115.34-68.79C957.52 34 891 98.68 891 192.46c0 66 40.46 97.2 123.65 97.2a484.66 484.66 0 0 0 115-14Zm5.95 134.5h205.71l14.75-46.89h-128.19l19.28-61.26H1404l14.37-45.52h-116.84l14.75-45.86h124l14.75-46.89h-201.15Zm430.57 0h77.52l63.15-198.85h74.5l15.12-47.57H1602.4l-15.12 47.57h82Zm285.06-142.38c15.51 0 25 9.59 25 27 0 19.51-8.7 46.89-21.55 64.68-9.83 13.69-20.8 20.54-34.41 20.54-15.51 0-25-9.58-25-27 0-19.85 9.07-47.57 21.17-64.68 9.84-13.69 21.18-20.54 34.79-20.54ZM1859.48 290c76.39 0 127.06-46.89 127.06-107.47 0-46.89-32.52-73.24-94.54-73.24-80.17 0-129 47.23-129 107.81.05 47.23 33.33 72.9 96.48 72.9Zm395.83-176.6h-72.6l-28.37 89.32c-9.83 31.49-23.44 47.23-46.13 47.23-11 0-18.53-6.5-18.53-13.69a65.46 65.46 0 0 1 3.41-19.51L2126 113.4h-73l-35.17 109.86a69.82 69.82 0 0 0-3.4 21.56c0 27.72 21.56 44.49 54.45 44.49 27.23 0 47.65-8.9 69.58-29.43l-7.94 25.32h72.61c3.78-19.85 9.07-34.56 12.1-44.49Zm.29 171.8h73l22.69-71.53c11-34.9 19.66-52.36 48.78-52.36a120.6 120.6 0 0 1 28.74 3.77l17.77-52.71c-7.94-1.71-15.12-3.08-21.93-3.08-19.29 0-37.06 12.32-57.48 35.94l9.83-31.83h-68.82c-3 14.71-7.18 28.4-11.34 41.75Zm238.93-55.78H2431a61.19 61.19 0 0 0-.76 11.63c0 33.89 26.85 48.26 84.33 48.26 59.74 0 92.27-24 92.27-59.89 0-17.8-11-31.49-32.15-40l-35.16-14c-12.86-5.13-19.29-11.63-19.29-19.16 0-8.56 7.94-14.38 20.42-14.38 12.86 0 19.66 5.82 19.66 17.11a52.71 52.71 0 0 1-.37 5.48h62.77c.38-4.11.75-7.87.75-11.29 0-28.41-26.84-43.81-77.14-43.81-59.37 0-91.51 20.53-91.51 55.44 0 18.83 11.35 31.83 36.3 42.44l34 14.38c10.58 4.44 16.63 8.55 16.63 17.8 0 9.92-9.45 17.45-24.2 17.45-14.37 0-23.44-7.53-23.44-20.19a69.12 69.12 0 0 1 .38-7.19Z" class="cls-2"/></g></g></g></svg>