<svg xmlns="http://www.w3.org/2000/svg" xmlns:xlink="http://www.w3.org/1999/xlink" width="500" height="75.053" version="1.2" viewBox="0 0 375 56.289"><defs><symbol id="c" overflow="visible" style="overflow:visible"><path d="M4.703-11.219H6.86L11.188 0h-2.22l-.874-2.313H3.516L2.594 0H.375ZM5.797-8.25l-1.5 3.86H7.28Zm0 0" style="stroke:none"/></symbol><symbol id="d" overflow="visible" style="overflow:visible"><path d="M1.422-11.219h2.266c1.238 0 2.124.11 2.656.328.531.22.953.59 1.265 1.11.32.511.485 1.117.485 1.812 0 .742-.18 1.36-.531 1.86-.356.492-.887.867-1.594 1.125L8.625 0H6.281L3.766-4.75h-.204V0h-2.14Zm2.14 4.375h.672c.676 0 1.145-.086 1.407-.265.257-.176.39-.47.39-.875A1.045 1.045 0 0 0 5.313-9c-.211-.082-.594-.125-1.157-.125h-.593Zm0 0" style="stroke:none"/></symbol><symbol id="e" overflow="visible" style="overflow:visible"><path d="m11.64-9.39-1.5 1.484c-.949-1.008-2.058-1.516-3.328-1.516-1.105 0-2.03.371-2.78 1.11-.743.73-1.11 1.62-1.11 2.671 0 1.086.383 2 1.156 2.75.77.75 1.723 1.125 2.86 1.125.738 0 1.359-.148 1.859-.453.508-.312.922-.8 1.234-1.469h-3.25v-2h5.64l.017.47c0 .98-.258 1.913-.766 2.796-.5.875-1.156 1.547-1.969 2.016C8.891.05 7.941.28 6.86.28c-1.168 0-2.21-.25-3.125-.75C2.828-.977 2.11-1.703 1.578-2.64a6.04 6.04 0 0 1-.797-3.03c0-1.477.489-2.77 1.469-3.876 1.164-1.3 2.68-1.953 4.547-1.953.976 0 1.89.18 2.734.531.719.313 1.422.84 2.11 1.578zm0 0" style="stroke:none"/></symbol><symbol id="f" overflow="visible" style="overflow:visible"><path d="M1.297-11.219h6.125v2.094H3.406v2.016h4.016v2.062H3.406v2.953h4.016V0H1.297zm0 0" style="stroke:none"/></symbol><clipPath id="a"><path d="M1210.727 38H1227v4h-16.273zm0 0"/></clipPath><clipPath id="b"><path d="M1360 37h6.633v9H1360Zm0 0"/></clipPath></defs><path d="M1230.098 30.012a11.704 11.704 0 0 0-10.52 6.562h12.379c3.762-.215 4.41 2.133 4.375 3.399-.117 4.144-5.098 3.25-5.098 3.25l.035 4.3s-6.113-.082-11.375-.082c2.008 3.567 5.825 5.973 10.204 5.973 6.464 0 11.707-5.242 11.707-11.703 0-6.461-5.243-11.7-11.707-11.7" style="fill:#2859a6;fill-opacity:1;fill-rule:nonzero;stroke:none" transform="translate(-2912.151 -72.187) scale(2.40529)"/><path d="M1227.164 42.734h-12.574c.516 1.215 2.09 2.86 4.676 3.047.12.012.488.02.488.02h8.809zm0 0" style="fill:#fac20f;fill-opacity:1;fill-rule:nonzero;stroke:none" transform="translate(-2912.151 -72.187) scale(2.40529)"/><g clip-path="url(#a)" style="clip-rule:nonzero" transform="translate(-2912.151 -72.187) scale(2.40529)"><path d="M1225.09 38.031h-14.363c.52 1.215 2.093 2.86 4.68 3.047.116.012.484.02.484.02h10.539zm0 0" style="fill:#2859a6;fill-opacity:1;fill-rule:nonzero;stroke:none"/></g><path d="M1294.406 39.262c-.633 0-1.156.215-1.574.644-.418.43-.625.992-.625 1.688 0 .71.207 1.285.625 1.722.418.438.941.66 1.574.66.614 0 1.125-.226 1.543-.667.422-.45.63-1.016.63-1.707 0-.684-.208-1.247-.618-1.684-.41-.438-.93-.656-1.555-.656m-2.11-1.649v.883a3.804 3.804 0 0 1 1.177-.816c.422-.18.87-.27 1.351-.27 1.043 0 1.93.395 2.656 1.184.73.785 1.094 1.797 1.094 3.031 0 1.191-.375 2.184-1.129 2.984-.754.801-1.648 1.203-2.68 1.203-.46 0-.89-.082-1.284-.246-.399-.164-.793-.433-1.184-.804v3.765h-1.992V37.613ZM1299.766 37.613h1.718v1.008c.184-.394.434-.7.743-.902a1.774 1.774 0 0 1 1.011-.309c.262 0 .531.067.817.203l-.625 1.727c-.235-.117-.43-.176-.578-.176-.309 0-.57.191-.786.574-.21.38-.316 1.13-.316 2.246v3.621h-1.988zM1304.824 37.613h2.008v7.992h-2.008zM1312.477 39.281c-.63 0-1.153.211-1.563.637-.41.422-.617.953-.617 1.598 0 .664.21 1.21.633 1.636.418.426.949.637 1.586.637.62 0 1.132-.207 1.539-.621.402-.418.605-.965.605-1.64 0-.665-.203-1.208-.61-1.622-.405-.418-.929-.625-1.573-.625m2.082-1.668h1.996v6.848c0 1.352-.274 2.344-.817 2.98-.73.864-1.828 1.293-3.297 1.293-.785 0-1.441-.097-1.976-.293a3.534 3.534 0 0 1-1.352-.867 3.473 3.473 0 0 1-.812-1.383h2.21c.196.227.446.399.755.512.308.117.672.172 1.093.172.54 0 .973-.082 1.301-.25.328-.164.559-.379.696-.645.132-.265.203-.718.203-1.367a3.345 3.345 0 0 1-1.11.762c-.386.152-.828.23-1.316.23-1.07 0-1.977-.386-2.719-1.16-.738-.773-1.105-1.754-1.105-2.937 0-1.27.39-2.285 1.172-3.055.71-.695 1.558-1.043 2.542-1.043a3.3 3.3 0 0 1 1.301.254c.41.168.82.445 1.235.832zM1318.582 37.613h2.004v.82c.453-.382.867-.648 1.234-.8.371-.149.75-.223 1.133-.223a2.76 2.76 0 0 1 2.02.828c.465.469.695 1.164.695 2.086v5.281h-1.984v-3.5c0-.953-.043-1.585-.125-1.898-.086-.312-.239-.55-.45-.715-.21-.164-.472-.246-.785-.246-.406 0-.754.137-1.047.406-.289.274-.492.649-.601 1.125-.06.25-.09.79-.09 1.621v3.207h-2.004zM1327.387 37.613h2.004v7.992h-2.004zM1331.457 34.668h2.004v2.945h1.187v1.727h-1.187v6.265h-2.004V39.34h-1.031v-1.727h1.031zM1335.383 37.613h6.12l-3.593 6.297h3.387v1.695h-6.465l3.61-6.292h-3.06zM1346.738 39.262c-.633 0-1.156.215-1.57.644-.418.43-.625.992-.625 1.688 0 .71.207 1.285.625 1.722.414.438.938.66 1.57.66.614 0 1.13-.226 1.547-.667.418-.45.63-1.016.63-1.707 0-.684-.208-1.247-.618-1.684-.414-.438-.934-.656-1.559-.656m-2.11-4.73v3.964a3.804 3.804 0 0 1 1.177-.816c.422-.18.87-.27 1.351-.27 1.043 0 1.93.395 2.66 1.184.727.785 1.094 1.797 1.094 3.031 0 1.191-.375 2.184-1.129 2.984-.758.801-1.648 1.203-2.683 1.203-.461 0-.887-.082-1.285-.246-.395-.164-.79-.433-1.184-.804v.843h-1.988V34.531ZM1352.563 37.613h2.027v3.852c0 .746.05 1.27.152 1.558.106.293.27.52.496.68.23.16.512.242.848.242.332 0 .613-.078.848-.238.234-.16.406-.395.52-.703.081-.23.124-.723.124-1.473v-3.918h2.004V41c0 1.395-.11 2.352-.328 2.863-.27.63-.668 1.11-1.191 1.446-.524.336-1.192.5-1.997.5-.878 0-1.585-.196-2.128-.586-.54-.391-.922-.938-1.141-1.637-.156-.484-.234-1.367-.234-2.645zm0 0" style="fill:#2859a6;fill-opacity:1;fill-rule:nonzero;stroke:none" transform="translate(-2912.151 -72.187) scale(2.40529)"/><g clip-path="url(#b)" style="clip-rule:nonzero" transform="translate(-2912.151 -72.187) scale(2.40529)"><path d="m1366.488 38.73-1.242 1.243c-.504-.5-.96-.75-1.375-.75-.223 0-.402.047-.527.144a.425.425 0 0 0-.192.356c0 .109.043.207.121.297.082.09.282.214.598.37l.735.368c.773.383 1.304.77 1.593 1.168.29.394.434.86.434 1.394 0 .711-.262 1.305-.781 1.778-.524.476-1.223.715-2.098.715-1.164 0-2.094-.458-2.79-1.368l1.235-1.343c.235.273.508.496.824.664.317.168.598.254.84.254.266 0 .48-.063.64-.192.161-.129.243-.273.243-.441 0-.309-.293-.61-.875-.903l-.676-.34c-1.293-.648-1.937-1.464-1.937-2.445 0-.629.242-1.172.73-1.617.489-.45 1.11-.672 1.871-.672.516 0 1.004.113 1.465.34.457.227.844.555 1.164.98" style="fill:#2859a6;fill-opacity:1;fill-rule:nonzero;stroke:none"/></g><path d="M1306.8 34.668h-1.964v1.969h1.965zM1329.39 34.668h-2.003v1.969h2.004zm0 0" style="fill:#fac20f;fill-opacity:1;fill-rule:nonzero;stroke:none" transform="translate(-2912.151 -72.187) scale(2.40529)"/><g style="fill:#2859a6;fill-opacity:1" transform="translate(-2912.151 -72.187) scale(2.40529)"><use xlink:href="#c" width="100%" height="100%" x="1243.639" y="46.363"/><use xlink:href="#d" width="100%" height="100%" x="1255.198" y="46.363"/><use xlink:href="#e" width="100%" height="100%" x="1264.257" y="46.363"/><use xlink:href="#f" width="100%" height="100%" x="1277.377" y="46.363"/></g></svg>