<svg xmlns="http://www.w3.org/2000/svg" xml:space="preserve" width="959.991" height="418.559"><defs><clipPath id="a"><path d="M42.5 462.74H476"/></clipPath><clipPath id="b"><path d="M42.5 276.74H476"/></clipPath><clipPath id="c"><path d="M42.5 106.74H476"/></clipPath><clipPath id="d"><path d="M22.729 106.74H476"/></clipPath><clipPath id="e"><path d="M42.5 106.74H476"/></clipPath><clipPath id="f"><path d="M42.5 106.74H476"/></clipPath><clipPath id="g"><path d="M.03 841.98h594.99V0H.03v841.98z"/></clipPath><clipPath id="h"><path d="M.03 841.98h594.99V0H.03v841.98z"/></clipPath></defs><path d="M0 0c.148 1.301.624 1.692 1.312 1.904.708 2.454 1.946 2.528 3.405 2.929.064 1.999 3.026 1.999 2.423 3.512-1.132.434-2.433-1.29-3.047 1.396 1.45 2.75 3.015 2.433 4.358 4.072-1.554 4.305 2.275 6.346 5.533 4.463.698 1.016 1.459 1.449 2.432 1.026.529.466.677 1.058.138 1.47-3.946.074-6.262 4.072-4.464 8.007 2.888 3.321 6.463 1.935 8.875-.127.751.761 1.459 1.089 2.422 1.026-.55 4.241 1.957 5.203 4.707 4.981-.709 8.557 2.93 7.996 4.707 8.631 5.596.497 7.658-.487 7.88-6.928L13.984-.137C9.329-.085 4.654-.053 0 0" style="fill:#c7dc69;fill-opacity:1;fill-rule:nonzero;stroke:none" transform="matrix(7.5 0 0 -7.5 0 331.815)"/><path d="M0 0c-.529 2.158-.053 4.21 1.576 4.855.201 2.919 1.047 4.325 3.491 4.833 1.819.085 2.602.043 4.263-.666.422-.191.433.317.275.666-.614 1.587-2.751 1.756-1.302 4.982 1.27 1.882 2.93 1.565 3.237 2.2.709-.413-2.708 2.39-.73 7.265 1.481 2.401 3.216 3.48 5.892 2.179 1.153 4.21 5.035.328 7.024 1.777 1.089.286-2.084 6.537 5.278 8.916 5.014 1.312 6.325-2.559 7.87-3.786L42.236.011C27.967.011 14.259 0 0 0" style="fill:#dce9ab;fill-opacity:1;fill-rule:nonzero;stroke:none" transform="matrix(7.5 0 0 -7.5 65.85 331.815)"/><path d="M0 0c.635 1.935.275 3.247 4.062 4.464 3.279-.18 4.072-.984 5.67-1.513.433.074.401-.085.571.434-1.058.962-1.693.899-1.153 3.469 2.306 1.861 2.475-.434 3.384.423.508.201.847.571.847 1.29-6.759.793-8.97 7.033-6.4 11.529 2.444 4.304 4.157 7.403 11.234 3.225.92.36 1.428 1.64 1.29 3.004-6.77 4.252 1.196 13.02 5.68 14.606 5.987.836 10.599.074 13.571-8.324.276 0 1.566-.349 1.788.138 1.523 3.342 3.639 4.939 6.907 5.257 1.143-.318 2.095-.487 2.158-3.649.592.433 1.386.327 1.978.127 1.333-.466.37 4.949 6.4 4.875 2.612-.455 3.924-1.269 2.982-6.6.984-1.66 1.978 7.658 6.273 7.129 4.284-.888 3.734-2.57 4.919-5.299 1.121.487.179 2.94 3.395 3.533 2.242-.645 2.666-2.2 3.004-2.697 2.031.645-3.374 8.588 5.426 8.979 4.729-.402 4.834-1.481 3.999-5.648.55-.01 1.851-1.322 2.253-.698 2.697 4.21 14.724.846 7.774-7.223.847-2.222 1.629-4.654-3.533-6.431.096-.159.254-.846.445-.804 5.352 1.016 6.907-2.57 3.66-7.403-.339-1.058 6.949-2.01 2.57-7.457-.677-1.29 6.77-.814 2.655-8.662L0 0" style="fill:#319866;fill-opacity:1;fill-rule:nonzero;stroke:none" transform="matrix(7.5 0 0 -7.5 172.073 333)"/><path d="m0 0 2.433 5.087c.508-3.871 9.721-4.59 9.721-2.781.254 3.088-12.672.507-11.911 10.026.508 6.959 15.359 8.578 18.585 3.501l-3.025-4.294c-1.005 3.078-8.716 2.602-8.716 1.047-.264-3.332 11.667 0 11.932-9.254C19.272-6.176 3.988-7.171 0 0" style="fill:#fff200;fill-opacity:1;fill-rule:nonzero;stroke:none" transform="matrix(7.5 0 0 -7.5 699 253.995)"/><path d="m0 0-7.521 23.438H0L3.935 9.371l3.692 14.056 6.6.011L7.235 0H0" style="fill:#fff200;fill-opacity:1;fill-rule:nonzero;stroke:none" transform="matrix(7.5 0 0 -7.5 587.295 289.372)"/><path d="M0 0h2.729c5.183 0 8.039-3.522 8.039-7.287 0-2.433-2.719-5.447-5.574-6.536l5.32-9.667-8.621.042L0-19.799V-9.72h.391c3.089 0 3.089 4.58 0 4.58H0V0zm-9.71 0H0v-5.14h-2.708v-4.58H0v-10.079l-2.708 5.225v-8.916H-9.71V0" style="fill:#fff200;fill-opacity:1;fill-rule:evenodd;stroke:none" transform="matrix(7.5 0 0 -7.5 441.405 113.28)"/><path d="M0 0c-.899 1.703 10.726 2.274 18.31.973L39.032-5.32c.454-3.12.613-7.805.158-12.607l-20.827-1.767c-5.839.159-16.649.085-17.559.392C-.666-19.736 0 0 0 0z" style="fill:#fff;fill-opacity:1;fill-rule:nonzero;stroke:#3777bc;stroke-width:.67500001;stroke-linecap:butt;stroke-linejoin:miter;stroke-miterlimit:3.86400008;stroke-opacity:1;stroke-dasharray:none" transform="matrix(7.5 0 0 -7.5 481.628 252.247)"/><path d="M0 0c2.74-.011 14.555-3.501 21.578-5.68l.318-4.844c-7.489.624-11.699.931-19.209 1.873-1.439-.466-.571-1.873-2.803-1.873C.349-5.838.148-3.596 0 0" style="fill:#3777bc;fill-opacity:1;fill-rule:nonzero;stroke:none" transform="matrix(7.5 0 0 -7.5 614.273 263.512)"/><path d="M0 0c0-3.056.518-8.673.085-9.096-1.439-.285-14.471-.412-15.571-.084V.106C-10.366.064-5.12.053 0 0z" style="fill:#fff;fill-opacity:1;fill-rule:nonzero;stroke:#3777bc;stroke-width:.56599998;stroke-linecap:butt;stroke-linejoin:miter;stroke-miterlimit:3.86400008;stroke-opacity:1;stroke-dasharray:none" transform="matrix(7.5 0 0 -7.5 603.008 273.352)"/><path d="M0 0c6.6.275 7.14.307 14.777.169.063-.74.148-1.48.085-1.914C8.589-1.65 6.495-1.66 0-1.734-.063-1.184-.021-.497 0 0z" style="fill:#0086c8;fill-opacity:1;fill-rule:nonzero;stroke:#3777bc;stroke-width:1.31700003;stroke-linecap:butt;stroke-linejoin:miter;stroke-miterlimit:3.86400008;stroke-opacity:1;stroke-dasharray:none" transform="matrix(7.5 0 0 -7.5 489.96 251.775)"/><path d="m0 0 13.328-.074v-1.713c-4.813.433-8.536.888-13.275.592C-.042-.751-.032-.455 0 0" style="fill:#3777bc;fill-opacity:1;fill-rule:nonzero;stroke:none" transform="matrix(7.5 0 0 -7.5 502.808 272.715)"/><path d="M0 0c.391-.169 3.945.687 8.853.064 0 1.723-.137 3.374-.137 5.097-.36-.275-.508-.031-1.037.455-.074.074-.201-.254-.285-.159.423-1.089-.275-1.872-.973-2.496-.424-.158-.847-.317-1.27.159 0 1.089 0 2.179.846 2.813-.37.053-.751.096-1.121.149 0-.307.138-.625-.296-.847-.127-1.184-.402-2.432-1.111-3.215-.275-.148-.412-.148-.55 0-.423.159-.148 1.248-.56 1.407-.244 0-.561.317-.709 0-.275-.466-.137-.783-.137-1.407H.952C.391 2.803.391 3.744.814 4.992c-.285.465-.983 0-1.258-.159C-.169 3.268-.307.148 0 0" style="fill:#3777bc;fill-opacity:1;fill-rule:nonzero;stroke:none" transform="matrix(7.5 0 0 -7.5 537.24 329.355)"/><path d="M0 0c1.216-.318 1.523-.73 1.523-1.248 0-.529-.761-.624-1.819-.159-.466.201-1.672-.159-2.126.307-.37.381-.159.994-.159 1.248C-2.581.677-1.216.307 0 0z" style="fill:#fff;fill-opacity:1;fill-rule:nonzero;stroke:#3777bc;stroke-width:.67500001;stroke-linecap:butt;stroke-linejoin:miter;stroke-miterlimit:3.86400008;stroke-opacity:1;stroke-dasharray:none" transform="matrix(7.5 0 0 -7.5 637.118 270.967)"/><path d="M0 0c.212 0 .91-.158.614-.941-.201-.529.296-.942.761-1.724.497-.846.116-1.407-.465-1.407-.254 0-.846-.042-1.058.159-.286.264-.159.856-.159 1.406C-.307-1.512-.582 0 0 0" style="fill:#fff;fill-opacity:1;fill-rule:nonzero;stroke:none" transform="matrix(7.5 0 0 -7.5 624.585 286.125)"/><path d="M0 0c.603-.465 1.364-.159.603-.624-.751-.465-.148-1.248-1.058-1.407-.91-.158-.148.889-.148 1.407S-.603.465 0 0" style="fill:#fff;fill-opacity:1;fill-rule:nonzero;stroke:none" transform="matrix(7.5 0 0 -7.5 623.475 320.07)"/><path d="M0 0c.243 0 0-1.269 0-2.348 0-1.068-.666-1.714-.92-1.714-.244 0-.148.646-.148 1.714 0 .476.243 1.851.306 2.189C-.677.275-.138 0 0 0" style="fill:#fff;fill-opacity:1;fill-rule:nonzero;stroke:none" transform="matrix(7.5 0 0 -7.5 649.65 288.502)"/><path d="M0 0c1.068.158 1.682 0 2.613-.55.296 0 .127-.857-.328-1.016-.508.053-.91 1.1-1.523.466-.043-.254-.297-.307.158-.931.307-.317.603-.317 1.217-.159.909-.158-.91-1.872-1.83-2.337-.603 0-.762.148-.91.307C-.751-2.348-.603-.942 0 0" style="fill:#fff;fill-opacity:1;fill-rule:nonzero;stroke:none" transform="matrix(7.5 0 0 -7.5 662.108 280.327)"/><path d="M0 0c.857-.497 1.312-.614 1.312-.963S.561-1.121-.053-1.28c-.613-.148-1.089-.169-1.364.317-.466.783.053.815.296.931C-.508.285-.328.19 0 0" style="fill:#fff;fill-opacity:1;fill-rule:nonzero;stroke:none" transform="matrix(7.5 0 0 -7.5 667.103 319.83)"/><path d="M0 0c-.307-2.814.613-2.496.762-5.31.306-.465.761-.317.761 0 0 .413-.307.931 0 1.248 0 .624.455.466.762.318.148.782-.455 1.396 0 2.496 0 .306-1.069-.159-1.069.306-.454.159-.306.477 0 .635.455.148 1.069 0 1.513-.476.307-1.089 0-2.655.307-3.596.307-.306.603-.306.603 0-.296 1.565.454 3.131 0 3.914-.91 0-2.116.729-3.184 1.089C.307.412.148.211 0 0" style="fill:#fff;fill-opacity:1;fill-rule:nonzero;stroke:none" transform="matrix(7.5 0 0 -7.5 691.703 289.687)"/><path d="M0 0c-.307-1.396-.148-2.655 0-4.527.307-.158.508.106.762.159.613.783.761 1.713.613 2.654-.455.159-.92.159-.762.783.307.307 1.058 0 1.259.328-.201.603-.497.92-.804.762C.762.476.307.317 0 0" style="fill:#fff;fill-opacity:1;fill-rule:nonzero;stroke:none" transform="matrix(7.5 0 0 -7.5 725.73 299.048)"/><path d="M0 0c.455.624 1.217.317 1.83-.307.148-.941.148-1.883-.148-3.131-.307-.465-.762-.317-.92.159.053.73.455 1.872.158 2.189C.762-.624-.296-.466 0 0" style="fill:#fff;fill-opacity:1;fill-rule:nonzero;stroke:none" transform="matrix(7.5 0 0 -7.5 746.198 306.03)"/><path d="M0 0c.201-.053.762.307.783-.254-.17-.994-.328-1.935.084-2.834.043-.201-.254-.508-.698-.55-.169-.265-.476-.265-.782.042-.456.159.613.941.465 1.565C.307-1.1-.561-.508 0 0" style="fill:#fff;fill-opacity:1;fill-rule:nonzero;stroke:none" transform="matrix(7.5 0 0 -7.5 765.555 309.525)"/><path d="M0 0c.37 0 .455-.624.307-1.089-.159-.476-.466-.317-.688-.317-.232 0 .074.624-.687.55-.149-.022-.127.761 0 .856C-.941.095-.19 0 0 0" style="fill:#fff;fill-opacity:1;fill-rule:nonzero;stroke:none" transform="matrix(7.5 0 0 -7.5 746.835 327.053)"/><path d="M0 0h-15.824" style="fill:none;stroke:#3777bc;stroke-width:.64499998;stroke-linecap:butt;stroke-linejoin:miter;stroke-miterlimit:3.86400008;stroke-opacity:1;stroke-dasharray:none" transform="matrix(7.5 0 0 -7.5 605.145 357.435)"/><path d="m0 0 16.395-.328c-.021.698-.021 1.291 0 3.258-1.132-.042-2.665.063-4.093.021 0-.804-.021-1.237-.021-1.819H3.395c.043.116 0 2.062.043 1.766-.942 0-2.856-.032-3.607 0L0 0" style="fill:#3777bc;fill-opacity:1;fill-rule:nonzero;stroke:none" transform="matrix(7.5 0 0 -7.5 488.61 398.288)"/><path d="m0 0 4.506-.063c.159-1.248-.476-2.655-2.528-2.285C.455-2.189.307-.941 0 0" style="fill:#3777bc;fill-opacity:1;fill-rule:nonzero;stroke:none" transform="matrix(7.5 0 0 -7.5 546.128 399.473)"/><path d="M0 0c.222 0 .709-.063.709-.211 0-.149-.307-.625-.603-.625-.307 0-.614.307-.614.625C-.508.095-.222 0 0 0z" style="fill:#fff;fill-opacity:1;fill-rule:nonzero;stroke:#fff;stroke-width:.34400001;stroke-linecap:butt;stroke-linejoin:miter;stroke-miterlimit:3.86400008;stroke-opacity:1;stroke-dasharray:none" transform="matrix(7.5 0 0 -7.5 562.073 405.66)"/><path d="M0 0c.91.064 1.259.042 2.179.116-.614 1.724.296 3.438 1.237 3.353 1.037-.074 1.65-1.322 1.65-3.035-.243-2.264-.401-2.634-1.66-3.099-1.026-.212-1.629.095-2.253.433C.423-1.555.159-.814 0 0" style="fill:#3777bc;fill-opacity:1;fill-rule:nonzero;stroke:none" transform="matrix(7.5 0 0 -7.5 643.628 398.048)"/><path d="M0 0c.603.053 1.068-.624 1.058-2.189 0-1.566-.487-1.978-1.09-1.978-.613 0-.878 1.132-.878 2.009C-.92-1.259-.889-.085 0 0" style="fill:#fff;fill-opacity:1;fill-rule:nonzero;stroke:none" transform="matrix(7.5 0 0 -7.5 670.125 377.265)"/><path d="M0 0c1.015.053 2.02.095 3.036.159-.148 1.089 0 2.178.899 2.189.624-.317.931-.782.783-2.041-.159-1.09-.307-1.872-.762-2.337-1.068-.159-1.83-.159-2.74 0C.455-1.407.148-.941 0 0" style="fill:#3777bc;fill-opacity:1;fill-rule:nonzero;stroke:none" transform="matrix(7.5 0 0 -7.5 721.215 390.113)"/><path d="M0 0c.243 0 .307-.624.307-1.406 0-.783-.36-1.714-.614-1.714-.116 0-.603.624-.455 1.089.074.244.413-.169.307.625C-.603-.307-.243 0 0 0" style="fill:#fff;fill-opacity:1;fill-rule:nonzero;stroke:none" transform="matrix(7.5 0 0 -7.5 751.913 378.458)"/><path d="M0 0c-.159 0 .085-.286.085-.497l6.78.55c-.138.381-.265.328-.317.433C4.665.264.963.127 0 0" style="fill:#3777bc;fill-opacity:1;fill-rule:nonzero;stroke:none" transform="matrix(7.5 0 0 -7.5 609.75 396.143)"/><path d="M0 0c0-.106-.011-.264-.011-.37l8.346.624c0 .158.148.465 0 .465C5.141.444 3.216.264 0 0" style="fill:#3777bc;fill-opacity:1;fill-rule:nonzero;stroke:none" transform="matrix(7.5 0 0 -7.5 682.733 392.018)"/><path d="M0 0c5.299-.328 10.895-.381 15.56.18.084.19.01.307.095.497 0 .253.053.539.053.793-.423 0-.73-.095-.698-.487-.212.074-.423-.031-.529-.349C10.059.254 5.754.211 1.111.243.635.317.212.412-.063.994.032.761-.063.317 0 0z" style="fill:#0080c3;fill-opacity:1;fill-rule:evenodd;stroke:#3777bc;stroke-width:.54299998;stroke-linecap:butt;stroke-linejoin:miter;stroke-miterlimit:3.86400008;stroke-opacity:1;stroke-dasharray:none" transform="matrix(7.5 0 0 -7.5 485.91 342.998)"/><path d="M0 0h2.539c.01 0 .021-.011.021-.021v-.92c0-.011-.011-.022-.021-.022H0c-.011 0-.021.011-.021.022v.92c0 .01.01.021.021.021" style="fill:#3777bc;fill-opacity:1;fill-rule:nonzero;stroke:none" transform="matrix(7.5 0 0 -7.5 585 357.435)"/><path d="M393.371 46.894h10.6v5.776h-10.6v-5.776zM418.823 45.304h9.013v7.362h-9.013v-7.362zM431.58 45.052h9.9v7.617h-9.9v-7.617z" style="fill:#3777bc;fill-opacity:1;fill-rule:nonzero;stroke:none" transform="matrix(1.25 0 0 -1.25 -4.694 423.268)"/><path d="M0 0a.64.64 0 0 1 0 1.28.637.637 0 0 1-.624-.645C-.624.286-.339 0 0 0" style="fill:#fff;fill-opacity:1;fill-rule:nonzero;stroke:none" transform="matrix(7.5 0 0 -7.5 493.928 388.05)"/><path d="M0 0c.349 0 .624.286.624.635A.63.63 0 0 1 0 1.28.637.637 0 0 1-.624.635C-.624.286-.339 0 0 0" style="fill:#fff;fill-opacity:1;fill-rule:nonzero;stroke:none" transform="matrix(7.5 0 0 -7.5 584.918 388.05)"/><path d="M0 0c.338 0 .624.286.624.635A.637.637 0 0 1 0 1.28.63.63 0 0 1-.624.635C-.624.286-.349 0 0 0" style="fill:#fff;fill-opacity:1;fill-rule:nonzero;stroke:none" transform="matrix(7.5 0 0 -7.5 596.34 388.05)"/><path d="M0 0c.338 0 .624.286.624.635A.637.637 0 0 1 0 1.28.63.63 0 0 1-.624.635C-.624.286-.349 0 0 0" style="fill:#fff;fill-opacity:1;fill-rule:nonzero;stroke:none" transform="matrix(7.5 0 0 -7.5 505.35 388.05)"/><path d="M0 0v-8.853l.561-.391C.116-3.585.867-1.375.529-.624.18-.529.106-.36 0 0z" style="fill:#3066af;fill-opacity:1;fill-rule:nonzero;stroke:#3777bc;stroke-width:.57099998;stroke-linecap:butt;stroke-linejoin:miter;stroke-miterlimit:3.86400008;stroke-opacity:1;stroke-dasharray:none" transform="matrix(7.5 0 0 -7.5 487.02 270.967)"/><path d="M0 0v-1.354l20.426.646-.477.549L0 0" style="fill:#3777bc;fill-opacity:1;fill-rule:nonzero;stroke:none" transform="matrix(7.5 0 0 -7.5 619.193 358.463)"/><g clip-path="url(#a)" transform="matrix(1.25 0 0 -1.25 -4.694 423.268)"><path d="M0 0h453.271" style="fill:none;stroke:#231f20;stroke-width:.5;stroke-linecap:butt;stroke-linejoin:miter;stroke-miterlimit:3.86400008;stroke-opacity:1;stroke-dasharray:none" transform="translate(22.729 462.74)"/></g><g clip-path="url(#b)" transform="matrix(1.25 0 0 -1.25 -4.694 423.268)"><path d="M0 0h453.271" style="fill:none;stroke:#231f20;stroke-width:.5;stroke-linecap:butt;stroke-linejoin:miter;stroke-miterlimit:3.86400008;stroke-opacity:1;stroke-dasharray:none" transform="translate(22.729 276.74)"/><text transform="matrix(1 0 0 -1 46.708 269.84)"><tspan x="0 20.016001 33.360001 46.703999" y="0" style="font-size:24px;font-variant:normal;font-weight:400;writing-mode:lr-tb;fill:#231f20;fill-opacity:1;fill-rule:nonzero;stroke:none;font-family:Gen_Arial;-inkscape-font-specification:Gen_Arial">6144</tspan></text></g><g clip-path="url(#c)" transform="matrix(1.25 0 0 -1.25 -4.694 423.268)"><path d="M0 0h453.271" style="fill:none;stroke:#231f20;stroke-width:.5;stroke-linecap:butt;stroke-linejoin:miter;stroke-miterlimit:3.86400008;stroke-opacity:1;stroke-dasharray:none" transform="translate(22.729 106.74)"/><text transform="matrix(1 0 0 -1 46.708 99.84)"><tspan x="0 20.016001 33.360001 46.703999" y="0" style="font-size:24px;font-variant:normal;font-weight:400;writing-mode:lr-tb;fill:#231f20;fill-opacity:1;fill-rule:nonzero;stroke:none;font-family:Gen_Arial;-inkscape-font-specification:Gen_Arial">6144</tspan></text></g><g clip-path="url(#d)" transform="matrix(1.25 0 0 -1.25 -4.694 423.268)"><g clip-path="url(#e)"><path d="M0 0h453.271" style="fill:none;stroke:#231f20;stroke-width:.5;stroke-linecap:butt;stroke-linejoin:miter;stroke-miterlimit:3.86400008;stroke-opacity:1;stroke-dasharray:none" transform="translate(22.729 106.74)"/><text transform="matrix(1 0 0 -1 46.708 99.84)"><tspan x="0 20.016001 33.360001 46.703999" y="0" style="font-size:24px;font-variant:normal;font-weight:400;writing-mode:lr-tb;fill:#231f20;fill-opacity:1;fill-rule:nonzero;stroke:none;font-family:Gen_Arial;-inkscape-font-specification:Gen_Arial">6144</tspan></text></g></g><g clip-path="url(#f)" transform="matrix(1.25 0 0 -1.25 -4.694 423.268)"><path d="M0 0h453.271" style="fill:none;stroke:#231f20;stroke-width:.5;stroke-linecap:butt;stroke-linejoin:miter;stroke-miterlimit:3.86400008;stroke-opacity:1;stroke-dasharray:none" transform="translate(22.729 106.74)"/></g><g clip-path="url(#g)" transform="matrix(1.25 0 0 -1.25 -4.694 423.268)"><path d="M498.555 800.672h96.465v29.082h-96.465v-29.082z" style="fill:#fff;fill-opacity:1;fill-rule:nonzero;stroke:none"/><path d="M0 0c-.607 0-43.061 15.19-48.132 16.933l96.944-.004C43.085 14.791 2.42 0 0 0" style="fill:#fff;fill-opacity:1;fill-rule:nonzero;stroke:none" transform="translate(546.703 783.882)"/></g><g clip-path="url(#h)" transform="matrix(1.25 0 0 -1.25 -4.694 423.268)"><path d="M490.248 716.24H595.02v2.834H490.248v-2.834zM490 545.629h105.02v2.834H490v-2.834z" style="fill:#fff;fill-opacity:1;fill-rule:nonzero;stroke:none"/></g></svg>