<svg xmlns="http://www.w3.org/2000/svg" width="640.905" height="201.885"><path d="M690.098 414.164c2.46-8.903-5-17.065-15.17-17.065H136.377c-11.092 0-26.248 11.91-28.978 21.779l-45.04 150.888c-2.5 9.018 4.599 17.064 14.629 17.064h540.795c10.166 0 23.202-8.432 25.862-18.031l46.453-154.635" style="fill:#fff;fill-opacity:1;fill-rule:nonzero;stroke:none" transform="translate(-55.762 -391.022)"/><path d="M182.72 429.294c-24.444 0-26.328 1.363-32.816 2.13-6.493.766-11.588 5.24-15.781 9.894-5.351 5.937-14.7 26.133-4.384 42.586 10.305 16.453 14.814 20.566 20.54 25.927 5.732 5.35 4.24 11.147-2.254 11.523-6.488.385-37.074 0-37.074 0l-9.269 33.818s10.426-.511 16.158-.126c5.726.381 32.92 1.278 42.084-.25 9.164-1.533 18.658-6.313 26.303-17.41 7.64-11.097 9.018-22.01 9.018-30.812 0-8.792-4.824-13.226-8.642-16.282-3.818-3.062-12.24-10.316-14.154-14.905-1.908-4.59-.751-8.016-.751-8.016s4.785-2.63 10.897-2.63c6.107 0 19.319-.762 25.426 0 6.112.766 10.145 1.502 10.145 1.502l-2.755 81.915s2.114 5.726 10.897 8.016c8.782 2.3 19.303 2.41 26.177.5 6.869-1.913 9.56-6.262 14.53-13.526 4.96-7.275 28.587-49.41 34.318-60.121 5.732-10.712 12.65-19.038 12.65-19.038h81.163l8.392-34.444h-114.98s-22.866 46.237-26.303 51.979c-3.437 5.736-7.515 10.521-7.515 10.521l5.135-62.5s-52.71-.25-77.155-.25zm137.902 52.856-21.543 74.149 37.825-.501 13.903-46.343h16.033c4.203 0 16.012.651 16.407-.877 1.148-4.404 2.29-8.121 4.009-12.9 1.713-4.775 3.882-13.528 3.882-13.528h-70.516z" style="fill:#017832;fill-opacity:1;fill-rule:nonzero;stroke:none" transform="translate(-55.762 -391.022)"/><path d="m695.935 415.822-46.478 154.695c-3.562 12.73-19.39 22.39-31.679 22.39H76.988c-13.066 0-24.284-11.007-20.471-24.79l45.065-150.947c3.497-12.48 20.992-26.148 34.795-26.148h538.55c12.922 0 24.85 10.897 21.008 24.8zm-5.837-1.658c2.46-8.903-5-17.065-15.17-17.065H136.377c-11.092 0-26.248 11.914-28.978 21.779l-45.04 150.888c-2.5 9.023 4.599 17.064 14.629 17.064h540.79c10.17 0 23.207-8.432 25.867-18.031l46.453-154.635" style="fill:#017832;fill-opacity:1;fill-rule:nonzero;stroke:none" transform="translate(-55.762 -391.022)"/><path d="m400.863 554.996-15.336-.15s20.852-63.673 27.55-83.633c6.699-19.955 23.002-40.812 51.864-40.812h103.573l8.783-21.548 85.17 66.188-124.89 66.849 8.983-24.705H440.031c-13.572 0-22.37 3.382-29.579 17.06-4.524 8.577-9.59 20.751-9.59 20.751" style="fill:#ca040a;fill-opacity:1;fill-rule:nonzero;stroke:none" transform="translate(-55.762 -391.022)"/></svg>