<svg xmlns="http://www.w3.org/2000/svg" xmlns:xlink="http://www.w3.org/1999/xlink" width="800" height="420"><defs><linearGradient id="d"><stop offset="0" style="stop-color:#052683;stop-opacity:1"/><stop offset="1" style="stop-color:#0aa3e5;stop-opacity:1"/></linearGradient><linearGradient id="g"><stop offset="0" style="stop-color:#001d7d;stop-opacity:1"/><stop offset="1" style="stop-color:#5bc1eb;stop-opacity:1"/></linearGradient><linearGradient id="e"><stop offset="0" style="stop-color:#c53c1a;stop-opacity:1"/><stop offset="1" style="stop-color:#f4d5c7;stop-opacity:1"/></linearGradient><linearGradient id="f"><stop offset="0" style="stop-color:#143e92;stop-opacity:1"/><stop offset="1" style="stop-color:#0aa3e5;stop-opacity:1"/></linearGradient><linearGradient xlink:href="#e" id="k" x1="-.369" x2="14.344" y1="3.54" y2="-8.784" gradientUnits="userSpaceOnUse"/><linearGradient xlink:href="#g" id="j" x1="994.19" x2="1005.219" y1="916.674" y2="932.332" gradientTransform="matrix(10.78908 0 0 10.78908 -10087.446 -9167.301)" gradientUnits="userSpaceOnUse"/><linearGradient xlink:href="#e" id="l" x1="-.369" x2="14.344" y1="3.54" y2="-8.784" gradientUnits="userSpaceOnUse"/><linearGradient xlink:href="#d" id="h" x1="1.514" x2="17.176" y1="1.856" y2="-11.356" gradientUnits="userSpaceOnUse"/><linearGradient xlink:href="#f" id="i" x1="3.43" x2="17.176" y1="1.978" y2="-11.356" gradientUnits="userSpaceOnUse"/><clipPath id="a"><path d="M-10-10v20h20v-20h-20z"/></clipPath><clipPath id="b"><path d="M-10-10v20h20v-20h-20z"/></clipPath><clipPath id="c"><path d="M-10-10h20v20h-20v-20z"/></clipPath></defs><g style="fill:url(#h);fill-opacity:1"><path d="m0 0 .414-.248 5.567 8.681L0 0zm6.295 9.035C4.187 3.274 2.053-2.474-.265-8.131 3.59-3.124 8.086 4.828 12.348 11.129c.82 1.207 2.715.155 1.807-1.189l-.451-.699c.468.082.912-.318.997-.756.856.661 1.91-.074 1.493-.982a66.505 66.505 0 0 0-3.773-5.848C11.356.17 9.294-4.346 7.749-7.384 10.445-4.091 13.105.162 15.838 3.27c.817.946 1.882-.085 1.326-1.089-.66-1.494-1.283-2.323-2.091-3.485l-3.75-5.869L17.39.155c.34.472 1.149-.118.884-.685l-6.137-10.504c.283.033 1.742 2.014 2.587 3.042 1.191 1.449 2.448 2.966 3.772 4.349.675.89 1.736.939 1.465-.599-.307-2.494-2.65-6.611-3.361-7.916.959 3.464 1.487 5.754 1.166 5.459-.322-.237-1.248-1.699-2.084-2.649-1.018-1.156-2.024-2.315-3.025-3.413-1.074-1.177-2.087-2.322-3.062-3.383-.806-.836-1.744.03-1.299 1.002l3.42 6.108c-2.026-2.857-3.705-4.951-5.373-7.021-.565-.603-1.662-.221-1.136.906l2.856 5.094C6.8-11.29 5.112-13.084 4.435-13.36c-.49-.191-1.355-.004-1.319 1.057-.76-1.236-1.732-2.95-2.438-3.094L-.44-17.105c-.615-.751-2.188.041-1.659 1.153l3.641 6.879-5.26-5.378c-.722-.713-2.189.091-1.608 1.374C-.979-6.174 3.155 1.28 6.295 9.035" style="fill:url(#i);fill-opacity:1;fill-rule:evenodd;stroke:none" transform="matrix(13.48635 0 0 -13.48635 93.185 171.886)"/></g><path d="m610.95 754.59 3.654 2.2 49.252-76.806-52.907 74.606zm55.684-79.92c-18.651 50.966-37.532 101.81-58.031 151.844 34.107-44.29 73.878-114.634 111.572-170.36 7.256-10.681 24.019-1.375 15.981 10.505l-3.978 6.191c4.14-.723 8.065 2.818 8.82 6.675 7.566-5.839 16.885.659 13.203 8.686-10.721 18.584-21.794 35.78-33.378 51.733-9.414 13.15-27.66 53.097-41.336 79.974 23.857-29.13 47.39-66.757 71.572-94.255 7.229-8.362 16.642.755 11.72 9.629-5.84 13.23-11.342 20.566-18.49 30.83l-33.176 51.922 53.661-64.83c3.008-4.166 10.169 1.047 7.836 6.07l-54.296 92.908c2.495-.28 15.402-17.816 22.886-26.906 10.533-12.812 21.646-26.245 33.365-38.476 5.975-7.863 15.362-8.295 12.961 5.3-2.724 22.063-23.44 58.49-29.738 70.035 8.484-30.641 13.163-50.898 10.318-48.282-2.846 2.09-11.046 15.024-18.437 23.413-9.008 10.235-17.895 20.499-26.756 30.195-9.508 10.412-18.463 20.54-27.094 29.927-7.12 7.403-15.415-.259-11.477-8.861l30.25-54.026c-17.923 25.273-32.772 43.79-47.526 62.105-5.003 5.326-14.714 1.955-10.06-8.011l25.273-45.059c-11.18 10.911-26.11 26.784-32.098 29.226-4.329 1.7-11.99 0-11.666-9.347-6.716 10.924-15.32 26.097-21.564 27.378l-9.886 15.104c-5.448 6.636-19.366-.367-14.686-10.195l32.205-60.864-46.528 47.58c-6.379 6.312-19.366-.81-14.215-12.152 38.437-61.079 75.012-127.014 102.793-195.606" style="fill:url(#j);fill-opacity:1;fill-rule:evenodd;stroke:none" transform="translate(0 -632.362)"/><g style="fill:url(#k);fill-opacity:1"><path d="m0 0 .334-.2 4.498 7.013L0 0zm5.086 7.299C3.383 2.645 1.659-1.999-.214-6.569 2.9-2.523 6.533 3.9 9.976 8.991c.662.975 2.193.125 1.459-.961l-.364-.564c.378.066.737-.258.806-.611.691.534 1.542-.06 1.206-.793a53.572 53.572 0 0 0-3.049-4.725c-.86-1.2-2.526-4.848-3.774-7.302 2.178 2.66 4.327 6.096 6.535 8.607.661.764 1.52-.069 1.071-.88-.533-1.207-1.036-1.877-1.689-2.816L9.148-5.795 14.049.126c.275.38.928-.096.715-.554L9.805-8.914c.229.027 1.407 1.627 2.09 2.458.962 1.17 1.978 2.396 3.047 3.513.546.718 1.404.758 1.185-.484-.249-2.015-2.142-5.341-2.717-6.396.775 2.799 1.202 4.649.943 4.41-.26-.19-1.009-1.372-1.684-2.139-.822-.934-1.635-1.871-2.444-2.757-.868-.951-1.686-1.876-2.474-2.733-.65-.676-1.409.023-1.049.809l2.763 4.935c-1.637-2.309-2.993-4.001-4.34-5.673-.457-.487-1.344-.178-.919.732l2.308 4.115c-1.02-.997-2.384-2.446-2.932-2.67-.395-.154-1.093-.002-1.065.854-.613-.998-1.399-2.383-1.969-2.499l-.903-1.38c-.497-.607-1.768.033-1.341.931L1.246-7.33l-4.249-4.345c-.584-.576-1.769.074-1.299 1.11C-.791-4.988 2.549 1.034 5.086 7.299" style="fill:url(#l);fill-opacity:1;fill-rule:evenodd;stroke:none" transform="matrix(13.48635 0 0 -13.48635 393.254 143.783)"/></g><path d="m0 0 .164-.768h-.537L-.247 0h-2.492l-.119-.768h-1.095l-1.088-6.83-.053-.282-.065-.263-.079-.249-.092-.233-.104-.217-.117-.2-.127-.183-.14-.164-.095-.093-.224-.011-.182.012-.166.035-.153.056-.141.077-.129.095-.118.115-.106.132-.094.15-.081.165-.067.18-.052.193-.037.204-.022.213-.005.221.012.226.029.234L-6.286 0h-2.465l-.123-.768h-1.092l-1.072-6.553-.038-.248-.03-.245-.024-.243-.017-.238-.008-.234-.001-.229.007-.225.016-.221.024-.215.033-.21.043-.204.051-.199.062-.192.071-.187.082-.179.093-.172.104-.165.114-.156.127-.148.137-.139.15-.129.16-.119.172-.109.183-.099.195-.087.206-.076.218-.065.228-.054.241-.042.252-.029.263-.019.276-.005.28.006.272.019.264.03.256.042.248.054.24.064.231.075.223.084.215.094.207.103.177.1.162.044.232.077.223.086.215.097.207.105.198.114.19.123.183.131.174.137.165.145.158.151.149.157.141.163.134.168.126.172.117.176.11.18.102.183.094.186.087.189.08.19.072.192.064.193.057.193.05.194.043.194.034.191.732 4.437 1.993-9.111h1.425l.28.498h1.032L10.234 0H7.637L7.25-.768h-.827l-2.63-5.098L2.609 0H0zm15.44-3.219-.181.145-.185.119-.185.095-.185.072-.183.054-.179.037-.172.022-.163.011h-.153l-.139-.006-.124-.012-.104-.013-.135-.023-.133-.032-.108-.031-.105-.099-.12-.121-.116-.128-.113-.134-.109-.141-.106-.148-.102-.153-.097-.16-.092-.166-.088-.171-.083-.178-.077-.182-.072-.188-.066-.194-.06-.199-.054-.204-.046-.209-.04-.214-.033-.218-.025-.223-.012-.158-.005-.158.001-.157.007-.156.014-.154.02-.153.026-.151.032-.148.038-.145.043-.142.05-.139.055-.135.061-.13.066-.127.071-.121.077-.116.081-.111.087-.106.092-.099.096-.093.101-.087.106-.079.11-.074.115-.065.12-.059.123-.05.129-.043.134-.035.138-.026.143-.017.148-.008.151.001.331.03.159.031.139.112.185.175.167.186.151.194.134.199.117.201.102.201.086.196.037.099h-2.27l.279 2.016h1.127l.088.645h4.992l-.087-.528-.054-.282-.064-.281-.072-.279-.081-.279-.09-.276-.099-.274-.108-.27-.117-.266-.126-.263-.136-.257-.145-.252-.154-.246-.165-.239-.174-.231-.184-.224-.193-.215-.204-.206-.213-.197-.224-.185-.234-.175-.244-.163-.254-.151-.265-.138-.274-.124-.285-.11-.295-.095-.027-.007-.07-.041-.265-.134-.274-.121-.285-.107-.295-.093-.305-.077-.315-.062-.325-.046-.336-.029-.346-.01-.344.007-.33.025-.316.043-.303.061-.287.077-.275.094-.259.109-.246.124-.232.139-.218.152-.205.165-.19.176-.177.188-.163.198-.15.208-.137.217-.124.224-.112.232-.099.239-.087.244-.076.25-.064.254-.053.259-.042.262-.031.264-.021.267-.011.268-.001.27.009.269.019.269.027.269.037.268.03.166.039.176.049.183.058.19.067.196.077.201.086.205.096.209.105.211.116.215.125.214.136.216.145.215.156.214.166.212.177.209.188.205.197.2.209.195.22.189.23.181.242.174.252.164.265.155.275.143.112.052.068.055.242.178.253.168.263.159.276.147.286.135.298.123.309.108.321.094.332.079.344.062.355.045c.076.005.152.009.228.011.125.002.25-.003.375-.009l.267-.024.292-.043.155-.029.158-.034.162-.041.165-.047.168-.054.169-.061.17-.069.171-.078.17-.086.169-.095.168-.105.165-.114.161-.126.158-.135.153-.147.147-.158.141-.17.133-.182.126-.195.117-.207.108-.221.175-.419-1.266-.589.052-.121L16.2-4.326l-.25.475-.162.246-.171.21-.177.176z" style="fill:#132450;fill-opacity:1;fill-rule:evenodd;stroke:none" transform="matrix(13.48635 0 0 -13.48635 378.658 192.229)"/><path d="m0 0-1.123-6.938c-.214-1.318.366-2.557 1.524-2.556 1.402.002 2.273 1.06 2.525 2.679L3.985 0h2.054l-1.18-7.148c-.326-1.976-1.826-4.129-4.753-4.129-2.906 0-3.607 2.063-3.177 4.749L-2.028 0H0zm6.805 0 2.38-11.146h1.22L16.412 0h-2.103l-3.81-7.566L8.972 0H6.805zm17.246-3.142c-.817 1.777-2.296 1.684-2.843 1.602-1.547-.231-3.139-1.95-3.377-4.435-.17-1.781.84-3.551 2.644-3.477 1.93.079 2.829 1.648 3.11 2.656h-2.321l.22 1.629h4.551c-.438-2.928-2.3-5.979-5.917-6.005-3.629-.026-4.675 3.16-4.247 5.987.255 1.682 2.033 5.05 5.758 5.42.684.067 3.334-.076 4.271-2.515l-1.849-.862z" style="fill:#fff;fill-opacity:1;fill-rule:evenodd;stroke:none" transform="matrix(13.48635 0 0 -13.48635 290.468 195.134)"/></svg>