<svg xmlns="http://www.w3.org/2000/svg" xml:space="preserve" style="enable-background:new 0 0 3250 3250" viewBox="0 0 3250 3250"><path d="M714.2 2624.74c-36.47.6-59.72.89-69.77.89-16.85 0-41.34-.29-73.46-.89-6.34 10.8-11.82 20.1-16.45 27.9-4.63 7.8-8.4 14.1-11.31 18.91-4.37 7.21-8.7 14.13-12.97 20.76-1.42 2.21-2.84 4.39-4.25 6.53L334.9 2990.79c-25.44 38.75-42.3 64.78-50.55 78.09l-33.48 54.13c-4.34-34.31-7.92-61.97-10.74-82.97l-50.37-325.23c-2.61-17.15-4.51-30.76-5.71-40.83l-5.12-49.25c-31.14.6-52.92.89-65.33.89-20.11 0-45.32-.29-75.66-.89l40.23 220.06 42.95 244.91c8.51 49.1 13.3 77.35 14.36 84.74l6.75 40.43c52.29.34 110.26.52 166.39 0l27.82-39.99 327.08-479.17 50.68-70.97zm2428.72 511.78c-19.77.39-58.33.61-115.69.66-8.19.01-16.77.01-25.73.01l-76.27-.89c10.07-50.28 20.95-100.86 32.62-151.74l40.38-177.91c15.3-68.03 29.6-128.67 42.9-181.91-30.02.6-51.84.89-65.46.89-20.15 0-45.27-.29-75.38-.89-17.83 96.13-39.03 198.84-63.6 308.13-23.16 103.01-46.29 197.02-69.41 282.03 7.04.07 57.8.3 422.32-.01 6.98-29.18 13.78-56.12 20.41-80.81-22.14 1.19-44.5 2-67.09 2.44zM976.63 2624.96c-38.7 7.25-76.43 20.71-113.17 40.37-36.75 19.67-69.49 44.3-98.22 73.87-28.73 29.58-52.22 62.11-70.46 97.61-18.24 35.49-30.73 72.32-37.45 110.48-7.88 44.67-7.29 87.04 1.76 127.11 9.05 40.08 26.78 72.4 53.21 96.94 1.33 1.24 2.7 2.45 4.08 3.66 26.15 22.74 61.85 39.74 91.45 39.88 98.51.47 384.81.29 388.83-.5 24.62-120.97 49.55-231 74.8-330.1-32.64.6-73.37.89-122.18.89-37.27 0-76.27-.29-116.99-.89-3.7 21.01-10.38 51.32-20.03 90.95 30.67-.89 55.94-1.33 75.8-1.33l35.04.44-34.76 155.73c-24.27 6.81-47.31 11.61-69.1 14.42-21.8 2.81-40.53 4.21-56.21 4.21-42.9 0-79.45-8.28-109.66-24.85-30.22-16.56-49.7-39.85-58.45-69.88-8.76-30.02-9.77-64.11-3.04-102.27 6.05-34.31 18.04-67.51 35.98-99.61 17.94-32.09 40.58-59.01 67.93-80.75 27.35-21.74 58.14-37.78 92.36-48.14 34.22-10.35 69.52-15.53 105.91-15.53 56.5 0 117.6 11.69 183.29 35.05 3.54-36.82 8.11-72.01 13.74-105.6-71.84-15.38-136.45-23.07-193.83-23.07-41.73.04-81.93 3.67-120.63 10.91zm1239.36 66.55c-26.53-27.36-59-47.1-97.39-59.23-38.39-12.12-79.62-18.19-123.7-18.19-50.88 0-99.71 7.25-146.49 21.74-46.79 14.5-89.14 35.79-127.08 63.89s-69.2 63.6-93.77 106.48c-24.57 42.89-41 87.85-49.3 134.88-7.56 42.89-7.79 82.75-.67 119.57 7.11 36.83 23.91 69.44 50.41 97.83 1.02 1.09 2.07 2.15 3.11 3.22 27.01 27.25 72.68 53.16 104.67 53.18 87.25.05 168.23.33 275.19 0 18.39-.06 84.58-30.34 122.3-59.51 1.21-.96 2.43-1.9 3.63-2.88 36.95-30.02 66.63-65.81 89.04-107.37 22.42-41.55 37.64-85.11 45.68-130.66 8.56-48.51 8.05-90.95-1.5-127.34-9.55-36.38-27.6-68.24-54.13-95.61zm-80.55 227.83c-5.53 31.36-15.73 61.53-30.6 90.51-14.88 28.99-33.81 53.76-56.82 74.32-23.01 20.56-48.7 35.87-77.1 45.92-28.4 10.06-57.23 15.09-86.52 15.09-38.76 0-73.35-8.5-103.77-25.51-30.43-17.01-50.85-41.71-61.26-74.09-10.41-32.39-12.22-67.81-5.44-106.26 7.3-41.41 22.45-79.93 45.45-115.58 23-35.64 52.87-63.74 89.63-84.3 36.75-20.55 77.47-30.84 122.14-30.84 28.4 0 54.72 4.66 78.96 13.98 24.24 9.32 43.83 23.67 58.75 43.04 14.92 19.38 24.38 42.52 28.36 69.44 3.97 26.9 3.37 55-1.78 84.28zm362.35-284.62c-33.33 13.75-59.92 32.83-79.75 57.23-19.84 24.4-32.2 50.51-37.11 78.31-2.66 15.09-3.1 29.28-1.3 42.59 1.8 13.31 6.24 26.7 13.33 40.15 7.09 13.46 18.03 28.62 32.8 45.48 6.52 7.7 18.53 20.56 36.04 38.6 36.86 37.27 62.31 64.04 76.35 80.31 11.11 11.83 18.52 23.22 22.25 34.16 2.36 7.99 2.66 17.01.89 27.06-2.3 13.02-8.29 24.78-17.98 35.27-9.69 10.5-23.25 18.63-40.68 24.4-17.44 5.77-35.62 8.65-54.55 8.65-47.33 0-97.67-13.16-151.01-39.49-.04 1.07-.09 2.15-.15 3.24-1.25 27.36-4.46 62.09-9.62 104.19 126.91.66 255.25-.28 290.06-.01 11.17.09 60.54-27.9 89.56-65.94 15.42-22.03 25.33-45.48 29.71-70.32 1.87-10.65 2.55-20.78 2.03-30.39-.46-8.41-1.79-16.65-4-24.72-.32-1.15-.65-2.3-1-3.45-2.81-9.16-7.25-18.78-13.29-28.84-6.05-10.05-13.58-20.55-22.57-31.5-9-10.94-19.41-22.18-31.25-33.72l-45.99-49.69c-7.86-6.5-17.22-15.01-28.07-25.51-10.86-10.5-18.89-19.67-24.1-27.51-5.21-7.83-8.67-14.2-10.38-19.08a58.343 58.343 0 0 1-3.13-15.08c-.37-5.17-.15-10.13.69-14.86 3.08-17.45 15-32.76 35.78-45.92 20.77-13.16 45.62-19.74 74.56-19.74 38.97 0 79.92 8.87 122.85 26.62 2.55-39.63 5.8-74.83 9.75-105.6-51.13-10.35-97.84-15.53-140.14-15.53-47.05.01-87.24 6.89-120.58 20.64z" style="fill:#010101"/><path d="M2178 1056c-47.29 428.65-472.77 592.48-772 461-381.25-173.29-449.73-676.42-126-938-739.59 259.75-569.2 1381.61 347 1402.97 566.76-3.17 952.92-457.46 972-925.97-185.33.15-306.11-.36-421 0z" style="fill:#ffdc19"/><path d="M1280 579c-739.59 259.75-569.2 1381.61 347 1402.97 566.76-3.17 952.92-457.46 972-925.97-24.39.02-47.66.03-69.95.03-100.7 0-181.31-.16-254.16-.16-33.54 0-65.44.03-96.9.13-36.64 332.08-300.31 505.25-556.36 505.25-74.46 0-148.23-14.63-215.64-44.25-381.24-173.29-449.72-676.42-125.99-938zm0 0c-323.73 261.58-255.25 764.71 126 938 67.41 29.62 141.18 44.25 215.64 44.25 256.05 0 519.72-173.17 556.36-505.25 31.46-.1 63.35-.13 96.9-.13 72.85 0 153.45.16 254.16.16 22.29 0 45.56-.01 69.95-.03-19.08 468.51-405.24 922.81-972 925.97C710.8 1960.61 540.41 838.75 1280 579z"/><path d="M1627 36.03C982.08 37.76 410.03 705.69 754.57 1439.27 480.9 393.75 2076.63 49.61 2178 959c174.44-.14 209.96-.08 420 0-22.92-494.28-433.64-922.97-971-922.97z" style="fill:#006c32"/><path d="M1627 36.03C982.08 37.76 410.03 705.69 754.57 1439.27c-164.86-629.84 348.79-1005.2 805.37-1005.2 301.34 0 577.75 163.37 618.06 524.93 75.39-.06 124.84-.08 173.64-.08 64.11 0 127.1.04 246.36.08-22.92-494.28-433.64-922.97-971-922.97zm0 0c537.36 0 948.08 428.7 971 922.97-119.26-.04-182.25-.08-246.36-.08-48.8 0-98.25.02-173.64.08-40.3-361.56-316.72-524.93-618.06-524.93-456.58 0-970.24 375.36-805.37 1005.2C410.03 705.69 982.08 37.76 1627 36.03z"/></svg>